<svg version="1.1" xmlns="http://www.w3.org/2000/svg" viewBox="0 0 1524.2857142857142 657.3156312684471" width="3048.5714285714284" height="1314.6312625368942">
  <!-- svg-source:excalidraw -->
  
  <defs>
    <style class="style-fonts">
      @font-face {
        font-family: "Virgil";
        src: url("https://excalidraw.com/Virgil.woff2");
      }
      @font-face {
        font-family: "Cascadia";
        src: url("https://excalidraw.com/Cascadia.woff2");
      }
      @font-face {
        font-family: "Assistant";
        src: url("https://excalidraw.com/Assistant-Regular.woff2");
      }
    </style>
    
  </defs>
  <g stroke-linecap="round" transform="translate(10 50.000000000000114) rotate(0 562.8571428571429 85.71428571428572)"><path d="M-0.61 0.11 C345.43 -2.57, 689.34 -1.07, 1125.2 -0.08 M0.49 -0.03 C286.84 4.19, 573.64 4.72, 1125.11 0.14 M1127.59 -1.12 C1127.65 59.3, 1127.37 114.91, 1126.17 167.94 M1125.43 1.44 C1126.72 38.54, 1127.75 75.84, 1126.76 173.36 M1127.07 169.87 C752.25 168.07, 382.74 167.34, -1.41 172.72 M1125.95 171.79 C799.99 173.81, 474.37 173.32, -0.21 172.14 M1.71 173.27 C-4.59 115.2, -4.84 62.78, -0.46 -0.51 M-1.55 169.96 C-0.94 105.06, -1.92 41.99, 1.95 0.62" stroke="#1971c2" stroke-width="2" fill="none"></path></g><g transform="translate(388.6450762067524 55.000000000000114) rotate(0 184.21206665039062 22.5)"><text x="184.21206665039062" y="31.536" font-family="Virgil, Segoe UI Emoji" font-size="36px" fill="#1971c2" text-anchor="middle" style="white-space: pre;" direction="ltr" dominant-baseline="alphabetic">Stream-Aligned Team</text></g><g stroke-linecap="round" transform="translate(54.28571428571411 118.57142857142856) rotate(0 80.71428571428567 39.28571428571428)"><path d="M0 0 C0 0, 0 0, 0 0 M0 0 C0 0, 0 0, 0 0 M-1.14 7.08 C1.95 6.04, 1.55 2.71, 4.11 1.56 M0.23 7.18 C1.31 3.8, 4.25 1.54, 5.02 -0.11 M0.54 15.2 C0.95 6.33, 9.39 2.09, 9.18 0.18 M-1.43 13.49 C2.75 10.86, 4.87 6.41, 12 -0.93 M-0.89 18.98 C5.66 10.09, 8.82 7.53, 19.39 -2.34 M-1.29 17.18 C6.56 12.87, 10.72 3.84, 17.46 -0.05 M-1.89 20.3 C2.85 21.4, 12.95 11.05, 24.79 1.95 M-0.76 25.14 C9.81 15.89, 16.84 8.29, 21.92 0.36 M-0.34 28.9 C8.71 23.06, 12.34 20.65, 26.7 2.66 M0.45 29.79 C12.35 19.8, 20.85 7.42, 27.94 -1.55 M1.77 35.7 C13.03 20.85, 20.44 8.32, 29.92 -3.92 M-1.68 36.45 C13.83 23.05, 25.68 7.42, 30.48 0.36 M-1.02 45.37 C14.71 25.29, 27.7 9.31, 39.67 -3.26 M0.99 43.2 C6.66 30.84, 17.68 22.83, 38.76 -0.75 M-1.15 52.07 C15.63 30.67, 32.82 11.26, 45.27 -3.11 M1.47 48.38 C10.08 36.84, 20.12 28.55, 44.23 -1.49 M-2.89 55.67 C9.69 40.29, 24.75 22, 49.47 2.04 M1.03 54.56 C17.68 36.29, 32.49 16.01, 46.07 -0.93 M-1.13 57.3 C16.93 45.8, 27.57 26.09, 52.13 -1.61 M-1.32 59.87 C18.34 39.35, 37.69 18.02, 51.23 -1.41 M1.72 67.56 C24 43.73, 39.84 15.43, 55.52 -3.57 M-1.51 65.91 C20.52 44.84, 44.31 18.51, 59.87 -1.25 M-3.74 74.27 C11.68 55.72, 24.3 39.05, 64.05 -1.65 M-1.56 73.28 C16.23 55.05, 30.94 37.82, 65.41 0.48 M-0.69 81.53 C16.5 55.87, 35.8 39.27, 65.51 1.58 M-0.22 80.37 C26.95 52.72, 48.7 23.79, 68.03 -0.76 M6.93 75.59 C26.01 58.87, 43.36 34.59, 70.84 -1.73 M4.39 77.03 C20.4 59.82, 36.92 42.25, 74.61 0.23 M7.21 78.28 C25.22 61.32, 43.16 41.51, 79.36 2.84 M11.73 77.67 C35.65 49.84, 60.43 22.58, 80.31 1.65 M17.83 75.63 C46.66 47.13, 71.08 20, 86.54 3.42 M16.77 77.7 C32.61 61.74, 50.56 43.91, 84.52 -2.03 M24.63 79.4 C34.23 58.19, 50.3 45.64, 89.24 -2.63 M20.71 78.76 C36.04 60.11, 55.13 42.46, 88.35 -0.83 M26.86 82.59 C46.22 56.17, 71.79 23.44, 93.45 -1.19 M28.49 80.04 C47.41 51.04, 73.52 25.52, 94.69 -2.02 M28.88 74.9 C59.46 53.9, 80.27 25.26, 103.58 2.06 M32.79 77.44 C51.79 57.44, 70.71 33.34, 101.65 1.15 M37.46 78.33 C61.16 51.03, 90.65 20.49, 106.14 -2.81 M35.53 78.9 C57.31 57.94, 81.08 34.41, 106.58 0.67 M45.51 74.55 C70.72 53.09, 89.04 23.27, 115.05 -2.47 M43.89 79.59 C64.99 50.87, 88.61 23.14, 111.59 1.06 M45.31 80.5 C62.71 58.26, 80.55 40.55, 114.73 -0.15 M47.79 77.23 C63.23 61.89, 76.71 43.13, 114.86 -0.68 M51.66 76.6 C71.76 56.34, 94.81 31.22, 124.59 0.17 M51.2 80.01 C76.36 54.78, 97.58 28.41, 123.43 0.47 M62.33 78.48 C75.93 64.43, 90.72 49.35, 127.59 1.52 M57.01 78.13 C74.29 58.94, 88.97 39.87, 126.01 1.06 M66.68 80.81 C88.69 57.73, 111.94 27.42, 133.36 -1.87 M63.72 79.32 C86.44 56.6, 107.58 31.33, 132.29 1.11 M68.7 81.42 C85.25 62.21, 100.11 43.61, 135.38 2.98 M68.83 76.8 C88.76 54.25, 109.79 29.74, 138.46 -0.58 M76.24 76.94 C96.69 61, 115.48 31.34, 142.79 -0.72 M74.34 80.56 C99.33 47.27, 125.3 16.21, 143.19 0.8 M76.83 78.2 C104.17 49.83, 131.4 25.97, 145.63 -0.01 M78.75 80.59 C108.24 48.29, 135.02 20.51, 149.15 -0.69 M82.88 81.77 C109.29 53.85, 130.83 31.4, 154.57 -0.73 M86.53 78.14 C100.01 57.98, 118.95 35.1, 155 1.52 M91.42 77.45 C111.16 57.31, 127.32 30.91, 158.16 0.05 M92.16 76.95 C106.36 62.1, 119.37 47.64, 156.9 1.75 M97.39 75.79 C115.22 57.01, 128.83 42.02, 159.98 0.49 M93.6 78.56 C110.19 60.61, 126.61 41.42, 161.86 4.37 M101.38 75.56 C119.33 59.88, 136.73 41.91, 165.13 7.49 M100.31 77.48 C120.63 54.04, 141.7 31.81, 162.52 8.95 M106.84 75.27 C120.47 70.21, 125.62 57.64, 163.31 12.89 M106.74 80.5 C119.8 64.08, 130.75 49.66, 160.49 14.35 M111.88 80.67 C123.01 67.54, 133.17 48.22, 164.1 23.29 M112.33 77.89 C127.75 56.94, 148.61 37.14, 161.85 20.15 M114.52 76.23 C126.63 65.02, 135.91 58.3, 160.15 24.78 M115.02 78.72 C135.14 59.17, 148.59 39.6, 160.58 27.24 M120.37 80.67 C137.09 63.36, 155.99 44.94, 158.24 31.18 M123.23 78.02 C132.74 69.31, 138.27 61.49, 161.93 33.72 M123.97 78.43 C141.01 65.76, 155.66 53.31, 160.54 39.55 M129.38 80.12 C142.15 63.43, 152 49.94, 159.86 38.25 M132.5 75.18 C143.54 71.87, 149.22 63.57, 163.7 46.42 M133.88 77.82 C142.52 68.11, 150.87 59.23, 160.44 47.95 M139.01 77.36 C147.13 67.61, 148.49 65.9, 159.4 55.58 M138.64 79.72 C144.81 69.54, 156.2 58.02, 162.59 49.97 M146.21 75.61 C148.71 72.24, 150.84 71.11, 158.84 61.79 M143.05 77.39 C147.56 75.51, 152.29 68.28, 162.88 58.98 M147.69 80.31 C149.63 71.24, 156.76 71.32, 159.9 67.02 M149.5 80.68 C152.83 72.38, 157.97 68.75, 162.89 65.12 M152.88 79.93 C156.23 73.6, 159.5 71.1, 160.87 69.01 M154.91 77.65 C157.77 75.95, 159.36 73.94, 162.17 69.73 M159.78 79.39 C159.4 77.71, 161.18 76.93, 161.83 77.2 M159.21 78.79 C159.68 77.95, 160.36 77.48, 161.12 76.42" stroke="#ffec99" stroke-width="0.5" fill="none"></path><path d="M-0.34 1.99 C37.32 -0.48, 74.55 2.97, 159.66 -1.64 M-0.84 -0.21 C45.79 1.24, 91.71 1.52, 160.22 0.98 M161.89 1.87 C157.9 21.56, 162.32 38.42, 163.28 82.21 M160.11 0.07 C163.15 23.07, 164.2 47.33, 160.4 77.79 M158.43 82.45 C107.61 78.65, 55.79 78.57, -1.73 78.6 M162.61 77.09 C115.46 80.24, 68.39 80.05, 0.92 79.95 M0.63 82.34 C-0.43 52.27, -1.75 20, -2.06 -0.09 M-1.35 77.23 C-0.02 59.49, 1.56 46.05, 1.71 0.05" stroke="#f08c00" stroke-width="1" fill="none"></path></g><g transform="translate(92.20182800292946 140.3571428571429) rotate(0 42.79817199707031 17.5)"><text x="42.79817199707031" y="24.528" font-family="Virgil, Segoe UI Emoji" font-size="28px" fill="#f08c00" text-anchor="middle" style="white-space: pre;" direction="ltr" dominant-baseline="alphabetic">Design</text></g><g stroke-linecap="round" transform="translate(255.0000000000001 120.7142857142859) rotate(0 90 40)"><path d="M0 0 C0 0, 0 0, 0 0 M0 0 C0 0, 0 0, 0 0 M-0.01 7.5 C-0.02 3.41, 1.36 4.5, 6.26 -0.07 M0.43 7.08 C0.85 4.32, 3.75 2.27, 4.36 0.58 M-1.98 13.61 C3.98 10.96, 6.04 6.5, 11.85 -0.03 M-0.11 10.89 C2.86 7.83, 8.73 2.88, 10.18 -1.5 M1.6 17.42 C3.59 13.93, 8.76 8.41, 12.95 -1.85 M-1.44 16.51 C3.42 14.22, 9.46 7.53, 16.6 0.43 M-1.76 21.47 C4.04 18.46, 14.35 3.96, 18.75 -2.97 M0.63 25.81 C3.29 16.36, 9.24 14.37, 19.32 0.57 M-3.39 30.75 C5.63 20.43, 15.31 17.95, 22.84 0.85 M0.89 32.11 C10.14 18.3, 19.12 7.02, 25.63 1.73 M-0.41 33.62 C10.35 29.17, 14.48 15.26, 30.37 3.35 M-0.08 36.14 C9.7 23.73, 22.49 12, 32.6 -1.81 M-0.71 38.95 C11.3 24.7, 24.98 9.09, 34.6 -3.7 M-0.71 42.72 C9.51 31.8, 18.08 24.96, 34.9 0.09 M-3.39 48.88 C15.71 35.33, 26.93 21.22, 43.65 -2.02 M0.9 49.83 C15.11 34.4, 25.96 16.53, 43.36 -1.8 M3.28 56.06 C21.17 32.21, 30.94 13.77, 48.75 -2.32 M0.74 54.04 C11.04 37.63, 27.41 25.86, 48.92 0.64 M2.16 60.17 C12.75 41.65, 33.29 24.57, 50.98 0.2 M0.95 59.28 C12.59 45.49, 26.73 29.96, 53.19 1.65 M-2.7 65.14 C9.9 55.01, 25.21 37.59, 61.54 2.4 M-0.35 66.38 C10.81 54.26, 23.03 41.06, 56.37 -1.63 M1.49 75.92 C24.35 45.33, 46.03 17.45, 64.5 -2.41 M-1.78 73.99 C21.52 50.57, 40.22 27.18, 63.81 -0.49 M-0.2 79.23 C14.44 57.73, 30.9 34.24, 65 0.15 M0.56 79.68 C14.79 62.12, 27.31 44.18, 69.99 -1.83 M2.25 85.78 C26.45 53.96, 56.54 19.81, 76.09 1.93 M1.6 82.33 C20.85 63.24, 35.43 45.61, 73.04 0.58 M6.89 80.84 C25.91 58.77, 47.37 42.21, 78.88 -3.15 M6.02 80.96 C34.64 49.73, 65.43 16.3, 78.71 -1.2 M10.45 84.66 C35.99 56.75, 58.13 30.99, 81.38 1.28 M14.75 83.5 C37.57 51.91, 60.84 23.53, 86.87 -0.45 M21.95 83.04 C43.41 51.43, 69.38 27.32, 86.7 -1.32 M18.24 81.45 C41.38 58.79, 62.41 32.49, 91.54 0.89 M22.72 82.76 C47.38 50.39, 74.78 17.4, 95.78 -0.05 M24.32 81.7 C50.27 50.26, 75.53 20.23, 95.37 1 M30.75 80.16 C52.71 58.98, 74.09 33.9, 99.7 -3.94 M30.19 83.24 C44.83 63.77, 63.28 44.02, 101.63 -1.06 M30.68 82.29 C59.68 53.11, 88.33 18.43, 106.41 2.47 M32.3 82.68 C52.89 65.69, 68.56 43.31, 104.75 -0.63 M41.42 79.75 C61.52 60.64, 80.99 29.54, 108.92 3.67 M41.58 83.26 C64.61 52.99, 90.69 25.35, 110.27 1.34 M47.63 83.4 C70.61 49.25, 101.03 23.76, 119.5 -1.6 M42.78 83.83 C62.42 63.78, 76.44 47.06, 116.7 -0.26 M49.85 81.61 C70.61 55.2, 88.8 33.35, 125.11 -3.57 M52.25 80.35 C73.58 57.49, 92.38 35.35, 122.84 -1.67 M56.7 80.77 C80.02 50.16, 111.21 23.82, 123 -0.71 M54 82.65 C78.82 56.55, 97.69 32.35, 127 -1.23 M63.68 85.79 C80.56 58.75, 104.46 33.26, 130.78 -2.47 M62.16 83.18 C78.52 60.81, 97.27 40.75, 132.88 -1.94 M69.39 84.58 C90.12 48.39, 119 14.89, 138.65 3.2 M64.99 81.77 C87.94 57.19, 112.48 34.69, 137.56 1.31 M70.29 84.59 C92.76 61.36, 112.18 38.62, 144.18 -1.62 M71.4 82.33 C87.33 60.34, 103.84 42.87, 142.03 -1.48 M76.96 81.26 C96.85 60.29, 120.67 32.71, 144.57 -0.33 M74.91 81.69 C104.81 53.38, 131.3 19.72, 147.12 1.29 M84.82 78.56 C97.09 57.3, 117.11 38.49, 155.35 -1.34 M84.18 82.25 C110.66 52.02, 139.97 17.86, 152.07 -0.4 M90.42 81.48 C110.99 55.84, 132.35 25.21, 162.66 2.5 M87.02 80.81 C113.84 51.13, 144.19 20.6, 158.5 -1.47 M94.16 84.51 C121.11 48.62, 152.85 12.72, 166.03 -1.69 M92.85 81.25 C122.23 50.52, 148.47 18.26, 164.91 -0.95 M100.55 80.17 C129.09 56.39, 151.82 24.11, 170.56 1.75 M96.72 83.36 C110.93 62.38, 127.32 48.72, 170.67 -1.27 M104.95 79.48 C131.44 51.49, 149.54 28.17, 173.74 -2.52 M101.85 83.52 C124.55 56.73, 144.22 34.21, 174.56 0.51 M109.84 80.5 C129.19 63.54, 142.77 48.84, 181.65 3.71 M107.55 83.49 C133.85 56.72, 154.06 28.49, 178.72 1.45 M111.56 80.78 C130.56 63.3, 147.05 44.79, 181.83 3.41 M115.79 83.14 C138.45 53.29, 164.83 24.53, 181.28 8.27 M116.56 85.9 C136.21 67.63, 142.74 52.58, 178.56 11.01 M119.15 81.2 C131.4 69.14, 145.86 54.76, 179.36 12.21 M128.14 81.95 C136.67 65.54, 149.72 51.54, 180.63 15.26 M123.37 80.04 C142.19 60.02, 164.37 35.11, 180.64 20.2 M130.72 84.05 C148.5 62.88, 165.69 39.32, 176.69 26.38 M131.3 82.38 C146.01 65.83, 160.12 49.26, 178.43 22.25 M132.58 84.8 C146.26 74.32, 155.69 56.56, 183.5 28.66 M137.43 80.05 C147.33 69.23, 155.13 59.76, 179.65 32.28 M142.09 78.86 C157.97 69.25, 172.32 49.08, 176.01 33.63 M139.89 82.77 C151.55 67.2, 161.64 55.22, 178.73 37.53 M146.5 83.38 C157.95 70.8, 162.83 59.86, 178.94 44.81 M146.94 82.85 C158.07 72.61, 166.22 58.13, 180.82 43.63 M152.17 82.52 C161.71 73.91, 170.68 58.95, 182.23 46.53 M152.96 84 C160.7 67.77, 173.47 54.41, 181.16 47.6 M154.65 80.74 C161.7 74.81, 170.58 66.67, 183.21 57.12 M156.32 82.78 C165.42 73.5, 173.12 65.72, 178.82 55.28 M158.23 83.46 C164.9 74.34, 172.68 69.23, 178.82 57.41 M162.65 81.59 C167.38 75.85, 173.51 67.54, 180.78 62.16 M163.47 85.92 C171.31 81.2, 170.92 71.3, 183.68 68.02 M168.1 81.76 C169.49 77.11, 173.3 73.69, 179.75 66.83 M170.5 79.89 C174.17 79.67, 177.73 75.04, 178.68 73.7 M172.87 81.44 C175.05 79.39, 179.1 74.51, 180.94 72.48 M178.09 83.36 C177.31 81.87, 178.33 81.28, 180.23 79.24 M177.64 82.44 C177.71 81.93, 179.18 80.63, 179.92 79.96" stroke="#b2f2bb" stroke-width="0.5" fill="none"></path><path d="M-2.18 1.67 C60.21 -0.8, 116.11 4.85, 182.71 -2.32 M-0.87 -0.59 C44.51 -3.15, 84.43 -3.91, 178.6 -1.08 M181.73 -1.04 C182.32 18.45, 180.82 29.6, 176.66 77.95 M181.46 0.8 C182.09 28.65, 179.72 54.62, 181.76 79.83 M180.51 83.6 C133.57 81.94, 90.15 78.64, -1.23 80.88 M179.81 80.81 C133.89 80.27, 85.87 83.19, 0.43 81.01 M-2.88 79.17 C-2.64 54.53, 2.77 36.2, 1.15 -2.85 M1 79.3 C-2.67 58.16, 0.57 33.58, 0.21 -0.58" stroke="#2f9e44" stroke-width="1" fill="none"></path></g><g transform="translate(262.133644104004 143.2142857142859) rotate(0 82.8663558959961 17.5)"><text x="82.8663558959961" y="24.528" font-family="Virgil, Segoe UI Emoji" font-size="28px" fill="#2f9e44" text-anchor="middle" style="white-space: pre;" direction="ltr" dominant-baseline="alphabetic">Development</text></g><g stroke-linecap="round" transform="translate(467.1428571428569 116.7142857142859) rotate(0 90 40)"><path d="M0 0 C0 0, 0 0, 0 0 M0 0 C0 0, 0 0, 0 0 M-1.43 5.72 C-0.16 3.7, 2.71 3.98, 4 -0.12 M-0.68 6 C1.24 4.4, 2.56 2.75, 4.31 1 M2.99 12.09 C4.4 5.47, 4.41 3.02, 10.32 3.01 M0.23 11.65 C3.83 8.29, 5.9 6.95, 11.07 0.15 M1.8 21.74 C4.42 15.1, 13.05 7.99, 12.25 -1.97 M0.69 19.23 C4 16.03, 7.11 10.75, 14.47 1.72 M0.53 23.55 C4.31 15.44, 13.19 9.19, 22.08 -0.43 M1.67 25.82 C7.49 16.75, 11.51 10.11, 21.42 -0.52 M2.44 32.55 C8.72 23.38, 12.3 18.01, 23.89 1.51 M0 31.13 C5.18 24.17, 10.78 17.95, 26.62 1.6 M-2.74 37.98 C5.91 28.23, 21.54 13.01, 31.18 0.98 M1.44 38.79 C9.54 25.4, 16.76 16.7, 33.57 0.02 M-2.52 40.08 C8.08 24.98, 23.35 17.09, 39.07 -0.35 M0.03 41.34 C9.74 34.75, 14.64 25.1, 38.67 -0.68 M1.84 46.92 C12.09 41.06, 21 24.86, 43.05 0.18 M1.33 49.16 C17.49 31.75, 32.11 11.98, 41.67 1.44 M-2.56 55.51 C17.23 30.02, 38.35 16.25, 47.2 -1.24 M0.31 56.01 C17.05 32.88, 37.46 11.36, 45.73 -1.56 M0 60.43 C11.41 48.14, 25.57 30.04, 50.97 -2.42 M1.28 59.75 C19.16 39.75, 38.07 15.17, 51.87 1.24 M-0.07 67.01 C21.82 43.05, 39.09 27.02, 57.41 -2.62 M-0.18 67.88 C18.91 47.79, 39.38 23.79, 59 0.39 M-2.12 72.08 C20.3 51.82, 44.8 24.76, 59.94 1.87 M2 74.5 C11.59 61.08, 26.66 43.2, 62.42 -1.2 M0.27 76.75 C10.09 60.28, 25.75 43.67, 66.58 2.32 M-0.33 81.34 C25.73 46.82, 55.31 17.3, 69.82 0.51 M1.3 79.12 C34.07 49.88, 57.39 17.48, 70.71 -2.02 M4.26 78.7 C24.02 59.99, 42.16 36.72, 75.75 -0.61 M13.39 78.09 C29.79 52.88, 51.26 31.49, 83.34 -3.37 M8.93 81.57 C33.17 55.6, 52.5 28.17, 77.66 -0.02 M18.52 80.59 C30.74 63.32, 51.57 38.95, 87.82 3.06 M15.65 81.03 C37.25 60.19, 54.08 36.47, 86.37 -1.87 M23.64 77.77 C37.74 54.67, 57.44 28.12, 88.1 3.6 M22.44 80.76 C41.73 59.16, 61.43 35.96, 90.1 1.87 M28.36 78.33 C43.05 62.68, 54.64 48.34, 95.51 2.57 M26.7 78.59 C38.54 65.02, 54.02 48.3, 96.94 0.03 M27.62 80.97 C53.62 53.16, 74.14 27.95, 96.98 -1.2 M31.71 79.19 C57.72 49.8, 84.41 18.93, 98.86 -0.88 M35.97 82.91 C59.93 53.21, 82.32 33.62, 105.8 -1.85 M34.62 78.85 C63.56 49.68, 89.24 19.75, 106.22 -0.03 M42.34 76.37 C71.55 45.35, 97.9 18.5, 113.87 -1.99 M40.99 78.22 C59.88 57.97, 76.67 38.36, 111.76 -1.44 M50.23 81.12 C71.48 56.18, 97.65 22.73, 117.79 0.51 M44.75 79.1 C72.47 48.89, 97.71 23.15, 116.46 -0.54 M48.55 76.9 C70.11 57.49, 90.38 32.04, 122.4 1.3 M50.7 81.12 C75.52 56.8, 96.2 30.62, 120.79 0.87 M59.78 84 C72.91 59.69, 86.03 41.01, 128.31 2.31 M58.55 78.55 C74.58 61.08, 89.99 41.77, 128.01 -0.38 M62.12 80.48 C84.62 59.66, 104.32 35.94, 133.97 0.96 M60.71 81.77 C88.03 51.38, 116.21 24.35, 134.02 0.63 M65.01 78.87 C82.89 68.22, 91.88 50.44, 135.96 -1.28 M69.61 82.27 C92.39 50.78, 117.38 22.46, 139.35 1.71 M72.63 83.03 C97.86 55.13, 119.98 30.93, 139.71 -2.46 M72.97 81.67 C94.13 58.46, 112.95 37.2, 143.67 -1.73 M78.04 77.27 C102.62 53.68, 128.9 27.71, 151.76 0.42 M79.64 81.2 C93.62 62.08, 109.67 43.86, 149.77 0.11 M87.41 82.98 C101.85 61.33, 127.8 30.81, 150.51 -0.16 M83.6 82.45 C97.09 64.38, 110.51 47.93, 154.07 0.12 M90.77 83 C106.62 54.42, 132.72 31.45, 158.47 2.34 M90.48 80.15 C116.5 48.14, 143.19 18.16, 158.65 -0.92 M94.25 78.25 C123.45 55.08, 143.36 24.3, 165 0.92 M93.51 78.87 C108.43 60.86, 125.57 45.51, 165.69 -1.63 M98.84 84.12 C112.67 65.69, 126.48 44.69, 166.59 -0.35 M100.09 81.82 C116.75 57.96, 134.84 37.91, 169.53 0.76 M108.64 83.03 C122.44 63.55, 135.49 42.31, 177.57 2.07 M103.72 79.56 C121.78 62.8, 141.46 38.68, 175.12 -0.91 M109.63 76.92 C135.96 58.4, 153.09 25.58, 182.39 3.78 M110.56 78.78 C125.87 58.85, 143.44 38.45, 178.06 1.13 M117.86 79.74 C132.27 56.57, 147.74 43.2, 180.46 3.64 M115.39 79.03 C141.59 53.39, 164.75 27.34, 181.16 5.02 M118.27 81.95 C141.1 55.03, 160.09 35.41, 181.39 14.48 M120.11 81.47 C140.16 58.46, 163.64 32.23, 181.51 14.17 M128.9 83.05 C145.24 57.47, 170.51 31.03, 176.85 21.92 M125.78 81.65 C141.67 63.8, 157.81 43.61, 177.97 20.45 M131.66 80.02 C148.77 62.74, 169.93 40.03, 179.84 23.6 M131.07 78.21 C148.23 61.48, 165.05 44.04, 182.28 23.55 M136.55 83.89 C156.08 57.94, 173.26 42.69, 176.99 29.68 M136.29 81.69 C145.44 67.76, 158.43 55.29, 179.09 31.81 M144.43 76.18 C150.81 68.69, 162.18 57.45, 178.6 36.07 M141.9 79.2 C158.07 62.86, 171.57 46.02, 179.75 35.66 M147.29 81.44 C152.4 71.59, 158.37 62.56, 182.25 45.21 M148.46 79.26 C159.29 64.92, 172.99 52.61, 181.62 44.66 M154.97 83.72 C161.29 73.38, 164.77 67.39, 176.25 46.81 M151.19 80.5 C159.59 73.43, 166.31 64.31, 179.37 48.49 M155.41 83.12 C160.46 76.09, 169.56 66.74, 181.78 55.08 M159.94 80.39 C164.32 74.2, 170 64.11, 178.78 54.45 M165.41 76.2 C165.65 75.03, 171.61 69.43, 181.13 61.25 M165.66 80.05 C170.01 73.55, 178.14 64.76, 180.77 60.19 M167.16 80.56 C171.19 73.29, 178.42 70.54, 183.2 70.33 M168.51 80.86 C172.33 77.76, 176.57 73.99, 179.32 67.28 M173.32 82.45 C176.61 76.75, 179.9 75.15, 181.11 74.74 M174.56 81.57 C175.67 78.06, 175.87 76.93, 180.27 73.58 M179.09 80.4 C179.5 80.04, 179.7 79.84, 179.85 79.49 M179.32 80.24 C179.41 80.08, 179.55 79.91, 180.03 79.62" stroke="#d0bfff" stroke-width="0.5" fill="none"></path><path d="M-2.55 -1.29 C38.69 2.08, 77.43 -2.16, 176.49 -3.26 M0.41 -0.47 C70.45 -2.44, 144.42 -2.95, 178.65 -1.17 M180.38 -2.01 C178.26 33.51, 180.87 57.2, 178.18 81.32 M181.83 -1.77 C182.27 23.36, 179.1 46.51, 179.56 80.8 M182.21 76.05 C113.62 84.52, 53.1 81.11, -3.41 81.71 M178.18 81.33 C138.81 76.85, 95.21 78.27, 1 79.59 M-2.2 80.85 C1.19 55.79, -3.11 32.53, 2.21 2.48 M-0.29 79.15 C-0.21 59.96, -1.13 37.01, -1.23 -0.15" stroke="#6741d9" stroke-width="1" fill="none"></path></g><g transform="translate(506.0986448015483 139.2142857142859) rotate(0 51.044212341308594 17.5)"><text x="51.044212341308594" y="24.528" font-family="Virgil, Segoe UI Emoji" font-size="28px" fill="#6741d9" text-anchor="middle" style="white-space: pre;" direction="ltr" dominant-baseline="alphabetic">Testing</text></g><g stroke-linecap="round" transform="translate(677.1428571428571 115.71428571428578) rotate(0 90 40)"><path d="M0 0 C0 0, 0 0, 0 0 M0 0 C0 0, 0 0, 0 0 M-0.23 7.55 C0.32 3.8, 3.65 1.53, 3.56 -1.07 M-0.26 6.29 C0.58 5.5, 1.88 3.65, 4.55 -0.09 M2.17 10.11 C3.84 8.77, 6.37 1.34, 8.57 2.22 M0.21 11.9 C4.49 7.06, 7.23 5.45, 10.34 -1.16 M0.02 19.49 C5.51 15.45, 13.65 5.16, 17.34 0.73 M-1.26 17.98 C4.47 13.76, 11.41 6.35, 13.69 1.37 M3.98 27.08 C2.06 22.96, 10.7 11.94, 18.55 -2.05 M0.46 22.76 C2.73 17.85, 7.84 12.68, 20.16 1.01 M-0.42 34.36 C7.84 16.95, 23.07 8.43, 28.35 1 M-1.45 29.78 C11.62 18.96, 19.92 6.62, 24.4 -0.6 M-0.16 33.25 C8.9 27.71, 16.14 14.57, 34.57 -0.84 M1.51 35.86 C8.87 24.15, 18.82 14.36, 33.86 -1.85 M-1.71 45.42 C13.45 31.42, 20.03 13.48, 33.4 -0.03 M1.98 42.57 C8.51 33.45, 19.36 20.77, 38.27 1.93 M1.5 50.01 C16.04 38.78, 23 22.05, 45.18 -3.32 M1.46 47.76 C10.7 33.39, 22.92 17.39, 41.56 1.62 M4.19 55.92 C16.35 41.16, 29.67 24.78, 47.65 3.78 M1.72 53.51 C11.68 42.64, 20.2 32.33, 47.43 1.66 M2.47 57.26 C7.93 50.92, 20.2 38.99, 55.68 0.51 M-1.74 61.42 C16.65 41.04, 32.41 22.1, 51.31 -0.8 M0.93 65.63 C21.87 42.76, 42.99 18.14, 54.53 -1.67 M-0.32 68.61 C18.94 45.86, 37.23 27.91, 57.89 -0.56 M-2.82 69.88 C25.25 45.85, 47.26 19.76, 63.61 0.42 M0.44 71.18 C26.13 42.11, 50.65 15.63, 65.07 -1.21 M-1.62 75.81 C17.68 56.24, 33.84 37.03, 69.72 -2.77 M1.63 79.77 C24 53.86, 49.24 23.16, 69.53 0.22 M0.25 77.97 C31.89 47.44, 57.41 24.67, 74.79 -2.08 M2.3 78.97 C23.53 57.84, 43.79 33.47, 74.65 0.42 M6.51 82.4 C33.88 58.6, 53.66 31.09, 77.14 1.89 M11.07 81.95 C25.71 60.92, 40.49 42.12, 80.1 1.1 M17.21 76.91 C33.82 61.49, 48.61 41.3, 87.25 -1.72 M14.73 80.37 C36.83 57.94, 56.79 34.45, 85.75 0.23 M17.2 82.23 C44.61 49.59, 75.27 25.09, 92.97 1.44 M18.99 79.37 C34.52 66.02, 46.29 48.76, 89.24 -0.71 M28.7 84.38 C48.78 51.46, 73.61 23.76, 99.31 2.49 M25.3 81.62 C49.83 55.45, 72.04 30.53, 93.94 -1.5 M31.09 82.06 C53.17 58.27, 71.44 38.02, 101.64 -3.23 M30.82 78.55 C55.35 52.59, 80.48 25.82, 102.46 0.12 M38.13 82.26 C51.02 62.6, 67.56 44.07, 109.5 -0.67 M38 81.58 C55.18 59.21, 78.58 31.96, 104.65 -0.36 M41.73 83.66 C55.15 63.21, 67.43 47.06, 111.82 0.51 M42.51 81.4 C60.94 53.93, 85.09 29.69, 111.12 1.06 M49.18 80.2 C73.95 46.54, 101.27 16.58, 115.98 -1.93 M46.74 79.2 C73.83 54.16, 96.04 24.68, 116.56 0.91 M50.92 76.53 C66.07 58.81, 85.08 45.68, 124.43 -2.96 M51.85 81.94 C65.46 64.05, 79.84 44.95, 120.5 -0.3 M57.77 83.58 C72.63 56.57, 90.38 37.67, 127.11 1.45 M59.25 81.57 C74.55 62.59, 88.98 42.88, 128.16 1.47 M60.06 78.7 C79.35 64.88, 100.89 37.13, 132.65 -1.48 M61.91 79.07 C86.13 57.04, 106.06 27.56, 133.72 1.75 M68.09 77.53 C81.68 58.54, 99.87 37.24, 133.54 2.24 M69.17 79.91 C86.51 56.52, 103.97 38.65, 137.87 -1.16 M72.75 77.67 C103.04 51.26, 128.08 23.64, 145.91 -3.19 M71.54 81.57 C96.64 52.96, 119.64 27.62, 143.78 1.05 M76.55 82.95 C100.35 56.21, 130.21 23.38, 150.81 4.2 M80.01 81.55 C104.08 48.52, 133.59 15.89, 146.63 1.93 M82.9 82.95 C104.61 59.9, 126.23 31.8, 149.89 3.57 M83.55 80.59 C109.13 52.96, 135.76 23.15, 153.57 -0.45 M87.84 76.47 C113.09 53.14, 137.79 28.53, 162.72 -1.16 M89.15 81.95 C118.1 46.71, 145.41 17.55, 157.26 -0.25 M93.31 83.05 C107.77 59.94, 129.7 39.67, 162.5 2.17 M95.25 78.65 C111.78 58.9, 131.93 36.64, 163.84 -0.64 M98.87 78.47 C129.28 48.21, 154.23 16.89, 169.33 -2.57 M99.83 80.71 C113.36 62.72, 127.29 45.61, 170.45 1.46 M107.01 78.24 C130.47 47.52, 159.59 20.89, 177.93 3.75 M105.84 82.41 C123.79 60.78, 139.15 42.1, 173.23 -1.33 M106.83 81.1 C128.03 62, 145.7 38.9, 178.93 -1.02 M109.21 81.53 C124.06 63.75, 140.76 45.09, 180.78 0.34 M119.33 80.53 C134.21 61.65, 151.32 34.87, 176.7 6 M116.38 78.63 C135.72 56.46, 158.18 31.25, 180.33 6.63 M125.14 80.24 C143.98 55.84, 170.17 26.82, 181.59 10.33 M120.27 80.26 C142.26 53.08, 165.95 29.1, 182.19 13.86 M125.8 81.68 C143 64.34, 161.39 45.77, 178.78 18.03 M125.81 82.23 C144.87 58.69, 163.67 39.25, 180.83 20.18 M135.48 83.52 C145.48 63.84, 151.38 53.43, 180.59 25.9 M129.9 80.85 C145.96 64.44, 159.36 49.34, 179.49 23.46 M138.23 77.2 C145.95 66.52, 155.51 55.39, 183.72 32.96 M134.95 80.21 C149.19 65.2, 164.19 48.58, 179.6 32.63 M143.76 78.34 C154.02 73.33, 156.57 62.79, 176.34 40.72 M140.86 79.39 C155.69 66.42, 166.01 55.5, 180.22 35.57 M144.67 82.35 C161.29 63.67, 167.14 56.07, 178.67 44.92 M146.51 79.75 C157.61 71.65, 166.26 62.63, 178.75 42.69 M156.18 79.83 C157.2 72.95, 164.62 67.3, 179.44 51.29 M153.78 80.11 C157.87 72.69, 164.89 63.08, 179.76 50.43 M157.42 84.15 C163.52 71.84, 173.62 69.36, 183.06 51.79 M157.04 80.1 C163.11 74.35, 171.65 65.21, 182.29 53.2 M163.15 82.88 C168.8 77.3, 178.13 67.02, 182.8 60.13 M163.16 79.33 C166.96 73.92, 173.95 67.4, 181.4 62.71 M165.57 81.2 C171.43 77.26, 173.78 74.05, 176.5 64.51 M168.94 80.63 C170.78 77.24, 177.14 70.13, 179.51 67.83 M172.16 79.79 C174.23 77.38, 177.81 76.68, 180.2 72.96 M173.18 81.49 C175.72 78.37, 178.38 76.72, 179.58 73.8 M179.33 80.13 C179.46 79.88, 179.59 79.86, 179.86 79.45 M179.25 80.35 C179.38 80.14, 179.62 80.1, 179.91 79.6" stroke="#ffd8a8" stroke-width="0.5" fill="none"></path><path d="M1.62 2.81 C55.86 1.26, 103.33 -1.91, 178.18 0.31 M0.13 1.22 C51.02 1.06, 100.11 -0.35, 181.16 -1.18 M182.63 -0.02 C180.07 24.85, 180.38 50.72, 182.67 80.74 M178 -1.24 C180.67 27.3, 181.16 59.42, 179.12 79.64 M177.79 83.39 C124.94 84.5, 58.76 81.37, -0.63 83.37 M181.41 78.67 C123.66 78.27, 67.93 80.11, 0.89 81.1 M-0.56 79.78 C-0.85 60, 3.15 31.89, -0.29 3.59 M1.83 80.98 C0.32 60.92, 3.12 40.47, -0.96 0.27" stroke="#e8590c" stroke-width="1" fill="none"></path></g><g transform="translate(692.6905408586774 138.21428571428578) rotate(0 74.45231628417969 17.5)"><text x="74.45231628417969" y="24.528" font-family="Virgil, Segoe UI Emoji" font-size="28px" fill="#e8590c" text-anchor="middle" style="white-space: pre;" direction="ltr" dominant-baseline="alphabetic">Deployment</text></g><g stroke-linecap="round" transform="translate(891.4285714285711 115.71428571428567) rotate(0 90.00000000000006 40)"><path d="M0 0 C0 0, 0 0, 0 0 M0 0 C0 0, 0 0, 0 0 M-0.48 7.05 C2.22 5.64, 5.05 1.45, 4.91 1.42 M0.19 7.03 C0.43 4.54, 1.94 2.96, 4.39 -0.03 M-2.59 15.18 C5.33 9.39, 9.31 4.63, 10.86 0.08 M-0.48 13.2 C3.56 8.24, 8.42 1.88, 12.08 -0.1 M-1.71 20.9 C2.34 8.45, 14.53 2.6, 19.42 2.85 M0.64 16.69 C5.33 13.67, 8.67 7.76, 13.81 -1.51 M-2.68 25.26 C3.7 16.96, 12.46 8.25, 24.87 -3.67 M-0.9 24.02 C6.82 19.05, 9.18 13.43, 22.06 -0.32 M1.4 27.52 C3.27 23.09, 14.58 12.84, 29.45 0.12 M1.78 30.77 C5.91 22.3, 15.02 12.27, 27.55 1.58 M2.3 35.37 C4.58 27.72, 13.57 17.56, 29.7 0.85 M-1.83 38.63 C7 28.55, 15.52 20.86, 31.01 0.65 M3.54 38.55 C8.21 32.58, 19.29 19.83, 40.77 0.63 M-0.46 40.61 C8.05 30.69, 18.9 20.15, 35.55 0.5 M-0.12 45.57 C16.26 34.7, 31.5 16.55, 43.17 -2.39 M-1.8 50.13 C17.02 31.57, 28.42 13.02, 41.18 0.56 M3.45 56.93 C13.92 38.48, 34.91 17.96, 47.02 2.43 M1.34 54.45 C12.75 41.37, 26.81 26.77, 48.78 0.93 M-3.98 57.67 C18.68 39.46, 30.95 25.03, 54.79 2.77 M-0.98 59.47 C18.15 40.49, 38.6 17.29, 54.61 -0.96 M3.01 70.58 C18 47.45, 30.92 29.17, 61.58 3.82 M-1.96 67.18 C22.3 44.13, 42.18 19.19, 58.32 -1.55 M1.11 72.97 C17.86 58.25, 31.59 39.89, 65.83 0.77 M1.2 72.71 C11.86 57.21, 28.09 42.4, 65.44 1.59 M1.77 81.42 C23.82 54.46, 43.99 31.07, 69.6 3.35 M-1.4 81.3 C21.22 54.62, 42.05 34.04, 67.39 -1.5 M-0.08 82 C29.49 56.63, 45.83 30.01, 73.3 0.29 M4.09 82.78 C26.3 53.47, 47.52 29.74, 75.96 -0.41 M8.98 84.83 C31.69 54.41, 53.6 26.67, 75.95 -0.17 M6.03 82.39 C23.13 64.76, 42.58 42.29, 79.32 0.4 M15.59 80.53 C34.85 53.86, 58.46 30.99, 85.95 2.23 M13.78 81.46 C33.09 61.66, 48.76 42.46, 84.55 -1.69 M17.14 82.76 C42.79 55.64, 56.97 31.42, 89.28 0.29 M18.96 84.23 C44.34 56.52, 67.45 28.04, 89.58 1.34 M21.87 79.66 C48.42 51.92, 79.79 26.29, 92.3 -0.21 M23.34 81.51 C41.09 61.55, 63.27 37.23, 93.75 0.86 M33.13 82.41 C55.21 46.95, 85.01 16.08, 97.97 -3.95 M30.8 83.49 C54.31 54.02, 77.78 24.75, 101.76 0.38 M35.49 82.44 C46.44 68.21, 66.31 48.82, 108.61 2.39 M33.22 81.24 C50.57 64.54, 64.17 45.77, 106.2 0.26 M38.23 80.21 C67.11 50.3, 93.5 26.35, 110.16 2.66 M41.71 83.67 C67.95 47.63, 96.4 16.87, 111.56 -1.52 M46.91 81.93 C74.71 52.25, 102.82 22.37, 114.25 -3.55 M45.94 82.58 C71.96 51.2, 101.41 21.03, 116.04 0.14 M49.45 80.83 C66.53 60.15, 89.1 38.97, 121.74 3.9 M51.95 82.14 C69.59 62.03, 85.64 40.35, 122.83 -1.56 M56.36 81.67 C78.44 56.19, 95.36 38.08, 126.27 -1.6 M54.17 83.62 C79.38 51.14, 107.06 22.11, 127.45 -0.26 M63.54 81.2 C77.56 62.02, 98.99 37.24, 132.33 -0.15 M61.92 82.16 C79.6 62.37, 95.21 42.99, 131.53 0.97 M68.47 84.71 C88.41 51.75, 114.91 24.58, 139.53 3.17 M67.4 83.54 C97.36 51.67, 124.59 17.39, 138.83 -1.54 M73.01 78.5 C90.5 60.94, 110.74 39.94, 145.34 -1.21 M72.16 80.87 C93.88 58.98, 112.42 38.97, 141.75 0.64 M75.63 86.36 C98.87 57.06, 123.3 30.04, 145.31 -2.83 M75.19 83.41 C94.42 56.92, 117.43 33.55, 149.31 0.8 M82.14 86.14 C102.78 57.72, 125.72 36.62, 151.89 1.28 M83.31 81.27 C99.35 60.6, 116.02 41.61, 153.69 1.88 M89.97 82.17 C115.73 51.42, 145.37 21.91, 162.61 -0.9 M87.27 82.18 C108.98 60.13, 126.18 37.76, 158.18 1.14 M90.92 85.81 C124.59 53.84, 144.27 17.48, 162.87 0.11 M92.15 80.23 C118.54 55.18, 141.36 27.29, 163.71 -0.99 M95.39 83.94 C114.54 60.84, 133.14 39.24, 166.18 3.86 M97.47 80.66 C123 51.64, 149.12 23.52, 168.83 -0.26 M103.13 83.43 C131.63 52.73, 164.68 14.1, 176.92 -3.65 M103.58 80.53 C130.93 52.44, 158.85 19.33, 176.25 0.23 M111.52 79.71 C125.83 66.2, 136.98 42, 182.56 -1.36 M107.75 81.55 C134.15 55.7, 160.63 26.92, 180.79 -1.28 M110.27 85.18 C134.31 57.09, 154.58 34.92, 182.52 6.08 M114.62 82.78 C138.42 53.33, 161.94 27, 178.01 6.39 M121.74 81.79 C145.71 56.25, 163.11 34.48, 183.49 14.94 M120.21 81.41 C133.1 66.17, 148.39 52.73, 179.21 14.18 M123.61 81.49 C139.71 67.58, 152.49 57.38, 179.12 21.34 M126.43 81.5 C139.28 63.39, 154.99 48, 179 19.94 M129.2 78.74 C150.12 59.6, 168.91 36.59, 181.48 20.36 M129.06 82.7 C140.36 67.49, 152.05 58.27, 178.37 23.9 M134.16 79.02 C147.71 62.78, 161.64 49.57, 181.21 30.65 M136.27 81.05 C150.11 67.91, 161.12 54.68, 180.67 29.41 M140.77 83.34 C150.28 64.19, 165.07 45.58, 181.65 35.59 M140.62 81.72 C151.63 71.03, 160.11 62.04, 181.5 36.41 M144.67 84.7 C152.92 67.22, 166.52 58.19, 178.4 44.07 M145.55 83.71 C152.54 71.54, 162.43 63.56, 179.97 42.48 M151.1 84.65 C160.5 75.53, 164.26 70.81, 178.82 47.27 M149.38 80.67 C162.2 71.97, 170.64 59.55, 177.96 47.83 M153.01 82.48 C164.9 71.9, 165.89 70.81, 180.1 55.88 M155.15 82.36 C163.1 74.9, 166.06 70.83, 181.99 52.74 M158.58 79.98 C167.8 76.57, 170.45 70.92, 177.58 60.61 M161.91 83.63 C165.52 77.96, 172.58 71.06, 179.22 62.41 M162.75 86.25 C173.34 80.44, 174.38 75.29, 182.78 69.41 M168.01 81.48 C171.01 79.45, 172.62 73.82, 179.28 68.37 M172.93 82.61 C175.93 81.02, 178.38 79.2, 179.46 72.63 M172.69 81.2 C176.27 78.97, 178.18 75.38, 181.02 73.39 M177.7 82.16 C177.71 81.25, 178.64 80.72, 180.08 79.24 M177.3 82.41 C178.53 81.86, 179.42 80.96, 179.65 79.89" stroke="#99e9f2" stroke-width="0.5" fill="none"></path><path d="M0.18 -3.13 C50.87 0.17, 101.98 1.76, 183.58 -1.77 M-0.89 -1.21 C60.62 -1.56, 122.74 0.02, 180.97 -0.31 M180.66 -3.78 C184.55 19.31, 178.46 35.98, 182.02 77.23 M180.56 1.45 C179.4 17.25, 177.56 36.12, 179.2 78.69 M180.06 82.01 C135.44 87.25, 89.23 82, 2.41 81.99 M180.5 79.23 C115.06 82.16, 54.85 82.59, 0.16 78.85 M-2.3 77.21 C0.81 59.77, 0.83 47.09, -1.27 -2.92 M-1.8 79.7 C2.06 49.62, -0.87 19.53, -0.84 -0.46" stroke="#0c8599" stroke-width="1" fill="none"></path></g><g transform="translate(915.0402962820867 138.21428571428567) rotate(0 66.38827514648443 17.5)"><text x="66.38827514648438" y="24.528" font-family="Virgil, Segoe UI Emoji" font-size="28px" fill="#0c8599" text-anchor="middle" style="white-space: pre;" direction="ltr" dominant-baseline="alphabetic">Monitoring</text></g><g stroke-linecap="round" transform="translate(1238.5714285714284 10.000000000000057) rotate(0 137.857142857143 124.99999999999997)"><path d="M34.32 39.11 C34.32 39.11, 34.32 39.11, 34.32 39.11 M34.32 39.11 C34.32 39.11, 34.32 39.11, 34.32 39.11 M8.92 74.78 C31.58 54.61, 50.31 33.26, 57.1 27.54 M11.94 77.87 C29.34 57.28, 46.42 36.7, 56.69 22.1 M19.2 80.3 C33.65 60.2, 49.2 45.47, 77.13 20.22 M17.03 81.13 C29.86 66.51, 45.11 52.15, 76.58 15.96 M16.76 101.39 C28.99 79.32, 46.38 59.02, 86.24 12.09 M13.54 99.17 C33.33 78.26, 51.47 57.36, 87.93 11.51 M8.71 118.21 C34.28 92.08, 57.96 59.49, 102.77 9.2 M5.99 119.85 C28.67 93.1, 47 68.92, 102.14 10.48 M2.99 128.13 C44.99 87.16, 80.96 51.31, 116.46 8.88 M6.83 131.78 C36.75 97.94, 64.28 63.14, 115.4 7.14 M7.81 141.14 C37.57 106.73, 73.9 69.92, 130.27 5.92 M8.16 143.47 C47.03 99.12, 86.77 51.63, 126.68 6.26 M8.84 158.76 C39.66 119.1, 77.8 75.22, 141.07 2.36 M7.27 158.06 C32.84 121.87, 61.42 91.99, 139 4.41 M11.12 165.48 C43.49 128.92, 77.72 87.35, 148.16 1.47 M8.37 164.26 C40.24 128.65, 70.38 96.3, 150.56 4.4 M12.79 171.52 C63.65 119.38, 111.42 61.27, 165.53 -0.81 M12.48 174.4 C53.99 125.89, 92.85 80.45, 163.71 1.81 M16.15 182.92 C48.31 146.22, 83.96 108.9, 167.65 6.47 M18.1 181.72 C61.33 126.4, 111.24 72.35, 171.09 3.94 M20.22 190.69 C59.12 151.28, 95.71 104.17, 178.81 5.64 M21.27 186.82 C60.62 143.37, 97.76 102.71, 179.73 6.09 M26.21 192.42 C79.07 131.06, 128.81 71.33, 189.68 8.4 M27.63 194.6 C66.61 147.18, 111.48 97.51, 186.26 8.81 M30.99 198.54 C65.76 164.78, 96.22 127.28, 193.65 12.31 M32.64 200.86 C84.26 144.73, 133.08 86.18, 195.72 11.53 M35.76 203.82 C72.91 163.22, 110.35 120.62, 206.7 14.01 M37.25 206.78 C93.77 144.18, 150.19 78.5, 202.7 15.08 M42.74 210.31 C112.07 138.25, 173.31 58.84, 210.76 20 M41.48 211.78 C93.19 156.59, 145.3 98.04, 210 19.42 M50.1 219.44 C87.52 175.27, 130.8 122.13, 218.9 26.34 M46.06 218.51 C110.35 142.92, 176.8 69.6, 215.98 22.63 M54.07 223.59 C89.87 184.14, 131.27 137.49, 224.11 32.24 M51.39 224.16 C92.53 178.86, 131.78 133.41, 221.78 30.91 M59.26 227.52 C130.53 149.53, 195.09 71.44, 227.25 36.89 M61.74 228.9 C105.64 176.61, 149.95 122.71, 230.48 32.81 M69.03 233.13 C103.29 194.53, 136.86 152.34, 233.78 37.01 M69.39 230.08 C121.87 172.56, 174.8 112.4, 234.37 38.34 M77.93 233.62 C141.42 161.51, 211.81 80.7, 241.15 45.41 M76.11 235.48 C121.77 186.2, 165.69 134.82, 241.09 45.89 M82.64 240.82 C144.56 169.39, 199.22 103.78, 243.79 47.52 M85.24 238.8 C148.18 165.83, 209.08 97.38, 246.78 50.02 M92.58 243.02 C128.74 194.35, 172.17 148.38, 250.92 54.61 M92.74 242.08 C134.36 193.58, 174.58 143.76, 253.89 55.76 M99.98 247.71 C157.59 178.81, 222.42 107.61, 259.93 65.9 M96.57 246.18 C133.45 204.63, 173.54 158.8, 257.63 63.21 M110 250.23 C154.62 201.15, 193.33 150.01, 261.34 68.91 M107.67 248.66 C157.78 187.24, 209.74 127.91, 261.48 67.85 M113.74 249.66 C162.05 195.59, 208.78 145.7, 270.37 75.15 M116.47 249.63 C172.15 185.78, 224.87 125.02, 269 76.25 M122.46 253.28 C163.31 205.51, 203.91 161.73, 268.83 84.96 M127.05 252.57 C180.53 189.03, 235.01 124.18, 269.19 83.55 M132.22 251.82 C186.38 193.02, 233.14 136.11, 275.25 90.03 M135.25 252.92 C187.64 193.33, 242.65 133.45, 273.23 93.26 M141.02 256.39 C183.76 207.32, 225.74 159.74, 277.62 101.48 M143.26 254.11 C184.79 208.53, 222.16 161.79, 274.69 103.66 M152.27 252.78 C199.87 198.41, 247.53 140.14, 277.53 111.67 M156.71 253.38 C195.45 204.17, 238.67 157.38, 276.92 114.84 M169.59 252.81 C206.56 201.95, 246.22 155.66, 275.36 131.09 M166.13 253.6 C207.27 204.5, 250.4 156.32, 274.49 128.53 M175.73 250.89 C199.57 218.81, 226.06 189.12, 272.88 139.29 M179.46 251.97 C208.68 215.09, 236.09 182.17, 274.17 138.82 M188.73 248.52 C222.44 215.38, 251.84 179.5, 270.6 151.66 M189.48 249.9 C222.77 217.81, 251.68 182.34, 273.86 153.94 M207.32 235.69 C230.6 223.2, 242.17 200.19, 261.22 187.41 M211.78 237.74 C227.49 219.84, 243.5 202.52, 256.05 184.2" stroke="#69db7c" stroke-width="1" fill="none"></path><path d="M34.37 39.05 C42.52 28.25, 59.15 20.65, 72.28 14.73 C85.41 8.81, 98.43 5.78, 113.16 3.52 C127.9 1.26, 145.84 -0.39, 160.68 1.16 C175.52 2.7, 189.39 6.18, 202.21 12.78 C215.03 19.38, 227.31 30.79, 237.61 40.74 C247.91 50.68, 257.53 60.49, 264 72.45 C270.48 84.4, 275.04 98.77, 276.44 112.47 C277.85 126.17, 276.45 141, 272.43 154.64 C268.42 168.28, 260.48 182.65, 252.34 194.3 C244.21 205.94, 234.88 216.18, 223.61 224.51 C212.35 232.84, 199.15 239.93, 184.78 244.28 C170.4 248.63, 152.55 250.91, 137.37 250.63 C122.19 250.36, 107.83 246.87, 93.7 242.62 C79.57 238.37, 64.36 233.47, 52.59 225.14 C40.82 216.8, 31.14 204.05, 23.08 192.62 C15.02 181.18, 7.91 169.16, 4.23 156.52 C0.55 143.88, -0.34 130.02, 0.99 116.77 C2.32 103.52, 4.95 91.3, 12.23 77.04 C19.51 62.78, 36.86 39.8, 44.67 31.22 C52.47 22.64, 57.08 23.53, 59.05 25.56 M102.4 7.91 C115.57 2.3, 132.76 2.18, 147.5 2.23 C162.24 2.28, 177.18 3.15, 190.86 8.19 C204.55 13.24, 218.57 23.95, 229.63 32.51 C240.69 41.07, 249.59 48.31, 257.23 59.53 C264.87 70.75, 272.26 85.92, 275.48 99.83 C278.69 113.75, 278.99 129.24, 276.53 143.02 C274.07 156.8, 267.44 170.27, 260.71 182.49 C253.98 194.71, 246.22 207.4, 236.14 216.35 C226.06 225.3, 214.42 230.26, 200.22 236.19 C186.01 242.12, 165.96 250.56, 150.92 251.92 C135.89 253.28, 123.82 247.72, 110.02 244.37 C96.22 241.01, 81.16 238.48, 68.15 231.81 C55.13 225.13, 41.43 214.29, 31.93 204.31 C22.42 194.34, 16.46 184.53, 11.1 171.95 C5.73 159.38, 0.64 142.65, -0.28 128.85 C-1.21 115.05, 1.24 102.14, 5.55 89.14 C9.85 76.15, 16.87 62.41, 25.54 50.87 C34.2 39.33, 45.1 27.73, 57.55 19.89 C69.99 12.05, 92.7 5.92, 100.21 3.81 C107.71 1.69, 101.57 5.18, 102.59 7.19" stroke="#1971c2" stroke-width="2" fill="none"></path></g><g transform="translate(1287.8708174320172 90.11165235168164) rotate(0 88.57803344726562 45)"><text x="88.57803344726562" y="31.536" font-family="Virgil, Segoe UI Emoji" font-size="36px" fill="#1971c2" text-anchor="middle" style="white-space: pre;" direction="ltr" dominant-baseline="alphabetic">Live in </text><text x="88.57803344726562" y="76.536" font-family="Virgil, Segoe UI Emoji" font-size="36px" fill="#1971c2" text-anchor="middle" style="white-space: pre;" direction="ltr" dominant-baseline="alphabetic">production</text></g><g stroke-linecap="round"><g transform="translate(1377.1428571428569 260) rotate(0 -620 96.4285714285715)"><path d="M-1.15 1.42 C-33.73 27.37, -92.13 111.87, -196.68 154.01 C-301.22 196.16, -479.59 256.27, -628.43 254.3 C-777.27 252.33, -987.41 194.84, -1089.72 142.18 C-1192.04 89.51, -1217.49 -27.89, -1242.3 -61.68 M3.42 -0.28 C-28.2 26.15, -85.85 115.08, -191.58 156.72 C-297.3 198.36, -481.1 252.78, -630.93 249.55 C-780.76 246.32, -989.3 189.19, -1090.54 137.32 C-1191.78 85.45, -1212.96 -28.22, -1238.38 -61.67" stroke="#f08c00" stroke-width="2" fill="none"></path></g><g transform="translate(1377.1428571428569 260) rotate(0 -620 96.4285714285715)"><path d="M-1219.2 -46.2 C-1225.99 -49.89, -1228.4 -55.22, -1236.83 -63.31 M-1221.11 -45.05 C-1224.15 -48.89, -1229.15 -52.79, -1238.28 -62.61" stroke="#f08c00" stroke-width="2" fill="none"></path></g><g transform="translate(1377.1428571428569 260) rotate(0 -620 96.4285714285715)"><path d="M-1234.49 -38.54 C-1237.31 -44.13, -1235.8 -51.43, -1236.83 -63.31 M-1236.4 -37.39 C-1235.81 -43.04, -1237.14 -48.77, -1238.28 -62.61" stroke="#f08c00" stroke-width="2" fill="none"></path></g></g><mask></mask><g stroke-linecap="round"><g transform="translate(1375.15731403056 263.66604592526517) rotate(0 -511.42857142857133 65.71428571428584)"><path d="M-1.93 -0.34 C-39.14 21.81, -136.96 102.21, -225.34 134.16 C-313.72 166.1, -416.73 188.56, -532.22 191.32 C-647.71 194.08, -836.09 192.32, -918.28 150.73 C-1000.47 109.14, -1008.32 -23.4, -1025.35 -58.23 M2.21 -2.99 C-33.97 18.2, -130.97 98.14, -220.29 129.85 C-309.6 161.56, -417.21 184.61, -533.68 187.28 C-650.15 189.95, -837.78 186.73, -919.09 145.87 C-1000.4 105, -1003.97 -23.37, -1021.54 -57.9" stroke="#2f9e44" stroke-width="2" fill="none"></path></g><g transform="translate(1375.15731403056 263.66604592526517) rotate(0 -511.42857142857133 65.71428571428584)"><path d="M-1007.18 -39.38 C-1009.41 -41.84, -1011.67 -48.72, -1020 -59.69 M-1006.85 -38.59 C-1010.91 -42.75, -1015.47 -48.76, -1021.41 -56.92" stroke="#2f9e44" stroke-width="2" fill="none"></path></g><g transform="translate(1375.15731403056 263.66604592526517) rotate(0 -511.42857142857133 65.71428571428584)"><path d="M-1023.64 -34.75 C-1022.17 -38.14, -1020.71 -46.06, -1020 -59.69 M-1023.31 -33.96 C-1023.11 -39.25, -1023.38 -46.47, -1021.41 -56.92" stroke="#2f9e44" stroke-width="2" fill="none"></path></g></g><mask></mask><g stroke-linecap="round"><g transform="translate(1377.2834028207722 260.17670339170775) rotate(0 -415.7142857142856 42.857142857143)"><path d="M-2.01 0.02 C-40.17 15.75, -143.42 72.16, -227.77 96.84 C-312.13 121.51, -422.35 145.83, -508.12 148.06 C-593.9 150.29, -688.1 145.3, -742.43 110.2 C-796.76 75.1, -819.03 -33.56, -834.11 -62.52 M2.1 -2.43 C-36.47 14.96, -144.28 76.06, -229.58 100.3 C-314.87 124.55, -424.09 141.19, -509.69 143.03 C-595.28 144.87, -689.72 145.57, -743.17 111.37 C-796.62 77.16, -815.87 -33.88, -830.39 -62.19" stroke="#6741d9" stroke-width="2" fill="none"></path></g><g transform="translate(1377.2834028207722 260.17670339170775) rotate(0 -415.7142857142856 42.857142857143)"><path d="M-814.58 -42.24 C-820.4 -49.25, -824.94 -57.94, -832.29 -64.1 M-814.68 -42.06 C-818.82 -47.59, -822.04 -53.31, -829.93 -62.66" stroke="#6741d9" stroke-width="2" fill="none"></path></g><g transform="translate(1377.2834028207722 260.17670339170775) rotate(0 -415.7142857142856 42.857142857143)"><path d="M-830.73 -36.62 C-831.07 -45.44, -830.07 -56.06, -832.29 -64.1 M-830.83 -36.43 C-830.73 -43.31, -829.73 -50.5, -829.93 -62.66" stroke="#6741d9" stroke-width="2" fill="none"></path></g></g><mask></mask><g stroke-linecap="round"><g transform="translate(1381.7192951145657 262.7174054669748) rotate(0 -309.28571428571416 11.428571428571615)"><path d="M-0.44 -1.55 C-42.37 10.59, -178.22 57.07, -250.18 71.24 C-322.15 85.41, -380.7 86.82, -432.22 83.5 C-483.74 80.17, -528.53 75.37, -559.31 51.31 C-590.1 27.25, -606.87 -41.69, -616.93 -60.86 M-4.12 3.78 C-45.25 15.35, -173.06 53.95, -244.66 67.68 C-316.25 81.41, -381.39 88.48, -433.68 86.18 C-485.96 83.87, -527.38 78.15, -558.36 53.85 C-589.33 29.54, -609.75 -40.86, -619.52 -59.63" stroke="#e03131" stroke-width="2" fill="none"></path></g><g transform="translate(1381.7192951145657 262.7174054669748) rotate(0 -309.28571428571416 11.428571428571615)"><path d="M-603.74 -42.34 C-606.52 -47.21, -614.9 -53.62, -619.6 -58.46 M-603.61 -41.51 C-607.9 -46.8, -613.78 -53.15, -619.34 -59.03" stroke="#e03131" stroke-width="2" fill="none"></path></g><g transform="translate(1381.7192951145657 262.7174054669748) rotate(0 -309.28571428571416 11.428571428571615)"><path d="M-619.54 -35.81 C-616.76 -42.93, -619.61 -51.63, -619.6 -58.46 M-619.41 -34.98 C-618.61 -42.23, -619.44 -50.67, -619.34 -59.03" stroke="#e03131" stroke-width="2" fill="none"></path></g></g><mask></mask><g stroke-linecap="round"><g transform="translate(1381.4052073163111 261.413692539963) rotate(0 -205.7142857142856 -10.714285714285495)"><path d="M1.47 -1.59 C-24.89 4.36, -112.31 29.05, -157.99 35.45 C-203.66 41.86, -238.29 41.72, -272.6 36.84 C-306.91 31.96, -340.83 22.66, -363.83 6.18 C-386.82 -10.3, -402.48 -51.4, -410.57 -62.06 M-1.18 3.72 C-27.74 8.84, -113.49 25.2, -159.13 31.08 C-204.78 36.96, -241.2 42.81, -275.04 39.01 C-308.89 35.21, -339.13 25.14, -362.22 8.27 C-385.31 -8.61, -405.69 -51.04, -413.58 -62.26" stroke="#1971c2" stroke-width="2" fill="none"></path></g><g transform="translate(1381.4052073163111 261.413692539963) rotate(0 -205.7142857142856 -10.714285714285495)"><path d="M-395.28 -45.09 C-399.24 -52.07, -407.24 -54.68, -414.27 -61.65 M-393.25 -47.26 C-399.16 -49.9, -403.39 -52.86, -414.26 -61.58" stroke="#1971c2" stroke-width="2" fill="none"></path></g><g transform="translate(1381.4052073163111 261.413692539963) rotate(0 -205.7142857142856 -10.714285714285495)"><path d="M-409.94 -36.28 C-409.41 -46.02, -412.94 -51.33, -414.27 -61.65 M-407.91 -38.45 C-410.47 -43.2, -411.38 -48.15, -414.26 -61.58" stroke="#1971c2" stroke-width="2" fill="none"></path></g></g><mask></mask><g transform="translate(361.66215006510424 534.0997212511401) rotate(0 367.53320312500017 56.607955008653505)"><text x="367.5332031250001" y="39.67085487006439" font-family="Virgil, Segoe UI Emoji" font-size="45.28636400692282px" fill="#1971c2" text-anchor="middle" style="white-space: pre;" direction="ltr" dominant-baseline="alphabetic">Feedback from live to all stages</text><text x="367.5332031250001" y="96.27880987871791" font-family="Virgil, Segoe UI Emoji" font-size="45.28636400692282px" fill="#1971c2" text-anchor="middle" style="white-space: pre;" direction="ltr" dominant-baseline="alphabetic">owned by the same team</text></g></svg>