<?xml version="1.0" encoding="UTF-8" standalone="no"?>
<!-- Created with Inkscape (http://www.inkscape.org/) -->

<svg
   version="1.0"
   id="svg2"
   sodipodi:version="0.32"
   inkscape:version="1.2.1 (9c6d41e410, 2022-07-14, custom)"
   sodipodi:docname="hexagonal-python-2.svg"
   width="201.4913pt"
   height="174.49658pt"
   inkscape:export-filename="python-logo-inkscape2.svg"
   inkscape:export-xdpi="120"
   inkscape:export-ydpi="120"
   xmlns:inkscape="http://www.inkscape.org/namespaces/inkscape"
   xmlns:sodipodi="http://sodipodi.sourceforge.net/DTD/sodipodi-0.dtd"
   xmlns:xlink="http://www.w3.org/1999/xlink"
   xmlns="http://www.w3.org/2000/svg"
   xmlns:svg="http://www.w3.org/2000/svg"
   xmlns:rdf="http://www.w3.org/1999/02/22-rdf-syntax-ns#"
   xmlns:cc="http://creativecommons.org/ns#"
   xmlns:dc="http://purl.org/dc/elements/1.1/">
  <metadata
     id="metadata371">
    <rdf:RDF>
      <cc:Work
         rdf:about="">
        <dc:format>image/svg+xml</dc:format>
        <dc:type
           rdf:resource="http://purl.org/dc/dcmitype/StillImage" />
      </cc:Work>
    </rdf:RDF>
  </metadata>
  <sodipodi:namedview
     inkscape:window-height="1131"
     inkscape:window-width="1920"
     inkscape:pageshadow="2"
     inkscape:pageopacity="0.0"
     guidetolerance="10.0"
     gridtolerance="10.0"
     objecttolerance="10.0"
     borderopacity="1.0"
     bordercolor="#666666"
     pagecolor="#ffffff"
     id="base"
     inkscape:zoom="1.7726687"
     inkscape:cx="74.74606"
     inkscape:cy="159.6463"
     inkscape:window-x="0"
     inkscape:window-y="0"
     inkscape:current-layer="svg2"
     width="210mm"
     height="40mm"
     units="mm"
     inkscape:showpageshadow="2"
     inkscape:pagecheckerboard="0"
     inkscape:deskcolor="#d1d1d1"
     inkscape:document-units="pt"
     showgrid="true"
     inkscape:window-maximized="1">
    <inkscape:grid
       type="xygrid"
       id="grid1913"
       spacingx="10"
       spacingy="10"
       originx="-0.79737342"
       originy="-0.48147021" />
  </sodipodi:namedview>
  <defs
     id="defs4">
    <linearGradient
       inkscape:collect="always"
       id="linearGradient1053">
      <stop
         style="stop-color:#3773a3;stop-opacity:1;"
         offset="0"
         id="stop1049" />
      <stop
         style="stop-color:#ffe263;stop-opacity:1;"
         offset="1"
         id="stop1051" />
    </linearGradient>
    <linearGradient
       inkscape:collect="always"
       id="linearGradient1037">
      <stop
         style="stop-color:#ffe100;stop-opacity:1;"
         offset="0"
         id="stop1035" />
      <stop
         style="stop-color:#4584b6;stop-opacity:1;"
         offset="1"
         id="stop1033" />
    </linearGradient>
    <linearGradient
       id="linearGradient2795">
      <stop
         style="stop-color:#b8b8b8;stop-opacity:0.49803922;"
         offset="0"
         id="stop2797" />
      <stop
         style="stop-color:#7f7f7f;stop-opacity:0;"
         offset="1"
         id="stop2799" />
    </linearGradient>
    <linearGradient
       id="linearGradient4671">
      <stop
         style="stop-color:#ffd43b;stop-opacity:1;"
         offset="0"
         id="stop4673" />
      <stop
         style="stop-color:#ffe873;stop-opacity:1"
         offset="1"
         id="stop4675" />
    </linearGradient>
    <linearGradient
       id="linearGradient4689">
      <stop
         style="stop-color:#5a9fd4;stop-opacity:1;"
         offset="0"
         id="stop4691" />
      <stop
         style="stop-color:#306998;stop-opacity:1;"
         offset="1"
         id="stop4693" />
    </linearGradient>
    <linearGradient
       inkscape:collect="always"
       xlink:href="#linearGradient4671"
       id="linearGradient1475"
       gradientUnits="userSpaceOnUse"
       gradientTransform="matrix(0.562541,0,0,0.567972,59.424875,52.01235)"
       x1="150.96111"
       y1="192.35176"
       x2="112.03144"
       y2="137.27299" />
    <linearGradient
       inkscape:collect="always"
       xlink:href="#linearGradient4689"
       id="linearGradient1478"
       gradientUnits="userSpaceOnUse"
       gradientTransform="matrix(0.562541,0,0,0.567972,59.424875,52.01235)"
       x1="26.648937"
       y1="20.603781"
       x2="135.66525"
       y2="114.39767" />
    <radialGradient
       inkscape:collect="always"
       xlink:href="#linearGradient2795"
       id="radialGradient1480"
       gradientUnits="userSpaceOnUse"
       gradientTransform="matrix(1.7490565e-8,-0.23994696,1.054668,3.7915457e-7,-9.2848057,206.17674)"
       cx="61.518883"
       cy="132.28575"
       fx="61.518883"
       fy="132.28575"
       r="29.036913" />
    <linearGradient
       inkscape:collect="always"
       xlink:href="#linearGradient1037"
       id="linearGradient1039"
       x1="-39.436251"
       y1="73.915588"
       x2="229.21881"
       y2="73.915588"
       gradientUnits="userSpaceOnUse" />
    <linearGradient
       inkscape:collect="always"
       xlink:href="#linearGradient1053"
       id="linearGradient1055"
       x1="-39.436251"
       y1="73.915588"
       x2="229.21881"
       y2="73.915588"
       gradientUnits="userSpaceOnUse" />
  </defs>
  <path
     sodipodi:type="star"
     style="opacity:1;fill:url(#linearGradient1039);fill-opacity:1;stroke:url(#linearGradient1055);stroke-width:1.13333;stroke-miterlimit:4;stroke-dasharray:none;stroke-opacity:1"
     id="path1183"
     inkscape:flatsided="true"
     sodipodi:sides="6"
     sodipodi:cx="94.891281"
     sodipodi:cy="73.915588"
     sodipodi:r1="133.6729"
     sodipodi:r2="115.76412"
     sodipodi:arg1="1.0471976"
     sodipodi:arg2="1.5707963"
     inkscape:rounded="0"
     inkscape:randomized="0"
     d="m 161.72772,189.67972 -133.672893,-1e-5 -66.836443,-115.764128 66.836454,-115.764122 133.672902,7e-6 66.83644,115.764128 z"
     transform="rotate(60,77.876532,129.27612)"
     inkscape:label="path1183" />
  <path
     id="text470"
     style="font-style:normal;font-variant:normal;font-weight:normal;font-stretch:normal;font-size:40px;line-height:1.25;font-family:'Ubuntu Mono';-inkscape-font-specification:'Ubuntu Mono';letter-spacing:0px;word-spacing:0px;fill:#000000;fill-opacity:1;stroke:none"
     d="M 152.92188 169.05078 C 153.09498 168.88792 153.27382 168.72909 153.4375 168.55859 C 153.723 168.26121 153.99372 167.95217 154.24805 167.63086 C 154.50238 167.30955 154.74099 166.97503 154.96094 166.62891 C 155.18089 166.28278 155.38208 165.92457 155.56445 165.55273 C 155.74682 165.1809 155.9092 164.79687 156.05078 164.39844 C 156.19236 164 156.31256 163.58804 156.41016 163.16211 C 156.50775 162.73618 156.58241 162.29611 156.63281 161.8418 C 156.68321 161.38748 156.70898 160.91718 156.70898 160.43359 L 156.70898 150.21484 L 153.78516 150.21484 L 153.78516 157.10547 C 153.78516 163.04096 153.57133 166.50893 152.92188 169.05078 z " />
  <path
     id="path1449"
     style="font-style:normal;font-variant:normal;font-weight:normal;font-stretch:normal;font-size:40px;line-height:1.25;font-family:'Ubuntu Mono';-inkscape-font-specification:'Ubuntu Mono';letter-spacing:0px;word-spacing:0px;fill:#000000;fill-opacity:1;stroke:none"
     d="M 109.43164 123.41797 C 109.30797 123.49826 109.1776 123.56813 109.05664 123.65234 C 108.6997 123.90085 108.35524 124.16624 108.02344 124.44727 C 107.69163 124.72829 107.37268 125.02495 107.06836 125.33594 C 106.76404 125.64693 106.47371 125.97213 106.19922 126.31055 C 105.92472 126.64896 105.66615 126.99998 105.42383 127.36328 C 105.18151 127.72658 104.95585 128.10265 104.74805 128.48828 C 104.54025 128.87392 104.35062 129.27035 104.17969 129.67578 C 104.00876 130.08121 103.85633 130.49529 103.72461 130.91797 C 103.59289 131.34064 103.48078 131.7716 103.39062 132.20898 C 103.30047 132.64636 103.2318 133.08952 103.18555 133.53906 C 103.13929 133.9886 103.11523 134.44319 103.11523 134.90234 L 103.11523 160.43359 C 103.11523 160.88774 103.14144 161.33075 103.18945 161.76172 C 103.23746 162.19268 103.30708 162.61331 103.40039 163.02148 C 103.4937 163.42966 103.6102 163.82516 103.74609 164.21094 C 103.88199 164.59671 104.03907 164.97217 104.21484 165.33594 C 104.39062 165.69971 104.58393 166.05237 104.79688 166.39453 C 105.00982 166.73669 105.24087 167.06773 105.48828 167.38867 C 105.73569 167.70961 106.00014 168.0202 106.2793 168.32031 C 106.55846 168.62042 106.85391 168.90978 107.16211 169.18945 C 107.47031 169.46912 107.79242 169.73842 108.12695 169.99805 C 108.46148 170.25767 108.80786 170.50807 109.16602 170.74805 C 109.52417 170.98802 109.89242 171.21874 110.27148 171.43945 C 110.60984 171.63646 110.95952 171.82195 111.3125 172.00391 C 109.86368 169.13042 109.43164 165.65733 109.43164 157.10547 L 109.43164 123.41797 z " />
  <path
     style="display:inline;fill:url(#linearGradient1475);fill-opacity:1"
     d="m 160.05352,92.371889 v 11.906251 c 0,9.23076 -7.82589,17 -16.75,17 h -26.78125 c -7.33583,0 -13.40624,6.27848 -13.40625,13.625 v 25.53125 c 0,7.26634 6.31859,11.54032 13.40625,13.625 8.48734,2.49561 16.62624,2.94663 26.78125,0 6.75016,-1.95439 13.40626,-5.88761 13.40625,-13.625 v -10.21875 h -26.78125 v -3.40625 h 26.78125 13.40626 c 7.79246,0 10.69625,-5.43541 13.40624,-13.59375 2.79933,-8.39889 2.68022,-16.47578 0,-27.25 -1.92578,-7.757439 -5.60387,-13.593751 -13.40624,-13.593751 z m -15.0625,64.656251 c 2.77948,1e-5 5.03125,2.27742 5.03125,5.09375 0,2.82635 -2.25177,5.125 -5.03125,5.125 -2.76955,0 -5.03125,-2.29865 -5.03125,-5.125 1e-5,-2.81633 2.2617,-5.09375 5.03125,-5.09375 z"
     id="path1438" />
  <path
     id="path1442"
     style="font-style:normal;font-variant:normal;font-weight:normal;font-stretch:normal;font-size:40px;line-height:1.25;font-family:'Ubuntu Mono';-inkscape-font-specification:'Ubuntu Mono';letter-spacing:0px;word-spacing:0px;fill:#000000;fill-opacity:1;stroke:none"
     d="M 173.36914 92.773438 C 173.19631 92.729643 173.03154 92.675224 172.85352 92.638672 C 172.42799 92.551303 171.98726 92.484093 171.53125 92.439453 C 171.07524 92.394813 170.60288 92.371094 170.11523 92.371094 L 160.05273 92.371094 L 160.05273 104.27734 C 160.05273 104.85427 160.02239 105.42627 159.96289 105.99023 C 159.90339 106.5542 159.81493 107.11028 159.69922 107.6582 C 159.58351 108.20613 159.44207 108.74658 159.27344 109.27539 C 159.1048 109.8042 158.90969 110.32152 158.69141 110.82812 C 158.47313 111.33473 158.23143 111.82921 157.9668 112.31055 C 157.70216 112.79188 157.41513 113.25992 157.10742 113.71289 C 156.79971 114.16586 156.47054 114.60385 156.12305 115.02539 C 155.77555 115.44693 155.40939 115.85322 155.02539 116.24023 C 154.64139 116.62725 154.23948 116.99628 153.82227 117.3457 C 153.81047 117.35558 153.79697 117.3632 153.78516 117.37305 L 153.78516 146.80859 L 156.70898 146.80859 L 170.11523 146.80859 C 170.60226 146.80859 171.0715 146.7879 171.52148 146.74609 C 171.97147 146.70429 172.40313 146.64283 172.81836 146.56055 C 173.00963 146.52264 173.18489 146.46621 173.36914 146.41992 L 173.36914 92.773438 z " />
  <path
     id="path1444"
     style="font-style:normal;font-variant:normal;font-weight:normal;font-stretch:normal;font-size:40px;line-height:1.25;font-family:'Ubuntu Mono';-inkscape-font-specification:'Ubuntu Mono';letter-spacing:0px;word-spacing:0px;fill:#000000;fill-opacity:1;stroke:none"
     d="M 173.36914 146.41992 C 173.18489 146.46621 173.00963 146.52264 172.81836 146.56055 C 172.40313 146.64283 171.97147 146.70429 171.52148 146.74609 C 171.0715 146.7879 170.60226 146.80859 170.11523 146.80859 L 156.70898 146.80859 L 153.78516 146.80859 L 153.78516 150.21484 L 156.70898 150.21484 L 156.70898 160.43359 C 156.70898 160.91718 156.68321 161.38748 156.63281 161.8418 C 156.58241 162.29611 156.50775 162.73618 156.41016 163.16211 C 156.31256 163.58804 156.19236 164 156.05078 164.39844 C 155.9092 164.79687 155.74682 165.1809 155.56445 165.55273 C 155.38208 165.92457 155.18089 166.28278 154.96094 166.62891 C 154.74099 166.97503 154.50238 167.30955 154.24805 167.63086 C 153.99372 167.95217 153.723 168.26121 153.4375 168.55859 C 153.27382 168.72909 153.09498 168.88792 152.92188 169.05078 C 152.47889 170.78453 151.83856 172.10028 150.9043 173.42383 C 148.4083 177.07181 143.03267 179.37695 136.88867 179.37695 L 136.3125 179.37695 L 136.3125 184.36914 L 190.83984 184.36914 L 190.83984 179.37695 L 190.26367 179.37695 C 183.92769 179.37695 178.74464 177.07181 176.05664 173.42383 C 173.94464 170.15983 173.36914 167.08945 173.36914 157.10547 L 173.36914 146.41992 z " />
  <path
     id="path1440"
     style="font-style:normal;font-variant:normal;font-weight:normal;font-stretch:normal;font-size:40px;line-height:1.25;font-family:'Ubuntu Mono';-inkscape-font-specification:'Ubuntu Mono';letter-spacing:0px;word-spacing:0px;fill:#000000;fill-opacity:1;stroke:none"
     d="M 136.3125 55.152344 L 136.3125 60.144531 L 136.88867 60.144531 C 143.03267 60.144531 148.4083 62.447711 150.9043 66.095703 C 151.6068 67.149454 152.13301 68.171586 152.54688 69.335938 C 152.60789 69.394526 152.67444 69.448308 152.73438 69.507812 C 153.03962 69.810874 153.33181 70.125059 153.60742 70.451172 C 153.88304 70.777285 154.14318 71.114916 154.38672 71.462891 C 154.63026 71.810864 154.85737 72.170418 155.06641 72.539062 C 155.27544 72.907708 155.46658 73.285703 155.63867 73.673828 C 155.81077 74.061954 155.96298 74.460771 156.0957 74.867188 C 156.22842 75.273603 156.34073 75.687812 156.43164 76.111328 C 156.52255 76.534845 156.592 76.966824 156.63867 77.40625 C 156.68535 77.845676 156.70898 78.291948 156.70898 78.746094 L 156.70898 104.27734 C 156.70898 104.74527 156.68603 105.20784 156.64062 105.66406 C 156.59523 106.12028 156.5281 106.5715 156.43945 107.01367 C 156.35081 107.45585 156.24104 107.89061 156.11133 108.31641 C 155.98162 108.7422 155.83267 109.15933 155.66406 109.56641 C 155.49546 109.97348 155.30689 110.36985 155.10156 110.75586 C 154.89624 111.14187 154.67347 111.51629 154.43359 111.87891 C 154.23156 112.18431 154.01028 112.4764 153.78516 112.76367 L 153.78516 117.37305 C 153.79697 117.3632 153.81047 117.35558 153.82227 117.3457 C 154.23948 116.99628 154.64139 116.62725 155.02539 116.24023 C 155.40939 115.85322 155.77555 115.44693 156.12305 115.02539 C 156.47054 114.60385 156.79971 114.16586 157.10742 113.71289 C 157.41513 113.25992 157.70216 112.79188 157.9668 112.31055 C 158.23143 111.82921 158.47313 111.33473 158.69141 110.82812 C 158.90969 110.32152 159.1048 109.8042 159.27344 109.27539 C 159.44207 108.74658 159.58351 108.20613 159.69922 107.6582 C 159.81493 107.11028 159.90339 106.5542 159.96289 105.99023 C 160.02239 105.42627 160.05273 104.85427 160.05273 104.27734 L 160.05273 92.371094 L 170.11523 92.371094 C 170.60288 92.371094 171.07524 92.394813 171.53125 92.439453 C 171.98726 92.484093 172.42799 92.551303 172.85352 92.638672 C 173.03154 92.675224 173.19631 92.729643 173.36914 92.773438 L 173.36914 82.416016 C 173.36914 72.432036 173.94464 69.551697 176.05664 66.095703 C 178.74464 62.447711 183.92769 60.144531 190.26367 60.144531 L 190.83984 60.144531 L 190.83984 55.152344 L 136.3125 55.152344 z " />
  <path
     id="path1414"
     style="font-style:normal;font-variant:normal;font-weight:normal;font-stretch:normal;font-size:40px;line-height:1.25;font-family:'Ubuntu Mono';-inkscape-font-specification:'Ubuntu Mono';letter-spacing:0px;word-spacing:0px;fill:#000000;fill-opacity:1;stroke:none"
     d="M 153.78516 112.76367 C 154.01028 112.4764 154.23156 112.18431 154.43359 111.87891 C 154.67347 111.51629 154.89624 111.14187 155.10156 110.75586 C 155.30689 110.36985 155.49546 109.97348 155.66406 109.56641 C 155.83267 109.15933 155.98162 108.7422 156.11133 108.31641 C 156.24104 107.89061 156.35081 107.45585 156.43945 107.01367 C 156.5281 106.5715 156.59522 106.12028 156.64062 105.66406 C 156.68603 105.20784 156.70898 104.74527 156.70898 104.27734 L 156.70898 78.746094 C 156.70898 78.291948 156.68535 77.845676 156.63867 77.40625 C 156.592 76.966824 156.52255 76.534845 156.43164 76.111328 C 156.34073 75.687811 156.22842 75.273604 156.0957 74.867188 C 155.96298 74.460771 155.81077 74.061954 155.63867 73.673828 C 155.46658 73.285702 155.27544 72.907708 155.06641 72.539062 C 154.85737 72.170417 154.63026 71.810865 154.38672 71.462891 C 154.14318 71.114916 153.88304 70.777285 153.60742 70.451172 C 153.33181 70.125059 153.03963 69.810874 152.73438 69.507812 C 152.67444 69.448307 152.6079 69.394527 152.54688 69.335938 C 153.49036 71.990319 153.78516 75.476198 153.78516 82.416016 L 153.78516 112.76367 z " />
  <path
     id="path1412"
     style="font-style:normal;font-variant:normal;font-weight:normal;font-stretch:normal;font-size:40px;line-height:1.25;font-family:'Ubuntu Mono';-inkscape-font-specification:'Ubuntu Mono';letter-spacing:0px;word-spacing:0px;fill:#000000;fill-opacity:1;stroke:none"
     d="M 109.43164 123.41797 L 109.43164 119.57617 C 109.15588 119.7105 108.87504 119.83559 108.60742 119.98438 C 108.13317 120.24802 107.67289 120.53336 107.22656 120.83984 C 106.78024 121.14633 106.34896 121.47431 105.93359 121.82031 C 105.51823 122.16632 105.11964 122.52988 104.73828 122.91211 C 104.35692 123.29434 103.99276 123.69423 103.64844 124.10938 C 103.30411 124.52451 102.97808 124.95563 102.67383 125.40039 C 102.36958 125.84515 102.08731 126.30431 101.82617 126.77539 C 101.56504 127.24647 101.32631 127.72857 101.11133 128.22266 C 100.89634 128.71675 100.70486 129.22253 100.53906 129.73633 C 100.37327 130.25013 100.23271 130.77253 100.11914 131.30273 C 100.00557 131.83294 99.919631 132.37075 99.861328 132.91406 C 99.803026 133.45738 99.771484 134.00548 99.771484 134.55859 L 99.771484 146.80859 L 90.552734 146.80859 C 90.31124 146.80859 90.082945 146.78811 89.847656 146.77734 L 89.847656 157.10547 C 89.847656 167.08945 89.272746 170.15983 86.96875 173.42383 C 84.472754 177.07181 79.097113 179.37695 72.953125 179.37695 L 72.376953 179.37695 L 72.376953 184.36914 L 126.9043 184.36914 L 126.9043 179.37695 L 126.32812 179.37695 C 119.99214 179.37695 114.80909 177.07181 112.12109 173.42383 C 111.81815 172.95563 111.55512 172.48511 111.3125 172.00391 C 110.95952 171.82195 110.60984 171.63646 110.27148 171.43945 C 109.89242 171.21874 109.52417 170.98802 109.16602 170.74805 C 108.80786 170.50807 108.46148 170.25767 108.12695 169.99805 C 107.79242 169.73842 107.47031 169.46912 107.16211 169.18945 C 106.85391 168.90978 106.55846 168.62042 106.2793 168.32031 C 106.00014 168.0202 105.73569 167.70961 105.48828 167.38867 C 105.24087 167.06773 105.00982 166.73669 104.79688 166.39453 C 104.58393 166.05237 104.39062 165.69971 104.21484 165.33594 C 104.03907 164.97217 103.88199 164.59671 103.74609 164.21094 C 103.6102 163.82516 103.4937 163.42966 103.40039 163.02148 C 103.30708 162.61331 103.23746 162.19268 103.18945 161.76172 C 103.14144 161.33075 103.11523 160.88774 103.11523 160.43359 L 103.11523 134.90234 C 103.11523 134.44319 103.13929 133.9886 103.18555 133.53906 C 103.2318 133.08952 103.30047 132.64636 103.39062 132.20898 C 103.48078 131.7716 103.59289 131.34064 103.72461 130.91797 C 103.85633 130.49529 104.00876 130.08121 104.17969 129.67578 C 104.35062 129.27035 104.54025 128.87392 104.74805 128.48828 C 104.95585 128.10265 105.18151 127.72658 105.42383 127.36328 C 105.66615 126.99998 105.92472 126.64896 106.19922 126.31055 C 106.47371 125.97213 106.76404 125.64693 107.06836 125.33594 C 107.37268 125.02495 107.69163 124.72829 108.02344 124.44727 C 108.35524 124.16624 108.6997 123.90085 109.05664 123.65234 C 109.1776 123.56813 109.30797 123.49826 109.43164 123.41797 z " />
  <path
     id="path1408"
     style="font-style:normal;font-variant:normal;font-weight:normal;font-stretch:normal;font-size:40px;line-height:1.25;font-family:'Ubuntu Mono';-inkscape-font-specification:'Ubuntu Mono';letter-spacing:0px;word-spacing:0px;fill:#000000;fill-opacity:1;stroke:none"
     d="M 112.38867 65.761719 C 111.93372 65.895427 111.48522 66.031553 111.07227 66.177734 C 110.5649 66.357337 110.0878 66.545112 109.64062 66.744141 C 109.19345 66.94317 108.77527 67.151979 108.38477 67.371094 C 107.99426 67.590209 107.63228 67.820687 107.29492 68.060547 C 106.95756 68.300407 106.64517 68.551235 106.35742 68.8125 C 106.06968 69.073765 105.80611 69.345577 105.56445 69.628906 C 105.32279 69.912236 105.1034 70.205665 104.9043 70.511719 C 104.70519 70.817772 104.52531 71.135407 104.36523 71.464844 C 104.20516 71.79428 104.06403 72.136755 103.93945 72.490234 C 103.81488 72.843714 103.70784 73.207755 103.61523 73.585938 C 103.52263 73.96412 103.44502 74.356222 103.38086 74.759766 C 103.3167 75.16331 103.26581 75.578247 103.22656 76.007812 C 103.18732 76.437378 103.16044 76.881644 103.14258 77.337891 C 103.12472 77.794137 103.11523 78.262507 103.11523 78.746094 L 103.11523 88.964844 L 109.43164 88.964844 L 109.43164 82.416016 C 109.43164 72.432026 110.0091 69.5517 112.12109 66.095703 C 112.20521 65.981541 112.2997 65.873219 112.38867 65.761719 z " />
  <path
     id="path1406"
     style="font-style:normal;font-variant:normal;font-weight:normal;font-stretch:normal;font-size:40px;line-height:1.25;font-family:'Ubuntu Mono';-inkscape-font-specification:'Ubuntu Mono';letter-spacing:0px;word-spacing:0px;fill:#000000;fill-opacity:1;stroke:none"
     d="M 72.376953 55.152344 L 72.376953 60.144531 L 72.953125 60.144531 C 79.097119 60.144531 84.472752 62.447707 86.96875 66.095703 C 89.272748 69.5517 89.847656 72.432026 89.847656 82.416016 L 89.847656 92.65625 C 89.960432 92.636508 90.070147 92.607466 90.183594 92.589844 C 90.651846 92.517107 91.126921 92.462261 91.605469 92.425781 C 92.084017 92.389301 92.565707 92.371094 93.052734 92.371094 L 103.11523 92.371094 L 109.43164 92.371094 L 109.43164 88.964844 L 103.11523 88.964844 L 103.11523 78.746094 C 103.11523 78.262507 103.12472 77.794137 103.14258 77.337891 C 103.16044 76.881644 103.18732 76.437378 103.22656 76.007812 C 103.26581 75.578247 103.3167 75.16331 103.38086 74.759766 C 103.44502 74.356222 103.52263 73.96412 103.61523 73.585938 C 103.70784 73.207755 103.81488 72.843714 103.93945 72.490234 C 104.06403 72.136755 104.20516 71.79428 104.36523 71.464844 C 104.52531 71.135407 104.70519 70.817772 104.9043 70.511719 C 105.1034 70.205665 105.32279 69.912236 105.56445 69.628906 C 105.80611 69.345577 106.06968 69.073765 106.35742 68.8125 C 106.64517 68.551235 106.95756 68.300407 107.29492 68.060547 C 107.63228 67.820687 107.99426 67.590209 108.38477 67.371094 C 108.77527 67.151979 109.19345 66.94317 109.64062 66.744141 C 110.0878 66.545112 110.5649 66.357337 111.07227 66.177734 C 111.48522 66.031553 111.93372 65.895427 112.38867 65.761719 C 115.14261 62.310283 120.19041 60.144531 126.32812 60.144531 L 126.9043 60.144531 L 126.9043 55.152344 L 72.376953 55.152344 z " />
  <path
     style="fill:url(#linearGradient1478);fill-opacity:1"
     d="m 129.33477,63.71564 c -4.58365,0.0213 -8.96093,0.41221 -12.8125,1.09375 -11.34621,2.0045 -13.40624,6.2001 -13.40625,13.937499 v 10.21875 h 26.8125 v 3.40625 h -26.8125 -10.062501 c -7.79245,0 -14.615746,4.683722 -16.749996,13.593751 -2.46182,10.21297 -2.57101,16.58602 0,27.25 1.90593,7.93785 6.457546,13.59375 14.249996,13.59375 h 9.218748 v -12.25 c 0,-8.8499 7.657153,-16.65625 16.750003,-16.65625 h 26.78125 c 7.45496,0 13.40626,-6.13816 13.40625,-13.625 V 78.746889 c 0,-7.266339 -6.12998,-12.724779 -13.40625,-13.937499 -4.60598,-0.76673 -9.38509,-1.11505 -13.96875,-1.09375 z m -14.5,8.21875 c 2.76955,0 5.03125,2.298649 5.03125,5.124999 0,2.81634 -2.2617,5.09375 -5.03125,5.09375 -2.77947,0 -5.03125,-2.27741 -5.03125,-5.09375 0,-2.82635 2.25178,-5.124999 5.03125,-5.124999 z"
     id="path1948" />
  <path
     id="path1410"
     style="font-style:normal;font-variant:normal;font-weight:normal;font-stretch:normal;font-size:40px;line-height:1.25;font-family:'Ubuntu Mono';-inkscape-font-specification:'Ubuntu Mono';letter-spacing:0px;word-spacing:0px;fill:#000000;fill-opacity:1;stroke:none"
     d="M 109.43164 92.371094 L 103.11523 92.371094 L 93.052734 92.371094 C 92.565707 92.371094 92.084017 92.389301 91.605469 92.425781 C 91.126921 92.462261 90.651846 92.517107 90.183594 92.589844 C 90.070147 92.607466 89.960432 92.636508 89.847656 92.65625 L 89.847656 146.77734 C 90.082945 146.78811 90.311239 146.80859 90.552734 146.80859 L 99.771484 146.80859 L 99.771484 134.55859 C 99.771484 134.00548 99.803026 133.45738 99.861328 132.91406 C 99.919631 132.37075 100.00557 131.83294 100.11914 131.30273 C 100.23271 130.77253 100.37327 130.25013 100.53906 129.73633 C 100.70486 129.22253 100.89634 128.71675 101.11133 128.22266 C 101.32631 127.72857 101.56504 127.24647 101.82617 126.77539 C 102.08731 126.30431 102.36958 125.84515 102.67383 125.40039 C 102.97808 124.95563 103.30411 124.52452 103.64844 124.10938 C 103.99276 123.69423 104.35692 123.29434 104.73828 122.91211 C 105.11964 122.52988 105.51823 122.16632 105.93359 121.82031 C 106.34896 121.47431 106.78024 121.14633 107.22656 120.83984 C 107.67289 120.53336 108.13317 120.24803 108.60742 119.98438 C 108.87504 119.83559 109.15588 119.7105 109.43164 119.57617 L 109.43164 92.371094 z " />
  <ellipse
     style="display:inline;opacity:0.44382;fill:url(#radialGradient1480);fill-opacity:1;fill-rule:nonzero;stroke:none;stroke-width:20;stroke-miterlimit:4;stroke-dasharray:none;stroke-opacity:1"
     id="path1894"
     cx="130.23274"
     cy="191.4155"
     rx="35.930977"
     ry="6.9673119" />
</svg>
