<svg version="1.1" xmlns="http://www.w3.org/2000/svg" viewBox="0 0 1073.5130767822266 860" width="1073.5130767822266" height="860">
  <!-- svg-source:excalidraw -->
  
  <defs>
    <style class="style-fonts">
      @font-face {
        font-family: "Virgil";
        src: url("https://excalidraw.com/Virgil.woff2");
      }
      @font-face {
        font-family: "Cascadia";
        src: url("https://excalidraw.com/Cascadia.woff2");
      }
    </style>
  </defs>
  <g stroke-linecap="round" transform="translate(110 130) rotate(0 120 120)"><path d="M-1.14 0.39 C86.71 -0.96, 170.57 0.47, 241.01 -1.23 M-0.15 0.1 C85.71 -1.94, 171.72 -2.13, 240.27 -0.15 M241.46 0.11 C239.55 90.91, 240.41 183.54, 238.83 240.38 M240.66 0.48 C239.31 89.29, 240.41 177.38, 240.03 240.04 M241.2 239.77 C145.74 241.11, 54.15 239.47, -0.18 240.75 M240.28 239.63 C154.15 240.12, 66.59 240.51, 0.77 240.33 M1.38 238.64 C-1.09 146.2, 0.98 50.41, -0.51 1.37 M0.08 240.77 C-0.3 176.4, -0.31 112.94, -0.47 -0.4" stroke="#000000" stroke-width="1" fill="none"></path></g><g transform="translate(165.78173065185547 135) rotate(0 64.21826934814453 17.5)"><text x="64.21826934814453" y="0" font-family="Virgil, Segoe UI Emoji" font-size="28px" fill="#000000" text-anchor="middle" style="white-space: pre;" direction="ltr" dominant-baseline="text-before-edge">Acme v1.3</text></g><g stroke-linecap="round" transform="translate(430 130) rotate(0 120 120)"><path d="M-1.26 -0.72 C96.27 -0.36, 191.05 0.03, 239.35 -1.32 M0.6 0.46 C61.8 1.67, 123.04 1.34, 239.85 0.72 M240.82 0.16 C237.84 68.33, 238.34 135.12, 240.24 239.97 M240.82 0.34 C240.91 88.47, 241.02 175.47, 239.3 239.34 M240.36 239.28 C166.05 239.82, 90.47 242.5, 0.4 239.86 M239.66 239.72 C154.78 241.58, 71.76 241.23, 0.09 239.58 M-0.94 239.84 C-0.33 145.98, -0.87 54.01, -0.02 0.83 M0.22 240.59 C0.05 154.42, 1.11 69.31, -0.48 0.56" stroke="#000000" stroke-width="1" fill="none"></path></g><g transform="translate(486.3557357788086 135) rotate(0 63.644264221191406 17.5)"><text x="63.644264221191406" y="0" font-family="Virgil, Segoe UI Emoji" font-size="28px" fill="#000000" text-anchor="middle" style="white-space: pre;" direction="ltr" dominant-baseline="text-before-edge">Acme v1.4</text></g><g stroke-linecap="round" transform="translate(510 210) rotate(0 40 40)"><path d="M-0.11 1.31 L78.52 -0.56 L79.53 80.41 L-0.97 81.67" stroke="none" stroke-width="0" fill="#4c6ef5"></path><path d="M1.77 1.97 C29.25 -1.95, 59.49 0.22, 80.86 -1.84 M0.62 0.96 C16.02 -1.22, 32.95 0.43, 80.15 0.14 M79.62 -0.66 C78.96 29.37, 79.9 61.56, 80.6 81.51 M79.64 0.99 C79.26 24.68, 80.76 51.22, 79.9 79.07 M80.77 81.32 C61.4 78.58, 45.06 80.42, 1.36 80.65 M80.86 80.64 C62.82 79.76, 46.57 80.89, -0.71 79.52 M-0.24 80.88 C0.91 50.7, -1.69 17.54, 0.27 1.09 M0.22 79.08 C0.71 49.57, 0.2 19.66, -0.46 -0.48" stroke="#000000" stroke-width="1" fill="none"></path></g><g stroke-linecap="round" transform="translate(750 130) rotate(0 120 120)"><path d="M0.94 0.9 C69.69 1.52, 140.32 0.16, 240.16 0.43 M0.47 -0.77 C88.51 2.06, 178.5 0.94, 239.32 -0.2 M238.43 1.18 C240.51 76.4, 238.48 154.59, 240.39 241.08 M240.59 0.45 C239.33 83.53, 238.75 166.7, 240.1 239.23 M239.98 239.57 C154.42 240.91, 66.8 241.97, -0.14 238.49 M239.31 240.33 C165.9 240.68, 92.34 239.38, 0.73 240.28 M-0.88 239.33 C-3.04 144.93, -0.15 49.13, 0.96 0.76 M0.2 239.66 C-0.95 175.57, -1.22 110.47, -0.8 -0.64" stroke="#000000" stroke-width="1" fill="none"></path></g><g transform="translate(799.5097045898438 135) rotate(0 70.49029541015625 17.5)"><text x="70.49029541015625" y="0" font-family="Virgil, Segoe UI Emoji" font-size="28px" fill="#000000" text-anchor="middle" style="white-space: pre;" direction="ltr" dominant-baseline="text-before-edge">Acme v2.0</text></g><g stroke-linecap="round" transform="translate(890 190) rotate(0 40 40)"><path d="M0.79 -0.73 L78.15 -0.72 L79.06 78.74 L0.97 79.27" stroke="none" stroke-width="0" fill="#fa5252"></path><path d="M-0.29 -1.15 C26.02 -1.15, 51.63 -0.18, 80.95 -0.39 M0.65 -0.37 C19.5 1.37, 39.32 1.05, 80.14 0.25 M81.68 -1.62 C78.49 26.59, 78.54 55.03, 79.79 80.21 M79.35 -0.3 C79.18 15.83, 79.49 33.01, 79.54 79.59 M79.9 81.53 C55.33 81.46, 28.75 78.28, 1.14 81.63 M80.52 80.95 C55.92 80.05, 31.01 80.05, 0.84 79.79 M-1.14 78.3 C0.87 46.54, 0.7 15.73, 1.21 0.5 M-0.49 79.56 C0.11 60.26, -0.05 41.79, -0.83 0.34" stroke="#000000" stroke-width="1" fill="none"></path></g><g stroke-linecap="round" transform="translate(190 210) rotate(0 40 40)"><path d="M0.63 0.68 L78.08 1.64 L79.87 79.23 L-0.42 79.83" stroke="none" stroke-width="0" fill="#fab005"></path><path d="M-1.71 0.03 C17.77 1.68, 32.65 1.86, 79.19 0.04 M0.04 0.7 C16.77 -1.14, 34.59 -1.36, 79.83 0.62 M78.59 -0.41 C79.32 18.3, 79.65 34.41, 78.25 78.13 M80.28 0.84 C79.05 27.03, 78.9 55.15, 79.91 79.87 M79.16 79.49 C52.89 80.14, 28.12 79.74, -1.08 79.05 M80.04 79.11 C55.21 79.98, 30.59 79.99, 0.47 80.23 M-1.87 81.46 C-2.73 46.8, -1.21 16.06, 0.81 1.41 M0.42 80.3 C-0.71 51.34, -0.92 21.04, -0.49 0.65" stroke="#000000" stroke-width="1" fill="none"></path></g><g stroke-linecap="round" transform="translate(770 190) rotate(0 40 40)"><path d="M-0.39 1.27 L81.63 -1.78 L81.59 79.85 L0.71 79.42" stroke="none" stroke-width="0" fill="#fd7e14"></path><path d="M1.55 -0.02 C16.24 -1.6, 35.64 -2.43, 80.21 1.36 M-0.98 0.84 C28.81 -0.7, 56.15 0.31, 79.85 0.23 M79.15 0.04 C79.13 29.27, 78.81 55.02, 78.17 80.88 M79.62 -0.43 C78.26 18.58, 79.77 37.77, 80.52 80.23 M78.05 81.92 C53.74 81.76, 30.66 80.58, -0.48 79.55 M79.77 79.47 C48.07 79.35, 16.92 79.11, 0.16 80.8 M1.95 78.67 C-2.18 49.28, 0.98 15.49, -1.58 0.13 M0.11 79.11 C0.12 49.13, -1.16 17.64, 0.28 -0.72" stroke="#000000" stroke-width="1" fill="none"></path></g><g stroke-linecap="round" transform="translate(110.899983621704 430) rotate(0 120 120)"><path d="M-0.07 -0.99 C65.47 1.37, 131.43 0.68, 238.45 -0.06 M0.73 0.17 C57.06 -0.43, 115.91 -0.85, 240.71 0.51 M239.33 -1.14 C240.61 63.17, 239.24 127.16, 238.75 238.58 M240.73 0.21 C240.46 75.17, 239.67 148.69, 239.71 240.55 M240.89 238.87 C185.59 240.59, 132.28 240.48, 1.34 238.94 M239.28 240.57 C158.17 242.49, 76.17 241.58, -0.52 239.19 M0.6 239.57 C-0.64 188.98, -0.8 139.67, -1.52 1.36 M0.81 239.88 C-0.6 155.04, -2.08 69.43, 0.58 -0.59" stroke="#000000" stroke-width="1" fill="none"></path></g><g transform="translate(166.68171427355946 435) rotate(0 64.21826934814453 17.5)"><text x="64.21826934814453" y="0" font-family="Virgil, Segoe UI Emoji" font-size="28px" fill="#000000" text-anchor="middle" style="white-space: pre;" direction="ltr" dominant-baseline="text-before-edge">Acme v1.3</text></g><g stroke-linecap="round" transform="translate(430 430) rotate(0 120 120)"><path d="M-0.11 -0.68 C56.18 -0.07, 114.47 0.1, 240.25 1.45 M0.41 -0.56 C77.62 0.83, 153.54 0.28, 239.66 -0.34 M239.33 -0.96 C239.6 54.11, 241.01 111.16, 240.22 241.45 M239.54 -0.12 C240.5 78.46, 240.2 156.19, 240.1 240.45 M241.57 240.23 C185.58 239.36, 129.17 241.84, 1.57 238.56 M240.12 239.7 C151.08 240.66, 62.45 241.74, -0.56 240.3 M-0.14 239.92 C-1.55 175.6, 0.92 109.6, 0.21 1.61 M-0.75 240.83 C-1.19 170.77, -0.96 102.61, 0.22 0.37" stroke="#000000" stroke-width="1" fill="none"></path></g><g transform="translate(486.3557357788086 435) rotate(0 63.644264221191406 17.5)"><text x="63.644264221191406" y="0" font-family="Virgil, Segoe UI Emoji" font-size="28px" fill="#000000" text-anchor="middle" style="white-space: pre;" direction="ltr" dominant-baseline="text-before-edge">Acme v1.4</text></g><g stroke-linecap="round" transform="translate(750 430) rotate(0 120 120)"><path d="M0.34 -1.37 C73.35 -0.92, 146.12 -0.32, 241.02 -0.55 M-0.57 0.35 C70.43 0.47, 141.27 0.18, 239.29 0.08 M240.41 0.66 C241.8 72.67, 240.03 146.59, 241.09 238.79 M239.44 0.11 C240.42 83.25, 240.36 165.6, 239.47 240.35 M241.14 240.28 C148.76 238.52, 54.46 237.23, -1.61 238.48 M239.78 240.01 C159.57 240.65, 79.99 239.96, 0.68 240.48 M-0.23 241.47 C1.23 150.53, 1.41 65.22, -1.18 1.61 M-0.09 240.02 C0.17 170.84, -0.72 102.1, -0.2 -0.68" stroke="#000000" stroke-width="1" fill="none"></path></g><g transform="translate(799.5097045898438 435) rotate(0 70.49029541015625 17.5)"><text x="70.49029541015625" y="0" font-family="Virgil, Segoe UI Emoji" font-size="28px" fill="#000000" text-anchor="middle" style="white-space: pre;" direction="ltr" dominant-baseline="text-before-edge">Acme v2.0</text></g><g stroke-linecap="round" transform="translate(450 470) rotate(0 40 40)"><path d="M1.7 -0.82 L79.57 -0.6 L79.52 78.37 L0.28 81.58" stroke="none" stroke-width="0" fill="#4c6ef5"></path><path d="M-1.86 -0.08 C22.85 0.46, 48.37 2.07, 80.41 -1.64 M0.85 0.61 C22.39 0.49, 45.03 0.13, 79.31 0.42 M78.5 -1.7 C79.88 19.87, 79.94 41.22, 80.49 80.8 M79.65 0.65 C78.84 31.81, 79.68 63.28, 79.32 80.14 M81.61 78.73 C55.17 81.82, 30.57 78.39, 1.37 80.34 M79.37 79.03 C49.22 80.04, 19.59 80.07, -0.26 80.01 M-1.83 81.63 C1.21 61.6, 0.32 42.47, -0.28 1.77 M0.69 79.29 C1.68 48.76, 0.99 18.22, -0.11 0.03" stroke="#000000" stroke-width="1" fill="none"></path></g><g stroke-linecap="round" transform="translate(770 570) rotate(0 30 30)"><path d="M-1.72 1.37 L60.34 1.47 L60.29 59.27 L-1.26 58.06" stroke="none" stroke-width="0" fill="#fa5252"></path><path d="M-0.32 0.99 C21.88 2.2, 47.67 -0.17, 59.91 -0.83 M58.93 -0.8 C58.43 14.08, 57.89 31.36, 60.13 60.26 M61.84 58.9 C36.49 59.54, 14.84 58.79, 0.87 60.25 M0.41 61.88 C0.68 40.39, -0.86 18.41, 1.71 1.88" stroke="#000000" stroke-width="1.5" fill="none" stroke-dasharray="1.5 7"></path></g><g stroke-linecap="round" transform="translate(190.899983621704 490) rotate(0 40 40)"><path d="M-1.97 -0.26 L80.51 -1.35 L80.12 78.35 L-0.25 79.21" stroke="none" stroke-width="0" fill="#fab005"></path><path d="M-1.34 1.7 C18.66 -1.06, 34.77 -1.22, 79.19 -1.37 M-0.58 -0.75 C26.52 0.42, 54.81 0.45, 80.87 0.25 M79.72 -0.7 C82.05 25.74, 81.61 54.63, 81.07 78.65 M80.14 0.8 C79.53 25.52, 81.02 51.15, 79.14 80.68 M79.27 78.74 C52.71 78.29, 29.96 78.77, 0.72 79.48 M79.95 79.09 C56.7 80.51, 32.44 80.06, 0.97 79.86 M2 81.39 C-2.12 50.87, -0.98 18.42, 0.88 -0.22 M-0.22 79.7 C-0.92 54.98, -0.54 32.37, -0.6 -0.16" stroke="#000000" stroke-width="1" fill="none"></path></g><g stroke-linecap="round" transform="translate(830 470) rotate(0 40 40)"><path d="M-0.25 -0.79 L78.98 -0.74 L79.79 79.6 L-1.78 79.64" stroke="none" stroke-width="0" fill="#fd7e14"></path><path d="M-0.81 -1.37 C22.2 -0.74, 41.91 -0.83, 78.5 -1.7 M0.87 0.25 C25.2 0.82, 49.05 -0.24, 79.65 0.65 M81.07 -1.35 C80.62 18.63, 82.23 36.71, 81.61 78.73 M79.14 0.68 C80.85 28.06, 80.83 54.28, 79.37 79.03 M80.72 79.48 C63.32 78.39, 46.42 79.37, -1.83 81.63 M80.97 79.86 C52.32 80.99, 21.97 81.1, 0.69 79.29 M0.88 79.78 C0.16 49.99, -0.71 16.16, -0.6 -0.48 M-0.6 79.84 C-1.1 62.38, 0.14 44.35, 0.06 -0.82" stroke="#000000" stroke-width="1" fill="none"></path></g><g stroke-linecap="round" transform="translate(130 610) rotate(0 20 20)"><path d="M-1.13 -0.2 L40.51 0.45 L39.79 38.34 L-1.47 41.88" stroke="none" stroke-width="0" fill="#4c6ef5"></path><path d="M-1.2 -0.85 C12.81 -0.97, 28.04 0.29, 40.84 -1.56 M-0.83 -0.84 C8.27 0.31, 17.25 -0.04, 40.45 -0.72 M40.32 1.51 C40.94 11.23, 40.78 26.28, 38.94 39.42 M39.14 0.54 C39.81 12.9, 38.65 27.15, 39.85 40.7 M40.66 38.87 C28.98 38.36, 17.63 41.28, 2 39.41 M40.08 39.63 C26.37 40.21, 12.49 40.79, 0.72 40.76 M1.69 38.83 C-1.3 28.7, 0.37 14.89, 1.83 0.27 M-0.33 39.6 C0.66 30.2, 0.97 20.78, -0.1 -0.85" stroke="#000000" stroke-width="1" fill="none"></path></g><g stroke-linecap="round"><g transform="translate(110.899983621704 590) rotate(0 119.71804683901019 0.16660238442960917)"><path d="M-0.9 -1.41 C69.16 2.18, 136.54 2.75, 240.34 0.06" stroke="#000000" stroke-width="1.5" fill="none" stroke-dasharray="8 9"></path></g></g><mask></mask><g stroke-linecap="round" transform="translate(190.899983621704 610) rotate(0 20 20)"><path d="M1.75 0.42 L39.4 1.43 L40.7 41.7 L0.19 41.66" stroke="none" stroke-width="0" fill="#12b886"></path><path d="M0.3 1.88 C12.13 1.76, 24.66 -0.91, 38 1.44 M0.33 -0.31 C11.43 0.58, 22.7 -0.25, 40.64 -0.94 M40.06 0.93 C39.83 13.62, 38.93 23.41, 38.47 40.02 M39.53 0.33 C39.37 13.3, 40.95 26.27, 40.96 39.07 M39.11 41.77 C28.38 38.49, 11.85 40.14, 0.42 41.94 M39.28 39.45 C31.54 40.32, 23.25 40.2, -0.17 40.44 M-1.25 38.41 C1.75 29.26, 0.42 23.09, -1.45 -0.98 M0.43 40.36 C-1.11 28.64, -1.09 16.53, 0.03 0.74" stroke="#000000" stroke-width="1" fill="none"></path></g><g stroke-linecap="round" transform="translate(270.899983621704 610) rotate(0 10 20)"><path d="M-1.87 -1.47 L19.45 -1.99 L21.03 40.62 L-0.81 40.33" stroke="none" stroke-width="0" fill="#fd7e14"></path><path d="M-0.55 0.13 C5.23 -1.28, 12.46 -0.26, 19.98 1.66 M0.92 -0.32 C7.79 0.39, 14.85 0.29, 19.44 -0.3 M19.59 1.51 C21.71 13.25, 21.69 23.42, 21.81 41.67 M19.09 -0.16 C18.97 12.32, 20.26 26.71, 19.53 40.1 M20.17 38.94 C16.92 41.78, 10 40.25, -1.13 38.35 M19.84 40.49 C13.01 39.91, 8.3 40.29, 0.54 40.31 M0.14 38.45 C0.23 29.55, -1.56 16.73, 0.19 -0.03 M0.22 39.41 C-0.77 25.23, -0.58 9.95, -0.9 0.59" stroke="#000000" stroke-width="1" fill="none"></path></g><g stroke-linecap="round" transform="translate(590 570) rotate(0 30 30)"><path d="M-0.11 -1.93 L59.9 1.86 L60.89 59.57 L-1.95 59.7" stroke="none" stroke-width="0" fill="#fd7e14"></path><path d="M-0.03 1.34 C13.76 1.22, 29.28 -1.25, 58.21 -0.17 M61.18 -1.87 C58.11 13.19, 57.6 28.5, 60.62 59.19 M61.84 61.5 C40.4 61.89, 23 60.64, -0.54 60.17 M0.86 60.7 C0.35 38.31, 1.81 16.47, -1 0.42" stroke="#000000" stroke-width="1.5" fill="none" stroke-dasharray="1.5 7"></path></g><g stroke-linecap="round" transform="translate(530 570) rotate(0 20 30)"><path d="M-1.26 -1.94 L38.18 0.67 L38.65 60.72 L-0.52 60.03" stroke="none" stroke-width="0" fill="#12b886"></path><path d="M-0.09 -0.83 C14.6 -1.24, 31.66 -0.93, 39.2 -1.16 M40.13 0.26 C41.23 14, 40.29 28.86, 38.9 59.72 M40.87 60.25 C30.48 58.36, 19.09 60.13, 1.88 60.28 M1.71 61.88 C-1.34 38.55, 0.72 15.83, 0.29 -0.73" stroke="#000000" stroke-width="1.5" fill="none" stroke-dasharray="1.5 7"></path></g><g stroke-linecap="round"><g transform="translate(430.8805922280226 590.5453102707701) rotate(0 118.87284656017755 0.3944374249377347)"><path d="M-0.88 1.33 C85.86 -0.71, 168.9 -1.11, 238.63 0.26" stroke="#000000" stroke-width="1.5" fill="none" stroke-dasharray="8 9"></path></g></g><mask></mask><g stroke-linecap="round" transform="translate(450 610) rotate(0 20 25)"><path d="M1.19 0.53 L38.27 1.03 L40.11 48.49 L1.26 50.04" stroke="none" stroke-width="0" fill="#fa5252"></path><path d="M-0.48 -1.96 C11.18 0.14, 20.01 -0.01, 40.88 0.18 M-0.26 0.11 C9.18 -0.51, 19.24 1.01, 39.81 0.12 M40.79 -0.11 C41.56 12.69, 40.3 22.24, 40.83 48.91 M40.25 0.29 C41.07 10.56, 40.07 21.78, 39.5 49.02 M41.58 49.18 C29.98 51.66, 20.01 51.9, -0.26 51.17 M39.83 49.05 C29.42 50.98, 20.65 50.63, -0.75 49.49 M-0.93 51.85 C-0.27 32.6, 0.77 13.5, 1.66 1.16 M0.02 49.13 C-0.8 34.27, -1.06 17.96, -0.2 -0.71" stroke="#000000" stroke-width="1" fill="none"></path></g><g stroke-linecap="round" transform="translate(830 250) rotate(0 40 40)"><path d="M1.73 -1.99 L79.08 -1.67 L81.47 80.21 L-0.95 78.46" stroke="none" stroke-width="0" fill="#12b886"></path><path d="M-1.2 1.21 C20.74 0.49, 39.55 1.79, 80.79 0.3 M0.89 -0.61 C30.45 0.41, 59.82 0.7, 79.05 -0.7 M78.51 0.06 C77.36 16.18, 78.44 34.42, 81.26 81.93 M79.05 -0.38 C80.45 27.88, 79.61 54.41, 79.03 80.05 M80.52 80.48 C50.13 79.3, 22.37 79.05, 0.35 78.58 M80.23 79.96 C62.82 79.92, 44.36 80.03, -0.04 80.85 M-0.72 81.38 C0.48 53.37, 0.63 29.09, 1.89 -1.07 M-0.29 80.28 C-0.58 51.36, 0.09 24.44, -0.95 -0.16" stroke="#000000" stroke-width="1" fill="none"></path></g><g stroke-linecap="round" transform="translate(890 490) rotate(0 40 40)"><path d="M-0.32 -1.29 L79.58 -1.3 L80.26 79.36 L0.94 79.96" stroke="none" stroke-width="0" fill="#12b886"></path><path d="M0.56 -1.31 C28.34 -1.06, 59.49 1.73, 80.54 1.8 M0.6 -0.24 C25.09 0.15, 49.78 -1.09, 80.52 0.15 M79.08 -1.04 C80.18 20.48, 77.87 37.91, 81.73 78.01 M80.1 -0.48 C78.56 19.36, 78.76 40.81, 79.89 80.24 M81.71 78.76 C55.73 81.66, 33.57 81.63, -1.05 80.31 M80.3 80.72 C59.51 80.45, 39.07 78.8, -0.53 80.59 M0.16 78.65 C1.89 54.89, 0.2 33.4, 0.46 0.07 M0.96 80.96 C0.82 51.33, -0.07 20.41, -0.07 0.51" stroke="#000000" stroke-width="1" fill="none"></path></g><g stroke-linecap="round"><g transform="translate(610 50) rotate(0 -159.29930818551793 79.86773854342641)"><path d="M0.92 -0.23 C-74.46 34.82, -149.27 73.67, -319.5 160.23 M-0.01 -0.5 C-112.26 57.34, -224.17 113.62, -319.52 159.41" stroke="#000000" stroke-width="1" fill="none"></path></g><g transform="translate(610 50) rotate(0 -159.29930818551793 79.86773854342641)"><path d="M-297.23 137.47 C-303.9 141.08, -309.4 148.69, -318.74 159.77 M-298.69 137.05 C-306.13 145.41, -312.96 153.24, -318.77 158.48" stroke="#000000" stroke-width="1" fill="none"></path></g><g transform="translate(610 50) rotate(0 -159.29930818551793 79.86773854342641)"><path d="M-288.24 155.91 C-297.03 155.18, -304.63 158.5, -318.74 159.77 M-289.7 155.5 C-300.3 157.44, -310.29 158.8, -318.77 158.48" stroke="#000000" stroke-width="1" fill="none"></path></g></g><mask></mask><g stroke-linecap="round"><g transform="translate(670.188688794151 50.196782460436225) rotate(0 -29.78345899982378 79.58201835956424)"><path d="M-0.19 -0.2 C-17 46.8, -36.73 95.93, -60.21 159.36 M0.65 -0.06 C-20.51 55.91, -41.78 111.76, -59.95 159.12" stroke="#000000" stroke-width="1" fill="none"></path></g><g transform="translate(670.188688794151 50.196782460436225) rotate(0 -29.78345899982378 79.58201835956424)"><path d="M-59.65 128.93 C-58.5 136.88, -60.35 147.1, -59.98 158.68 M-58.81 129.06 C-59.53 139.99, -59.94 150.49, -59.72 158.44" stroke="#000000" stroke-width="1" fill="none"></path></g><g transform="translate(670.188688794151 50.196782460436225) rotate(0 -29.78345899982378 79.58201835956424)"><path d="M-40.48 136.26 C-45.08 142.06, -52.67 150.09, -59.98 158.68 M-39.65 136.4 C-47.08 144.66, -54.19 152.59, -59.72 158.44" stroke="#000000" stroke-width="1" fill="none"></path></g></g><mask></mask><g stroke-linecap="round"><g transform="translate(710 50) rotate(0 39.50613039499149 60.148405531421304)"><path d="M-1.77 -0.91 C32.42 46, 60.88 88.85, 80.01 121.21 M0.08 -0.43 C15.18 26.43, 32.44 50.24, 80.78 119.75" stroke="#000000" stroke-width="1" fill="none"></path></g><g transform="translate(710 50) rotate(0 39.50613039499149 60.148405531421304)"><path d="M54.48 101.57 C66.79 110.1, 74.25 114.04, 80.79 120.97 M56.33 102.05 C60.55 107.01, 66 108.94, 81.56 119.51" stroke="#000000" stroke-width="1" fill="none"></path></g><g transform="translate(710 50) rotate(0 39.50613039499149 60.148405531421304)"><path d="M71.32 89.84 C77.36 102.97, 78.43 111.36, 80.79 120.97 M73.17 90.32 C73.69 97.77, 75.56 102.2, 81.56 119.51" stroke="#000000" stroke-width="1" fill="none"></path></g></g><mask></mask><g transform="translate(530 10) rotate(0 149.75863647460938 17.5)"><text x="0" y="0" font-family="Virgil, Segoe UI Emoji" font-size="28px" fill="#000000" text-anchor="start" style="white-space: pre;" direction="ltr" dominant-baseline="text-before-edge">New feature releases</text></g><g transform="translate(10 710) rotate(0 190.66680908203125 70)"><text x="0" y="0" font-family="Virgil, Segoe UI Emoji" font-size="28px" fill="#000000" text-anchor="start" style="white-space: pre;" direction="ltr" dominant-baseline="text-before-edge">Features in development, </text><text x="0" y="35" font-family="Virgil, Segoe UI Emoji" font-size="28px" fill="#000000" text-anchor="start" style="white-space: pre;" direction="ltr" dominant-baseline="text-before-edge">their code is included </text><text x="0" y="70" font-family="Virgil, Segoe UI Emoji" font-size="28px" fill="#000000" text-anchor="start" style="white-space: pre;" direction="ltr" dominant-baseline="text-before-edge">in the release, but disabled</text><text x="0" y="105" font-family="Virgil, Segoe UI Emoji" font-size="28px" fill="#000000" text-anchor="start" style="white-space: pre;" direction="ltr" dominant-baseline="text-before-edge">by feature flags</text></g><g stroke-linecap="round"><g transform="translate(207.21303824453662 709) rotate(0 -26.87123078420973 -28.10393218928948)"><path d="M0.01 0.97 C-16.78 -18.14, -37.72 -41.78, -53.75 -56.91 M-0.94 0.23 C-21.12 -22.07, -42.63 -44.85, -53.6 -57.18" stroke="#000000" stroke-width="1" fill="none"></path></g><g transform="translate(207.21303824453662 709) rotate(0 -26.87123078420973 -28.10393218928948)"><path d="M-27.03 -42.26 C-34.65 -46.21, -46.18 -54.86, -53.16 -56.1 M-27.97 -43.01 C-37.13 -48.25, -47.96 -54.01, -53 -56.36" stroke="#000000" stroke-width="1" fill="none"></path></g><g transform="translate(207.21303824453662 709) rotate(0 -26.87123078420973 -28.10393218928948)"><path d="M-42.2 -28.45 C-44.59 -37, -50.96 -50.35, -53.16 -56.1 M-43.15 -29.19 C-46.56 -39.75, -51.52 -50.85, -53 -56.36" stroke="#000000" stroke-width="1" fill="none"></path></g></g><mask></mask><g stroke-linecap="round"><g transform="translate(269.2803875098616 709) rotate(0 10.5810750255323 -29.539731996599585)"><path d="M-0.35 -0.01 C8.4 -22.27, 13.84 -44.14, 22.15 -59.68 M-0.99 0.6 C5.34 -14.48, 9.09 -27.04, 20.72 -57.05" stroke="#000000" stroke-width="1" fill="none"></path></g><g transform="translate(269.2803875098616 709) rotate(0 10.5810750255323 -29.539731996599585)"><path d="M20.02 -27.07 C21.15 -38.81, 18.97 -50.1, 22.34 -58.73 M19.37 -26.46 C20.85 -34.68, 19.76 -40.52, 20.91 -56.11" stroke="#000000" stroke-width="1" fill="none"></path></g><g transform="translate(269.2803875098616 709) rotate(0 10.5810750255323 -29.539731996599585)"><path d="M0.82 -34.31 C9.21 -43.26, 14.28 -51.81, 22.34 -58.73 M0.17 -33.71 C6.26 -40.32, 9.77 -44.42, 20.91 -56.11" stroke="#000000" stroke-width="1" fill="none"></path></g></g><mask></mask><g stroke-linecap="round"><g transform="translate(240.03133207611017 709) rotate(0 -7.627568725734591 -29.017855259124133)"><path d="M-0.47 0.05 C-5.23 -14.46, -7.54 -27.8, -15.79 -56.04 M0.54 -0.46 C-1.89 -12.59, -6.68 -22.36, -15.56 -58.09" stroke="#000000" stroke-width="1" fill="none"></path></g><g transform="translate(240.03133207611017 709) rotate(0 -7.627568725734591 -29.017855259124133)"><path d="M1.16 -33.47 C-4.05 -40.46, -6.81 -46.29, -16.14 -56.13 M2.17 -33.99 C-0.79 -39.37, -5.98 -42.39, -15.91 -58.18" stroke="#000000" stroke-width="1" fill="none"></path></g><g transform="translate(240.03133207611017 709) rotate(0 -7.627568725734591 -29.017855259124133)"><path d="M-18.65 -28.17 C-19.41 -36.48, -17.71 -43.5, -16.14 -56.13 M-17.64 -28.69 C-16.59 -35.25, -17.78 -39.34, -15.91 -58.18" stroke="#000000" stroke-width="1" fill="none"></path></g></g><mask></mask><g transform="translate(430 730) rotate(0 167.8747100830078 52.5)"><text x="0" y="0" font-family="Virgil, Segoe UI Emoji" font-size="28px" fill="#000000" text-anchor="start" style="white-space: pre;" direction="ltr" dominant-baseline="text-before-edge">Incomplete features, </text><text x="0" y="35" font-family="Virgil, Segoe UI Emoji" font-size="28px" fill="#000000" text-anchor="start" style="white-space: pre;" direction="ltr" dominant-baseline="text-before-edge">released for some users</text><text x="0" y="70" font-family="Virgil, Segoe UI Emoji" font-size="28px" fill="#000000" text-anchor="start" style="white-space: pre;" direction="ltr" dominant-baseline="text-before-edge">to get feedback</text></g><g stroke-linecap="round"><g transform="translate(552.7819832806117 710) rotate(0 19.657964051206818 -30.37623312138021)"><path d="M1.8 0.88 C6.66 -14.36, 18.63 -29.1, 38.7 -61.63 M0.62 -0.09 C10.16 -17, 20.45 -33.04, 37.32 -60.23" stroke="#000000" stroke-width="1" fill="none"></path></g><g transform="translate(552.7819832806117 710) rotate(0 19.657964051206818 -30.37623312138021)"><path d="M32.93 -30 C30.58 -38.14, 35.28 -45.7, 38.8 -61.87 M31.75 -30.96 C32.77 -39.35, 34.31 -46.75, 37.41 -60.47" stroke="#000000" stroke-width="1" fill="none"></path></g><g transform="translate(552.7819832806117 710) rotate(0 19.657964051206818 -30.37623312138021)"><path d="M15.51 -40.84 C17.27 -46.4, 26.05 -51.42, 38.8 -61.87 M14.33 -41.81 C20.33 -47.08, 26.79 -51.43, 37.41 -60.47" stroke="#000000" stroke-width="1" fill="none"></path></g></g><mask></mask><g stroke-linecap="round"><g transform="translate(531.8960853136782 710) rotate(0 -1.0010609172056775 -30.73101166402921)"><path d="M-1.59 -0.19 C0.39 -22.01, -0.94 -45.2, -0.8 -61.52 M-0.11 0.06 C-1.94 -23.01, -2.24 -45.24, -1.56 -60.15" stroke="#000000" stroke-width="1" fill="none"></path></g><g transform="translate(531.8960853136782 710) rotate(0 -1.0010609172056775 -30.73101166402921)"><path d="M6.49 -31.93 C5.42 -42.39, 1.29 -54.18, -0.46 -61.68 M7.97 -31.68 C3.42 -42.82, 0.2 -53.15, -1.21 -60.31" stroke="#000000" stroke-width="1" fill="none"></path></g><g transform="translate(531.8960853136782 710) rotate(0 -1.0010609172056775 -30.73101166402921)"><path d="M-14.03 -32.38 C-7.7 -42.57, -4.42 -54.19, -0.46 -61.68 M-12.55 -32.14 C-9.37 -43.19, -4.86 -53.35, -1.21 -60.31" stroke="#000000" stroke-width="1" fill="none"></path></g></g><mask></mask><g transform="translate(810 730) rotate(0 126.75653839111328 35)"><text x="0" y="0" font-family="Virgil, Segoe UI Emoji" font-size="28px" fill="#000000" text-anchor="start" style="white-space: pre;" direction="ltr" dominant-baseline="text-before-edge">Features released</text><text x="0" y="35" font-family="Virgil, Segoe UI Emoji" font-size="28px" fill="#000000" text-anchor="start" style="white-space: pre;" direction="ltr" dominant-baseline="text-before-edge">for large audience</text></g><g stroke-linecap="round"><g transform="translate(873.3561223246857 729.0000000000001) rotate(0 -5.945652787801237 -89.54933811165398)"><path d="M-1.81 0.53 C-3.43 -45.87, -5.58 -89.91, -10.67 -179.63 M-0.45 -0.52 C-4.74 -71.04, -10.36 -142.09, -11.44 -177.06" stroke="#000000" stroke-width="1" fill="none"></path></g><g transform="translate(873.3561223246857 729.0000000000001) rotate(0 -5.945652787801237 -89.54933811165398)"><path d="M-1.58 -148.89 C-3.02 -156.58, -5.34 -161.9, -11.12 -178.69 M-0.21 -149.94 C-3.98 -160.5, -9.87 -171.57, -11.89 -176.12" stroke="#000000" stroke-width="1" fill="none"></path></g><g transform="translate(873.3561223246857 729.0000000000001) rotate(0 -5.945652787801237 -89.54933811165398)"><path d="M-22.07 -147.85 C-18.24 -155.86, -15.28 -161.45, -11.12 -178.69 M-20.71 -148.9 C-16.3 -159.72, -14.02 -171.2, -11.89 -176.12" stroke="#000000" stroke-width="1" fill="none"></path></g></g><mask></mask><g stroke-linecap="round"><g transform="translate(896.0919733516234 729) rotate(0 5.011539174440713 -78.94654248189181)"><path d="M-0.25 -0.3 C0.26 -37.84, 4.53 -75.41, 8.77 -157.87 M-0.28 0.07 C2.43 -43.43, 5.5 -88.49, 10.3 -157.96" stroke="#000000" stroke-width="1" fill="none"></path></g><g transform="translate(896.0919733516234 729) rotate(0 5.011539174440713 -78.94654248189181)"><path d="M18.35 -129.43 C15.26 -136.62, 15.28 -143.69, 9.37 -157.83 M18.33 -129.06 C16.49 -136.68, 14.56 -145.87, 10.9 -157.92" stroke="#000000" stroke-width="1" fill="none"></path></g><g transform="translate(896.0919733516234 729) rotate(0 5.011539174440713 -78.94654248189181)"><path d="M-2.12 -130.84 C-0.37 -137.54, 4.47 -144.28, 9.37 -157.83 M-2.15 -130.47 C1.71 -137.7, 5.47 -146.5, 10.9 -157.92" stroke="#000000" stroke-width="1" fill="none"></path></g></g><mask></mask><g stroke-linecap="round"><g transform="translate(989.4764082238744 591.5344195934167) rotate(0 -119.57863392059039 -1.1981912920909963)"><path d="M0.32 -0.86 C-50.59 -1.51, -102.37 -1.68, -239.48 -1.42" stroke="#000000" stroke-width="1.5" fill="none" stroke-dasharray="8 9"></path></g></g><mask></mask><g stroke-linecap="round" transform="translate(950 610) rotate(0 10 20)"><path d="M0.35 -0.59 L19.37 0.45 L18.36 41.05 L0.65 41.28" stroke="none" stroke-width="0" fill="#7950f2"></path><path d="M-1.99 0.65 C6.18 -0.33, 13.06 1.22, 20.14 0.4 M0.42 0.1 C7.43 0.13, 12.75 -0.41, 19.13 0.45 M20.38 0.33 C18.68 12.65, 18.43 23.33, 20.37 38.5 M20.44 -0.42 C20.09 7.61, 20.05 16.67, 19.82 40.06 M19.82 41.76 C13.59 39.23, 8.79 39.74, 1.16 40.81 M19.24 39.66 C13.89 40.1, 5.58 39.41, 0.15 39.69 M-1.78 41.08 C1.43 32.56, 1.35 23.68, -1.35 -1.63 M-0.36 40.81 C-1.22 31.64, -1.17 24.33, -0.54 0.49" stroke="#000000" stroke-width="1" fill="none"></path></g><g stroke-linecap="round" transform="translate(890 610) rotate(0 20 20)"><path d="M-1.74 -0.88 L40.13 0.23 L41.73 40.78 L0.61 38.64" stroke="none" stroke-width="0" fill="yellow"></path><path d="M-0.33 1.16 C12.74 0.51, 23.99 -0.71, 38.48 -0.68 M-0.55 0.15 C14.54 -0.52, 29.45 1.2, 39.11 0.54 M41 -1.35 C38.61 12.79, 41.98 31.26, 39.27 41.62 M40.84 -0.54 C40.45 8.69, 39.66 16.73, 40.23 39.18 M39.84 40.02 C25.01 40.95, 12.36 39.15, 0.46 40.11 M39.53 40.28 C30.91 41.03, 22.07 39.93, -0.03 40.52 M-0.12 39.07 C1.35 25.36, 0.37 14.44, 0.14 -0.49 M-0.65 40.11 C1.26 31.2, 0.32 23.58, -0.91 0.68" stroke="#000000" stroke-width="1" fill="none"></path></g><g stroke-linecap="round" transform="translate(310 630) rotate(0 10 10)"><path d="M1.06 -1.38 L18.76 0.87 L20.46 18.78 L0.61 18.78" stroke="none" stroke-width="0" fill="#fa5252"></path><path d="M-1.97 -0.2 C4.63 -1.75, 10.36 0.52, 18.57 -0.78 M-0.71 0.72 C4.17 0.25, 8.61 0.42, 19.47 -0.71 M20.17 -1.81 C21.07 6.62, 19.08 12.1, 19.3 19.35 M21 -0.91 C20.21 4.95, 20.31 11.97, 20.04 20.66 M20.23 20.81 C13.62 20.43, 10.01 19.14, -1.37 18.33 M20.01 20.87 C13.03 19.94, 7.54 20.61, 0.36 20.87 M0.3 19.22 C-0.85 12.12, -0.57 8.05, 1.8 0.72 M-0.39 20.56 C-0.75 15.33, 0.08 9.49, 0.22 -0.41" stroke="#000000" stroke-width="1" fill="none"></path></g></svg>