<svg version="1.1" xmlns="http://www.w3.org/2000/svg" viewBox="0 0 277.08196286617 260.9196390710473" width="277.08196286617" height="260.9196390710473">
  <!-- svg-source:excalidraw -->
  
  <defs>
    <style>
      @font-face {
        font-family: "Virgil";
        src: url("https://excalidraw.com/Virgil.woff2");
      }
      @font-face {
        font-family: "Cascadia";
        src: url("https://excalidraw.com/Cascadia.woff2");
      }
    </style>
  </defs>
  <rect x="0" y="0" width="277.08196286617" height="260.9196390710473" fill="#ffffff"></rect><g stroke-linecap="round" transform="translate(10 10) rotate(0 127.7833725051886 29.799284497257418)"><path d="M0 0 C0 0, 0 0, 0 0 M0 0 C0 0, 0 0, 0 0 M0.13 12.04 C4.2 7.37, 8.26 2.69, 10.63 -0.03 M0.13 12.04 C4.09 7.49, 8.04 2.94, 10.63 -0.03 M0.27 24.08 C5.17 18.44, 10.08 12.8, 21.26 -0.07 M0.27 24.08 C5.16 18.45, 10.05 12.82, 21.26 -0.07 M-0.26 36.88 C7.82 27.59, 15.9 18.29, 31.89 -0.1 M-0.26 36.88 C9.1 26.11, 18.46 15.35, 31.89 -0.1 M-0.12 48.92 C11.67 35.35, 23.47 21.78, 42.52 -0.14 M-0.12 48.92 C15.53 30.91, 31.19 12.9, 42.52 -0.14 M0.67 60.2 C12.79 46.26, 24.91 32.31, 53.15 -0.17 M0.67 60.2 C19.64 38.38, 38.61 16.56, 53.15 -0.17 M11.3 60.17 C26.15 43.08, 41.01 25.99, 63.78 -0.21 M11.3 60.17 C26.83 42.3, 42.36 24.43, 63.78 -0.21 M21.93 60.14 C33.01 47.39, 44.09 34.64, 74.41 -0.24 M21.93 60.14 C40.37 38.92, 58.81 17.7, 74.41 -0.24 M32.56 60.1 C51.76 38.01, 70.96 15.92, 85.04 -0.28 M32.56 60.1 C48.57 41.68, 64.58 23.26, 85.04 -0.28 M43.19 60.07 C55.4 46.01, 67.62 31.96, 95.67 -0.31 M43.19 60.07 C62.52 37.83, 81.85 15.59, 95.67 -0.31 M53.82 60.03 C74.52 36.22, 95.22 12.41, 106.3 -0.34 M53.82 60.03 C65.56 46.52, 77.3 33.01, 106.3 -0.34 M64.45 60 C79.65 42.51, 94.85 25.03, 116.27 0.38 M64.45 60 C78.09 44.31, 91.73 28.61, 116.27 0.38 M75.08 59.96 C95.5 36.47, 115.92 12.97, 126.91 0.34 M75.08 59.96 C86.73 46.56, 98.38 33.15, 126.91 0.34 M85.71 59.93 C103.65 39.28, 121.6 18.64, 137.54 0.31 M85.71 59.93 C97.67 46.16, 109.64 32.39, 137.54 0.31 M96.34 59.89 C114.3 39.23, 132.26 18.56, 148.17 0.27 M96.34 59.89 C108 46.47, 119.67 33.05, 148.17 0.27 M106.97 59.86 C122.6 41.88, 138.23 23.9, 158.8 0.24 M106.97 59.86 C117.85 47.34, 128.74 34.82, 158.8 0.24 M117.6 59.82 C137.81 36.57, 158.02 13.32, 169.43 0.2 M117.6 59.82 C132.36 42.84, 147.13 25.85, 169.43 0.2 M127.57 60.55 C139.4 46.94, 151.23 33.33, 180.06 0.17 M127.57 60.55 C142.42 43.47, 157.26 26.39, 180.06 0.17 M138.2 60.51 C149.67 47.32, 161.14 34.12, 190.69 0.13 M138.2 60.51 C149.15 47.92, 160.09 35.33, 190.69 0.13 M148.83 60.48 C166.68 39.95, 184.52 19.42, 201.32 0.1 M148.83 60.48 C163.29 43.84, 177.75 27.21, 201.32 0.1 M159.46 60.44 C174.29 43.38, 189.13 26.31, 211.95 0.06 M159.46 60.44 C177.51 39.68, 195.56 18.92, 211.95 0.06 M170.09 60.41 C181.85 46.88, 193.61 33.35, 222.58 0.03 M170.09 60.41 C188.87 38.81, 207.64 17.21, 222.58 0.03 M180.72 60.37 C201.14 36.88, 221.56 13.39, 233.21 0 M180.72 60.37 C200.81 37.27, 220.89 14.16, 233.21 0 M191.35 60.34 C202.5 47.52, 213.64 34.69, 243.84 -0.04 M191.35 60.34 C204.12 45.65, 216.88 30.97, 243.84 -0.04 M201.98 60.3 C217.77 42.14, 233.56 23.98, 254.47 -0.07 M201.98 60.3 C220.9 38.55, 239.81 16.79, 254.47 -0.07 M212.61 60.27 C231.84 38.15, 251.08 16.02, 261.16 4.42 M212.61 60.27 C231.51 38.53, 250.4 16.8, 261.16 4.42 M223.24 60.23 C235.85 45.73, 248.46 31.22, 260.64 17.22 M223.24 60.23 C232.82 49.22, 242.4 38.2, 260.64 17.22 M233.87 60.2 C239.86 53.31, 245.85 46.42, 260.77 29.26 M233.87 60.2 C244.54 47.92, 255.22 35.65, 260.77 29.26 M244.5 60.17 C250.63 53.12, 256.76 46.07, 260.9 41.3 M244.5 60.17 C250.95 52.75, 257.39 45.34, 260.9 41.3" stroke="#15aabf" stroke-width="1" fill="none"></path><path d="M0 0 C76.42 0, 152.85 0, 255.57 0 M0 0 C77.16 0, 154.33 0, 255.57 0 M255.57 0 C255.57 14.72, 255.57 29.44, 255.57 59.6 M255.57 0 C255.57 16.73, 255.57 33.45, 255.57 59.6 M255.57 59.6 C161.73 59.6, 67.89 59.6, 0 59.6 M255.57 59.6 C172.1 59.6, 88.64 59.6, 0 59.6 M0 59.6 C0 41.14, 0 22.68, 0 0 M0 59.6 C0 35.84, 0 12.08, 0 0" stroke="#000000" stroke-width="2" fill="none"></path></g><g transform="translate(74.2833725051886 22.299284497257418) rotate(0 63.5 17.5)"><text x="63.5" y="25" font-family="Virgil, Segoe UI Emoji" font-size="28px" fill="#000000" text-anchor="middle" style="white-space: pre;" direction="ltr">Adapters</text></g><g stroke-linecap="round" transform="translate(10.515217855792685 71.18480351067373) rotate(0 127.7833725051886 29.799284497257418)"><path d="M0 0 C0 0, 0 0, 0 0 M0 0 C0 0, 0 0, 0 0 M-0.19 12.88 C1.09 9.57, 6.18 6.46, 9.63 -0.48 M-0.18 12.74 C3.96 7.39, 6.52 4.56, 10.54 0.76 M-0.72 25.62 C9.02 14.26, 15.24 4.88, 22.32 1.83 M0.47 23.42 C4.22 18.52, 10.79 13.06, 20.6 0.39 M-0.98 35.54 C6.74 28.57, 13.67 19.99, 33.23 -1.59 M-0.26 36.39 C6.92 29.75, 13.97 21.55, 32.03 -0.96 M-1.25 48.74 C12.4 34.35, 28.71 15.34, 42.09 0.15 M-0.2 48.68 C13.25 34.41, 26.54 18.42, 42.16 -0.73 M0.11 61.55 C16.35 42.37, 34.85 19.66, 53.33 1.77 M-0.33 59.51 C13.02 45.36, 26.41 30.95, 53.82 -1.06 M12.39 61.4 C26.13 40.88, 44.25 25.03, 63.05 -1.63 M11.99 60 C22.4 47.73, 33.62 34.34, 63.66 -1.03 M23.57 60.05 C33.26 46.54, 45.73 30.87, 74.32 -1.74 M21.25 59.25 C34.18 46.04, 47.26 30.96, 74.56 -0.96 M32.38 61.13 C45.95 45.47, 54.35 31.94, 84.38 -0.32 M32.98 60.76 C51.71 38.21, 70.87 17.08, 85.98 -0.85 M41.78 60.17 C62.55 37.17, 83.53 12.34, 95.95 -0.46 M42.29 59.39 C61.41 38.72, 81.58 16.96, 96.36 -0.71 M54.14 61.4 C64.64 46.27, 72.68 35.23, 104.41 -1.83 M54.27 60.98 C72.36 39.34, 91.22 15.55, 105.46 -0.96 M62.55 58.47 C75.17 49.2, 87.13 34.82, 116.46 0.87 M64.35 59.93 C82.12 39.73, 100.94 17.8, 116.1 -0.05 M74.04 59.23 C87.52 47.72, 99.16 31.64, 127.93 -0.44 M74.67 60.9 C94.29 38.33, 114.24 14.65, 127.18 0.17 M84.83 58.43 C96.65 45.48, 106.45 31.47, 139.16 2.14 M86.45 60.39 C100.52 41.94, 115.19 24.46, 138.08 0.58 M95.6 58.51 C109.23 42.24, 124.46 24.79, 148.82 2.17 M96.4 60.36 C112.01 41, 128.08 21.65, 147.67 -0.61 M106.7 58.36 C123.85 40, 139.85 22.71, 160.54 0.39 M107.04 59.88 C117.94 46.52, 130.19 33.8, 158.05 0.56 M117.45 58.03 C130.43 43.31, 146.02 27.14, 170.13 1.47 M117.13 60.72 C130.39 44.5, 142.6 30.71, 168.9 -0.64 M128.69 60.24 C147.12 40.43, 164.72 21.47, 180.85 -1.25 M127.34 59.8 C144.97 40.26, 161.63 20.43, 179.87 0.08 M136.7 60.17 C152.34 48.28, 161.5 34.14, 190.67 -0.97 M137.3 59.7 C159.61 36.51, 179.59 12.61, 190.95 -0.44 M148.45 58.65 C162.48 46.73, 174.86 33.2, 199.48 -0.75 M148 60.88 C168.32 37.67, 187.72 13.85, 200.84 0.89 M159.53 59.95 C178.92 39.27, 198.48 13.85, 212.39 -0.68 M158.78 60.27 C177.42 38.64, 196.23 19.38, 211.33 1.01 M168.75 61.28 C187.3 39.61, 204.18 18.57, 222.94 -1.21 M169.11 59.65 C184.32 42.47, 198.84 26.9, 221.67 0.32 M181.32 61.53 C190.91 48.95, 203.31 31.9, 232.37 1.67 M180.88 61.26 C193.01 47.47, 204.77 33.91, 232.98 0.33 M192.17 61.99 C206.78 43.11, 223.74 25.42, 244.87 1.13 M190.87 59.46 C207.06 43.06, 221.72 25.77, 244.55 -0.75 M201.19 59.17 C216.01 44.48, 230.7 27.66, 254.81 0.29 M201.03 60.31 C219.25 39.24, 237.16 19.53, 254.29 -0.34 M212.42 61.48 C226.71 40.04, 244.46 25, 262.08 5.45 M212.92 61.23 C223.75 47.4, 235.95 34.07, 261.13 4.64 M221.39 62.02 C236.21 43.93, 249.91 29.11, 259.92 17.62 M224.07 60.61 C236.44 44.83, 249.82 31.08, 259.99 18.1 M234.31 59.32 C242.13 49.61, 252.84 37.31, 260.68 29.13 M234.34 59.43 C242.46 50.74, 250.54 39.97, 260.68 28.35 M243.33 62.1 C249.19 54.64, 252.21 53.58, 259.36 43.06 M244.3 60.9 C248.84 55.84, 252.17 50.33, 260.54 40.36" stroke="#82c91e" stroke-width="1" fill="none"></path><path d="M-0.67 -0.15 C101.98 0.34, 203.19 -0.21, 255.14 0.88 M-0.29 -0.01 C80.23 2.29, 159.69 1.28, 256.19 -0.52 M254.54 0.04 C256.2 23.91, 257.3 45.7, 254.97 61.29 M254.67 -0.53 C256.43 18.18, 255.29 37.07, 256.34 60.08 M256.76 59.29 C153.37 58.4, 53.74 58.79, -1.3 58.24 M255.07 60.14 C185.1 58.15, 113.95 57.74, 0.16 59.75 M1.93 60.13 C-1.29 39.4, -0.11 19.55, -1.1 -1.16 M0.59 59.7 C0.11 39.76, 0.12 20.01, 0.7 -0.14" stroke="#000000" stroke-width="2" fill="none"></path></g><g transform="translate(98.79859036098128 83.48408800793115) rotate(0 39.5 17.5)"><text x="39.5" y="25" font-family="Virgil, Segoe UI Emoji" font-size="28px" fill="#000000" text-anchor="middle" style="white-space: pre;" direction="ltr">Ports</text></g><g stroke-linecap="round" transform="translate(11.423910721036236 130.12393208750274) rotate(0 127.7833725051886 29.799284497257418)"><path d="M0 0 C0 0, 0 0, 0 0 M0 0 C0 0, 0 0, 0 0 M1.39 10.28 C0.99 9.67, 6.88 7.4, 12.51 0.28 M-1.11 13.16 C3.54 7.84, 6.8 4.47, 9.44 1.54 M-1.61 23.37 C4.7 14.56, 13.64 10.32, 17.39 3.82 M1.31 23.14 C6.15 16.17, 12.94 10.57, 20.85 0.98 M-1 34.38 C5.68 29.14, 11.91 18.64, 30.34 3.38 M0.67 36.66 C13.45 26.44, 21.06 11.18, 30.9 1.43 M-0.92 51.03 C17.5 30.88, 24.61 19.33, 43.32 -2.79 M-0.52 47.6 C9.91 36.24, 16.93 28.69, 41.8 -1.48 M0.7 62.88 C12.1 40.38, 31.72 29.93, 53.14 -2.12 M1.96 60.48 C16.29 38.7, 38.47 16.59, 52.02 -0.35 M8.52 59.32 C24.07 44.9, 39 29.3, 63.49 -1.14 M11.43 59.45 C26.93 39.84, 45.98 18.6, 63.22 1.14 M19 60.5 C37.13 43.64, 45.88 27.72, 70.42 -3 M21.42 61.47 C34.35 44.43, 48.41 30.41, 75.51 0.99 M34.8 58.64 C43.07 41.03, 61.74 31.2, 87.82 -0.95 M31.72 59.86 C49.35 36.08, 68.97 17.61, 86.69 -0.36 M40.46 59.88 C53.33 42.2, 70.65 27.66, 92.97 -3.87 M41.8 60.37 C56.94 40.56, 75.19 22.64, 95.5 0.72 M51.87 58.72 C75.09 39.65, 95.98 11.69, 107.98 2.29 M54.12 61.92 C70.58 41.16, 90.08 17.41, 104.89 -0.24 M61.77 60.56 C77.77 46.94, 93.28 25.06, 112.68 -2.31 M65.29 61.38 C75.51 43.73, 90.24 30.74, 116.6 1.74 M73.27 56.19 C91.09 42.85, 112.54 17.78, 128.72 4.12 M73.4 58.27 C85.92 43.53, 102.18 31.86, 125.01 -1.18 M85.34 60.29 C102.6 41.49, 116.85 18.04, 137.15 0.04 M85.21 59.58 C94.87 46.66, 104.81 34.94, 136.5 -0.43 M94.29 61.94 C109.57 45.26, 127.75 22.61, 146.53 4.03 M95.45 60.45 C109.53 41.66, 125.05 27.65, 147.29 -1.23 M103.33 63.11 C126.05 43.44, 137.31 29.78, 161.77 2.09 M106.01 60.95 C122.34 43.49, 137.19 28.94, 158.06 -1.14 M115.98 61.14 C133.11 47.68, 144.45 37.07, 169.67 2.07 M117.27 58.84 C130.14 43.75, 147.11 25.19, 169.16 -1.3 M129.01 64.03 C145.42 37.81, 160.52 21.22, 180.34 0.23 M126.61 59.06 C142.58 43.43, 154.06 28.38, 179.91 -1.63 M136.48 61.91 C153.01 44.48, 162.75 31.8, 188.8 3.73 M138.34 59.47 C153.73 42.94, 169.9 24.75, 191.81 -0.17 M151.36 62.06 C165.88 37.55, 187.03 12.46, 200.4 -2.89 M147.01 60.11 C165.53 41.13, 180.73 22.37, 199.81 -0.24 M161.63 60.4 C176.71 41.59, 196.26 16.01, 208.35 -3.19 M159.24 60.97 C175.56 39.64, 192.75 21.95, 211.56 -1.76 M171.14 56.74 C187.37 40.57, 210.36 18.58, 219.24 1.63 M168.38 59.45 C187.59 43.38, 204.12 22.98, 222.65 -0.46 M177.08 61.26 C195.65 42.03, 211.69 22.36, 230.49 -0.7 M181.69 59.13 C197.43 44.68, 211.12 29.55, 231.86 0.87 M187.52 61.07 C206.5 39.4, 228.72 24.05, 239.9 -3.08 M191.66 58.53 C209.66 39.42, 226.99 20.23, 244.43 1.12 M198.87 58.63 C216.56 43.63, 228.11 28.88, 255.12 3.49 M203.21 59.84 C221.65 37.14, 238.83 16.04, 255.29 1.58 M213.41 62.33 C228.49 43.2, 237.51 25.91, 259.23 0.92 M212.94 61.69 C226.42 42.71, 241.74 25.2, 260.36 3.28 M224.79 60.91 C233.05 51.51, 245.36 35.94, 256.83 17.25 M224.42 59.88 C233.17 49.57, 241.9 39.6, 260.45 18.42 M235.49 62.04 C242.08 51.4, 244.59 47.02, 262.02 33.1 M235.41 60.13 C240.03 54.38, 244.38 45.01, 258.92 31.04 M242.38 58.74 C250.1 56.79, 251.12 46.53, 264.23 42.79 M245.09 58.88 C251.46 55.67, 253.24 48.52, 261.34 40.42" stroke="#fab005" stroke-width="1" fill="none"></path><path d="M1.97 0.3 C71.07 5.28, 143.42 5.08, 254.45 0.16 M-0.81 0.21 C83.56 -0.83, 167.44 -1.02, 254.37 1.1 M255.09 2.03 C256.33 23.41, 259.79 44.33, 258.6 62.91 M254.58 -0.48 C252.78 18.55, 254.36 33.22, 254.73 59.41 M255.1 58.74 C169.88 61.49, 79.7 58.76, -1.15 59.57 M255.11 60.86 C158.67 62.9, 63.18 61.75, -0.83 59.63 M3.55 58.41 C2.22 39.35, -0.85 15.95, -3.61 -2.12 M1.04 61.15 C1.08 38.79, -1.68 14.18, 1.48 -0.39" stroke="#000000" stroke-width="2" fill="none"></path></g><g transform="translate(49.70728322622483 142.42321658476016) rotate(0 89.5 17.5)"><text x="89.5" y="25" font-family="Virgil, Segoe UI Emoji" font-size="28px" fill="#000000" text-anchor="middle" style="white-space: pre;" direction="ltr">App. Services</text></g><g stroke-linecap="round" transform="translate(11.515217855792798 191.3210700765324) rotate(0 127.7833725051886 29.799284497257432)"><path d="M0 0 C0 0, 0 0, 0 0 M0 0 C0 0, 0 0, 0 0 M0.13 12.04 C2.79 8.98, 5.45 5.93, 10.63 -0.03 M0.13 12.04 C3.83 7.79, 7.53 3.54, 10.63 -0.03 M0.27 24.08 C6.18 17.28, 12.09 10.48, 21.26 -0.07 M0.27 24.08 C7.53 15.72, 14.8 7.36, 21.26 -0.07 M-0.26 36.88 C8.75 26.52, 17.75 16.17, 31.89 -0.1 M-0.26 36.88 C8.75 26.52, 17.75 16.16, 31.89 -0.1 M-0.12 48.92 C12.71 34.15, 25.55 19.39, 42.52 -0.14 M-0.12 48.92 C15.42 31.04, 30.96 13.16, 42.52 -0.14 M0.67 60.2 C12.77 46.28, 24.88 32.35, 53.15 -0.17 M0.67 60.2 C16.77 41.67, 32.88 23.14, 53.15 -0.17 M11.3 60.17 C23.2 46.48, 35.1 32.78, 63.78 -0.21 M11.3 60.17 C25.72 43.57, 40.15 26.98, 63.78 -0.21 M21.93 60.14 C40.62 38.63, 59.31 17.13, 74.41 -0.24 M21.93 60.14 C35.47 44.56, 49.01 28.98, 74.41 -0.24 M32.56 60.1 C44.73 46.1, 56.9 32.09, 85.04 -0.28 M32.56 60.1 C44.67 46.16, 56.79 32.23, 85.04 -0.28 M43.19 60.07 C56.38 44.89, 69.57 29.71, 95.67 -0.31 M43.19 60.07 C59.72 41.04, 76.26 22.02, 95.67 -0.31 M53.82 60.03 C66.05 45.96, 78.28 31.88, 106.3 -0.34 M53.82 60.03 C71.78 39.37, 89.74 18.7, 106.3 -0.34 M64.45 60 C77.65 44.8, 90.86 29.61, 116.27 0.38 M64.45 60 C75.65 47.11, 86.85 34.22, 116.27 0.38 M75.08 59.96 C90.14 42.63, 105.21 25.29, 126.91 0.34 M75.08 59.96 C89.34 43.55, 103.61 27.14, 126.91 0.34 M85.71 59.93 C98.61 45.09, 111.51 30.25, 137.54 0.31 M85.71 59.93 C98.95 44.7, 112.19 29.47, 137.54 0.31 M96.34 59.89 C107.17 47.43, 118 34.97, 148.17 0.27 M96.34 59.89 C109.41 44.85, 122.48 29.82, 148.17 0.27 M106.97 59.86 C120.42 44.38, 133.88 28.9, 158.8 0.24 M106.97 59.86 C121.66 42.96, 136.35 26.06, 158.8 0.24 M117.6 59.82 C135.01 39.8, 152.42 19.77, 169.43 0.2 M117.6 59.82 C130.65 44.81, 143.69 29.8, 169.43 0.2 M127.57 60.55 C141.06 45.03, 154.54 29.52, 180.06 0.17 M127.57 60.55 C143.68 42.01, 159.79 23.48, 180.06 0.17 M138.2 60.51 C157.26 38.58, 176.32 16.66, 190.69 0.13 M138.2 60.51 C149.16 47.91, 160.11 35.31, 190.69 0.13 M148.83 60.48 C167.42 39.09, 186.02 17.7, 201.32 0.1 M148.83 60.48 C163.99 43.03, 179.16 25.59, 201.32 0.1 M159.46 60.44 C176.58 40.75, 193.7 21.06, 211.95 0.06 M159.46 60.44 C170.7 47.51, 181.95 34.58, 211.95 0.06 M170.09 60.41 C181.06 47.79, 192.03 35.17, 222.58 0.03 M170.09 60.41 C188.38 39.36, 206.68 18.32, 222.58 0.03 M180.72 60.37 C191.43 48.05, 202.15 35.72, 233.21 0 M180.72 60.37 C197.28 41.32, 213.85 22.26, 233.21 0 M191.35 60.34 C203.01 46.93, 214.67 33.51, 243.84 -0.04 M191.35 60.34 C210.32 38.52, 229.28 16.71, 243.84 -0.04 M201.98 60.3 C218.78 40.98, 235.57 21.66, 254.47 -0.07 M201.98 60.3 C218.59 41.2, 235.2 22.09, 254.47 -0.07 M212.61 60.27 C229.05 41.36, 245.49 22.45, 261.16 4.42 M212.61 60.27 C230.04 40.22, 247.47 20.17, 261.16 4.42 M223.24 60.23 C235.97 45.59, 248.71 30.94, 260.64 17.22 M223.24 60.23 C237.33 44.03, 251.42 27.82, 260.64 17.22 M233.87 60.2 C240.51 52.56, 247.16 44.92, 260.77 29.26 M233.87 60.2 C242.74 50, 251.61 39.8, 260.77 29.26 M244.5 60.17 C249.03 54.96, 253.56 49.75, 260.9 41.3 M244.5 60.17 C247.99 56.16, 251.47 52.15, 260.9 41.3" stroke="#fab005" stroke-width="1" fill="none"></path><path d="M0 0 C73.64 0, 147.29 0, 255.57 0 M0 0 C64.05 0, 128.1 0, 255.57 0 M255.57 0 C255.57 17.01, 255.57 34.02, 255.57 59.6 M255.57 0 C255.57 16.19, 255.57 32.39, 255.57 59.6 M255.57 59.6 C156.23 59.6, 56.89 59.6, 0 59.6 M255.57 59.6 C165.56 59.6, 75.55 59.6, 0 59.6 M0 59.6 C0 45.12, 0 30.65, 0 0 M0 59.6 C0 44.48, 0 29.37, 0 0" stroke="#000000" stroke-width="2" fill="none"></path></g><g transform="translate(91.7985903609814 203.62035457378983) rotate(0 47.5 17.5)"><text x="47.5" y="25" font-family="Virgil, Segoe UI Emoji" font-size="28px" fill="#000000" text-anchor="middle" style="white-space: pre;" direction="ltr">Domain</text></g><g stroke-linecap="round"><g transform="translate(239.30296884330266 30.202904743903275) rotate(0 1.158050731467938 97.86431720313853)"><path d="M-2.5 -0.35 C-1.79 32.53, 4.37 162.48, 4.81 195.41 M1.34 -3.01 C1.88 30.47, 3.32 166.17, 4.09 198.74" stroke="#000000" stroke-width="4" fill="none"></path></g><g transform="translate(239.30296884330266 30.202904743903275) rotate(0 1.158050731467938 97.86431720313853)"><path d="M-7.13 174.71 C-4.36 177.23, 1.7 185.87, 2 201.35 M-6.38 169.94 C-4.15 179.5, -2.83 183.82, 5.13 200.14" stroke="#000000" stroke-width="4" fill="none"></path></g><g transform="translate(239.30296884330266 30.202904743903275) rotate(0 1.158050731467938 97.86431720313853)"><path d="M13.39 174.38 C9.59 176.64, 9.08 185.38, 2 201.35 M14.14 169.61 C10.95 179.17, 6.85 183.57, 5.13 200.14" stroke="#000000" stroke-width="4" fill="none"></path></g></g><g stroke-linecap="round"><g transform="translate(38.166596858777496 31.322675548695926) rotate(0 2.2253551525135435 98.16690639672103)"><path d="M-0.73 -0.64 C-0.86 32.24, -0.18 163.51, -0.07 196.09 M4.07 -3.46 C4.75 30.02, 4.94 166.32, 5.2 199.79" stroke="#000000" stroke-width="4" fill="none"></path></g><g transform="translate(38.166596858777496 31.322675548695926) rotate(0 2.2253551525135435 98.16690639672103)"><path d="M-6.1 168.66 C-1.86 177.87, -0.23 186.39, 4.47 199.42 M-6.69 171.3 C-1.35 179.6, -1.92 185.93, 5.18 198.69" stroke="#000000" stroke-width="4" fill="none"></path></g><g transform="translate(38.166596858777496 31.322675548695926) rotate(0 2.2253551525135435 98.16690639672103)"><path d="M14.42 168.57 C11.98 177.7, 6.93 186.25, 4.47 199.42 M13.83 171.21 C14.43 179.18, 9.12 185.52, 5.18 198.69" stroke="#000000" stroke-width="4" fill="none"></path></g></g></svg>