<?xml version="1.0" encoding="UTF-8" standalone="no"?>
<!-- Created with Inkscape (http://www.inkscape.org/) -->

<svg
   version="1.0"
   id="svg2"
   sodipodi:version="0.32"
   inkscape:version="1.2.2 (b0a8486541, 2022-12-01)"
   sodipodi:docname="hexagonal-python-3.svg"
   width="201.4913pt"
   height="174.49658pt"
   inkscape:export-filename="python-logo-inkscape2.svg"
   inkscape:export-xdpi="120"
   inkscape:export-ydpi="120"
   xmlns:inkscape="http://www.inkscape.org/namespaces/inkscape"
   xmlns:sodipodi="http://sodipodi.sourceforge.net/DTD/sodipodi-0.dtd"
   xmlns:xlink="http://www.w3.org/1999/xlink"
   xmlns="http://www.w3.org/2000/svg"
   xmlns:svg="http://www.w3.org/2000/svg"
   xmlns:rdf="http://www.w3.org/1999/02/22-rdf-syntax-ns#"
   xmlns:cc="http://creativecommons.org/ns#"
   xmlns:dc="http://purl.org/dc/elements/1.1/">
  <metadata
     id="metadata371">
    <rdf:RDF>
      <cc:Work
         rdf:about="">
        <dc:format>image/svg+xml</dc:format>
        <dc:type
           rdf:resource="http://purl.org/dc/dcmitype/StillImage" />
      </cc:Work>
    </rdf:RDF>
  </metadata>
  <sodipodi:namedview
     inkscape:window-height="1131"
     inkscape:window-width="1920"
     inkscape:pageshadow="2"
     inkscape:pageopacity="0.0"
     guidetolerance="10.0"
     gridtolerance="10.0"
     objecttolerance="10.0"
     borderopacity="1.0"
     bordercolor="#666666"
     pagecolor="#ffffff"
     id="base"
     inkscape:zoom="2.5069321"
     inkscape:cx="97.729012"
     inkscape:cy="88.155558"
     inkscape:window-x="0"
     inkscape:window-y="0"
     inkscape:current-layer="svg2"
     width="210mm"
     height="40mm"
     units="mm"
     inkscape:showpageshadow="2"
     inkscape:pagecheckerboard="0"
     inkscape:deskcolor="#d1d1d1"
     inkscape:document-units="pt"
     showgrid="true"
     inkscape:window-maximized="1">
    <inkscape:grid
       type="xygrid"
       id="grid1913"
       spacingx="10"
       spacingy="10"
       originx="-0.79737342"
       originy="-0.48147021" />
  </sodipodi:namedview>
  <defs
     id="defs4">
    <linearGradient
       inkscape:collect="always"
       id="linearGradient1053">
      <stop
         style="stop-color:#3773a3;stop-opacity:1;"
         offset="0"
         id="stop1049" />
      <stop
         style="stop-color:#ffe263;stop-opacity:1;"
         offset="1"
         id="stop1051" />
    </linearGradient>
    <linearGradient
       inkscape:collect="always"
       id="linearGradient1037">
      <stop
         style="stop-color:#ffe100;stop-opacity:1;"
         offset="0"
         id="stop1035" />
      <stop
         style="stop-color:#4584b6;stop-opacity:1;"
         offset="1"
         id="stop1033" />
    </linearGradient>
    <linearGradient
       id="linearGradient2795">
      <stop
         style="stop-color:#b8b8b8;stop-opacity:0.49803922;"
         offset="0"
         id="stop2797" />
      <stop
         style="stop-color:#7f7f7f;stop-opacity:0;"
         offset="1"
         id="stop2799" />
    </linearGradient>
    <linearGradient
       id="linearGradient4671">
      <stop
         style="stop-color:#ffd43b;stop-opacity:1;"
         offset="0"
         id="stop4673" />
      <stop
         style="stop-color:#ffe873;stop-opacity:1"
         offset="1"
         id="stop4675" />
    </linearGradient>
    <linearGradient
       id="linearGradient4689">
      <stop
         style="stop-color:#5a9fd4;stop-opacity:1;"
         offset="0"
         id="stop4691" />
      <stop
         style="stop-color:#306998;stop-opacity:1;"
         offset="1"
         id="stop4693" />
    </linearGradient>
    <linearGradient
       inkscape:collect="always"
       xlink:href="#linearGradient4689"
       id="linearGradient1478"
       gradientUnits="userSpaceOnUse"
       gradientTransform="matrix(0.562541,0,0,0.567972,59.424875,52.01235)"
       x1="26.648937"
       y1="20.603781"
       x2="135.66525"
       y2="114.39767" />
    <linearGradient
       inkscape:collect="always"
       xlink:href="#linearGradient1037"
       id="linearGradient1039"
       x1="-39.436251"
       y1="73.915588"
       x2="229.21881"
       y2="73.915588"
       gradientUnits="userSpaceOnUse" />
    <linearGradient
       inkscape:collect="always"
       xlink:href="#linearGradient1053"
       id="linearGradient1055"
       x1="-39.436251"
       y1="73.915588"
       x2="229.21881"
       y2="73.915588"
       gradientUnits="userSpaceOnUse" />
    <linearGradient
       inkscape:collect="always"
       xlink:href="#linearGradient4671"
       id="linearGradient1043"
       gradientUnits="userSpaceOnUse"
       gradientTransform="matrix(0.562541,0,0,0.567972,59.367546,52.004888)"
       x1="150.96111"
       y1="192.35176"
       x2="112.03144"
       y2="137.27299" />
  </defs>
  <path
     sodipodi:type="star"
     style="opacity:1;fill:url(#linearGradient1039);fill-opacity:1;stroke:url(#linearGradient1055);stroke-width:1.13333;stroke-miterlimit:4;stroke-dasharray:none;stroke-opacity:1"
     id="path1183"
     inkscape:flatsided="true"
     sodipodi:sides="6"
     sodipodi:cx="94.891281"
     sodipodi:cy="73.915588"
     sodipodi:r1="133.6729"
     sodipodi:r2="115.76412"
     sodipodi:arg1="1.0471976"
     sodipodi:arg2="1.5707963"
     inkscape:rounded="0"
     inkscape:randomized="0"
     d="m 161.72772,189.67972 -133.672893,-1e-5 -66.836443,-115.764128 66.836454,-115.764122 133.672902,7e-6 66.83644,115.764128 z"
     transform="rotate(60,77.876532,129.27612)"
     inkscape:label="path1183" />
  <path
     id="text691"
     style="font-style:normal;font-variant:normal;font-weight:normal;font-stretch:normal;font-size:192px;line-height:1.25;font-family:'Standard Symbols PS';-inkscape-font-specification:'Standard Symbols PS, Normal';font-variant-ligatures:normal;font-variant-caps:normal;font-variant-numeric:normal;font-variant-east-asian:normal;letter-spacing:0px;word-spacing:0px;fill:#000000;fill-opacity:1;stroke:none"
     d="M 170.89453 53.201172 L 170.89453 58.193359 L 171.4707 58.193359 C 177.6147 58.193359 182.99228 60.496535 185.48828 64.144531 C 187.79228 67.600528 188.36719 70.480854 188.36719 80.464844 L 188.36719 155.1543 C 188.36719 165.13829 187.79228 168.20866 185.48828 171.47266 C 182.99228 175.12065 177.6147 177.42578 171.4707 177.42578 L 170.89453 177.42578 L 170.89453 182.41797 L 225.42383 182.41797 L 225.42383 177.42578 L 224.84766 177.42578 C 218.51166 177.42578 213.32667 175.12065 210.63867 171.47266 C 208.52667 168.20866 207.95117 165.13829 207.95117 155.1543 L 207.95117 80.464844 C 207.95117 70.480854 208.52667 67.600528 210.63867 64.144531 C 213.32667 60.496535 218.51166 58.193359 224.84766 58.193359 L 225.42383 58.193359 L 225.42383 53.201172 L 170.89453 53.201172 z " />
  <path
     id="path1069"
     style="font-style:normal;font-variant:normal;font-weight:normal;font-stretch:normal;font-size:192px;line-height:1.25;font-family:'Standard Symbols PS';-inkscape-font-specification:'Standard Symbols PS, Normal';font-variant-ligatures:normal;font-variant-caps:normal;font-variant-numeric:normal;font-variant-east-asian:normal;letter-spacing:0px;word-spacing:0px;fill:#000000;fill-opacity:1;stroke:none"
     d="M 144.0332 157.12305 C 144.01585 157.12645 143.99776 157.12727 143.98047 157.13086 C 143.81702 157.16475 143.65539 157.20826 143.49805 157.25781 C 143.34071 157.30737 143.18748 157.36336 143.03711 157.42773 C 142.73636 157.55649 142.44939 157.71354 142.18164 157.89648 C 141.91389 158.07943 141.6654 158.28918 141.4375 158.51953 C 141.2096 158.74988 141.00347 159.00248 140.82227 159.27344 C 140.64106 159.5444 140.48312 159.83389 140.35547 160.13867 C 140.22781 160.44345 140.12975 160.76195 140.0625 161.09375 C 140.02887 161.25965 140.00357 161.42822 139.98633 161.59961 C 139.96909 161.771 139.95898 161.94507 139.95898 162.12109 C 139.95898 162.29774 139.96909 162.47244 139.98633 162.64453 C 140.00357 162.81662 140.02887 162.98762 140.0625 163.1543 C 140.12975 163.48764 140.22781 163.80876 140.35547 164.11523 C 140.48312 164.42171 140.64106 164.71364 140.82227 164.98633 C 141.00347 165.25902 141.2096 165.51215 141.4375 165.74414 C 141.6654 165.97613 141.91389 166.18673 142.18164 166.37109 C 142.44939 166.55546 142.73636 166.71392 143.03711 166.84375 C 143.18748 166.90866 143.34071 166.96564 143.49805 167.01562 C 143.65539 167.06561 143.81702 167.10839 143.98047 167.14258 C 144.14392 167.17677 144.30981 167.20318 144.47852 167.2207 C 144.6073 167.23408 144.73774 167.23701 144.86914 167.24023 C 144.30997 164.98917 144.07987 161.93905 144.0332 157.12305 z " />
  <path
     id="path1067"
     style="font-style:normal;font-variant:normal;font-weight:normal;font-stretch:normal;font-size:192px;line-height:1.25;font-family:'Standard Symbols PS';-inkscape-font-specification:'Standard Symbols PS, Normal';font-variant-ligatures:normal;font-variant-caps:normal;font-variant-numeric:normal;font-variant-east-asian:normal;letter-spacing:0px;word-spacing:0px;fill:#000000;fill-opacity:1;stroke:none"
     d="M 147.57031 172.50195 C 147.39558 172.58073 147.22371 172.66495 147.04688 172.74023 C 146.64161 172.91277 146.23237 173.07562 145.81836 173.23047 C 145.40435 173.38532 144.98595 173.53187 144.56641 173.66992 C 144.14686 173.80798 143.72462 173.93644 143.30273 174.05859 C 142.66805 174.24276 142.04139 174.41432 141.42188 174.57227 C 140.80236 174.73022 140.19143 174.87542 139.58594 175.00781 C 138.98044 175.14021 138.38169 175.25968 137.78906 175.36719 C 137.19643 175.47469 136.61022 175.57102 136.0293 175.6543 C 135.44838 175.73757 134.87115 175.80749 134.30078 175.86719 C 133.73042 175.92689 133.16643 175.97493 132.60547 176.01172 C 132.0445 176.04851 131.48827 176.0753 130.93555 176.08984 C 130.38283 176.10439 129.83274 176.10666 129.28711 176.09961 C 128.74148 176.09256 128.19985 176.07485 127.66016 176.04688 C 127.12047 176.0189 126.58374 175.98184 126.04883 175.93359 C 125.51392 175.88535 124.9805 175.82566 124.44922 175.75781 C 123.91794 175.68996 123.38818 175.61414 122.85938 175.52734 C 122.33057 175.44055 121.80288 175.34336 121.27539 175.23828 C 120.7479 175.1332 120.22068 175.01919 119.69336 174.89648 C 119.23876 174.7907 118.78145 174.65358 118.32617 174.53516 C 115.5235 176.36004 111.70809 177.42578 107.53516 177.42578 L 106.95898 177.42578 L 106.95898 182.41797 L 161.48828 182.41797 L 161.48828 177.42578 L 160.91211 177.42578 C 155.19661 177.42578 150.42444 175.54693 147.57031 172.50195 z " />
  <path
     id="path1065"
     style="font-style:normal;font-variant:normal;font-weight:normal;font-stretch:normal;font-size:192px;line-height:1.25;font-family:'Standard Symbols PS';-inkscape-font-specification:'Standard Symbols PS, Normal';font-variant-ligatures:normal;font-variant-caps:normal;font-variant-numeric:normal;font-variant-east-asian:normal;letter-spacing:0px;word-spacing:0px;fill:#000000;fill-opacity:1;stroke:none"
     d="M 144.01562 146.80859 L 129.92773 146.80859 L 129.92773 150.21484 L 144.01562 150.21484 L 144.01562 146.80859 z " />
  <path
     id="path1061"
     style="font-style:normal;font-variant:normal;font-weight:normal;font-stretch:normal;font-size:192px;line-height:1.25;font-family:'Standard Symbols PS';-inkscape-font-specification:'Standard Symbols PS, Normal';font-variant-ligatures:normal;font-variant-caps:normal;font-variant-numeric:normal;font-variant-east-asian:normal;letter-spacing:0px;word-spacing:0px;fill:#000000;fill-opacity:1;stroke:none"
     d="M 124.43164 92.523438 L 129.90039 92.523438 L 129.90039 89.117188 L 124.43164 89.117188 L 124.43164 92.523438 z " />
  <path
     id="path1466"
     style="font-style:normal;font-variant:normal;font-weight:normal;font-stretch:normal;font-size:192px;line-height:1.25;font-family:'Standard Symbols PS';-inkscape-font-specification:'Standard Symbols PS, Normal';font-variant-ligatures:normal;font-variant-caps:normal;font-variant-numeric:normal;font-variant-east-asian:normal;letter-spacing:0px;word-spacing:0px;fill:#000000;fill-opacity:1;stroke:none"
     d="M 144.01562 118.01758 C 143.76906 118.03122 143.52551 118.05469 143.27539 118.05469 L 124.43164 118.05469 L 124.43164 121.27734 L 143.30273 121.27734 C 143.54223 121.27734 143.77785 121.2513 144.01562 121.24023 L 144.01562 118.01758 z " />
  <path
     id="path1464"
     style="font-style:normal;font-variant:normal;font-weight:normal;font-stretch:normal;font-size:192px;line-height:1.25;font-family:'Standard Symbols PS';-inkscape-font-specification:'Standard Symbols PS, Normal';font-variant-ligatures:normal;font-variant-caps:normal;font-variant-numeric:normal;font-variant-east-asian:normal;letter-spacing:0px;word-spacing:0px;fill:#000000;fill-opacity:1;stroke:none"
     d="M 145.9043 65.599609 C 145.48405 65.464616 145.05712 65.343611 144.625 65.238281 C 144.18041 65.129912 143.73016 65.036732 143.27539 64.960938 C 142.1239 64.769255 140.9623 64.604987 139.79492 64.464844 C 138.62755 64.3247 137.45494 64.20927 136.2832 64.119141 C 135.11146 64.029011 133.93998 63.963515 132.77539 63.921875 C 131.6108 63.880235 130.45255 63.861863 129.30664 63.867188 C 128.16073 63.872512 127.02919 63.90088 125.91406 63.951172 C 124.79894 64.001464 123.70131 64.073224 122.62695 64.166016 C 122.2866 64.195411 121.96451 64.23994 121.62891 64.273438 C 123.8615 67.673096 124.43164 70.605909 124.43164 80.464844 L 124.43164 89.117188 L 129.90039 89.117188 L 129.90039 92.523438 L 124.43164 92.523438 L 124.43164 118.05469 L 143.27539 118.05469 C 143.52551 118.05469 143.76906 118.03122 144.01562 118.01758 L 144.01562 80.464844 C 144.01562 71.891197 144.44695 68.559336 145.9043 65.599609 z " />
  <path
     id="path1059"
     style="font-style:normal;font-variant:normal;font-weight:normal;font-stretch:normal;font-size:192px;line-height:1.25;font-family:'Standard Symbols PS';-inkscape-font-specification:'Standard Symbols PS, Normal';font-variant-ligatures:normal;font-variant-caps:normal;font-variant-numeric:normal;font-variant-east-asian:normal;letter-spacing:0px;word-spacing:0px;fill:#000000;fill-opacity:1;stroke:none"
     d="M 43.023438 53.201172 L 43.023438 58.193359 L 43.599609 58.193359 C 49.743603 58.193359 55.119237 60.496535 57.615234 64.144531 C 59.919232 67.600528 60.496094 70.480854 60.496094 80.464844 L 60.496094 155.1543 C 60.496094 165.13829 59.919232 168.20866 57.615234 171.47266 C 55.119237 175.12065 49.743603 177.42578 43.599609 177.42578 L 43.023438 177.42578 L 43.023438 182.41797 L 97.550781 182.41797 L 97.550781 177.42578 L 96.974609 177.42578 C 90.638616 177.42578 85.455575 175.12065 82.767578 171.47266 C 80.65558 168.20866 80.080078 165.13829 80.080078 155.1543 L 80.080078 80.464844 C 80.080078 70.480854 80.65558 67.600528 82.767578 64.144531 C 85.455575 60.496535 90.638616 58.193359 96.974609 58.193359 L 97.550781 58.193359 L 97.550781 53.201172 L 43.023438 53.201172 z " />
  <path
     style="fill:url(#linearGradient1478);fill-opacity:1"
     d="m 129.33477,63.71564 c -4.58365,0.0213 -8.96093,0.41221 -12.8125,1.09375 -11.34621,2.0045 -13.40624,6.2001 -13.40625,13.937499 v 10.21875 h 26.8125 v 3.40625 h -26.8125 -10.062501 c -7.79245,0 -14.615746,4.683722 -16.749996,13.593751 -2.46182,10.21297 -2.57101,16.58602 0,27.25 1.90593,7.93785 6.457546,13.59375 14.249996,13.59375 h 9.218748 v -12.25 c 0,-8.8499 7.657153,-16.65625 16.750003,-16.65625 h 26.78125 c 7.45496,0 13.40626,-6.13816 13.40625,-13.625 V 78.746889 c 0,-7.266339 -6.12998,-12.724779 -13.40625,-13.937499 -4.60598,-0.76673 -9.38509,-1.11505 -13.96875,-1.09375 z m -14.5,8.21875 c 2.76955,0 5.03125,2.298649 5.03125,5.124999 0,2.81634 -2.2617,5.09375 -5.03125,5.09375 -2.77947,0 -5.03125,-2.27741 -5.03125,-5.09375 0,-2.82635 2.25178,-5.124999 5.03125,-5.124999 z"
     id="path1948" />
  <path
     id="path1462"
     style="font-style:normal;font-variant:normal;font-weight:normal;font-stretch:normal;font-size:192px;line-height:1.25;font-family:'Standard Symbols PS';-inkscape-font-specification:'Standard Symbols PS, Normal';font-variant-ligatures:normal;font-variant-caps:normal;font-variant-numeric:normal;font-variant-east-asian:normal;letter-spacing:0px;word-spacing:0px;fill:#000000;fill-opacity:1;stroke:none"
     d="M 106.95898 53.201172 L 106.95898 58.193359 L 107.53516 58.193359 C 113.67914 58.193359 119.05478 60.496539 121.55078 64.144531 C 121.57964 64.187816 121.60059 64.230318 121.62891 64.273438 C 121.96451 64.23994 122.2866 64.195411 122.62695 64.166016 C 123.70131 64.073224 124.79894 64.001464 125.91406 63.951172 C 127.02919 63.90088 128.16073 63.872512 129.30664 63.867188 C 130.45255 63.861863 131.6108 63.880235 132.77539 63.921875 C 133.93998 63.963515 135.11146 64.029011 136.2832 64.119141 C 137.45494 64.20927 138.62755 64.3247 139.79492 64.464844 C 140.9623 64.604987 142.1239 64.769255 143.27539 64.960938 C 143.73016 65.036732 144.18041 65.129912 144.625 65.238281 C 145.05712 65.343611 145.48405 65.464616 145.9043 65.599609 C 146.14403 65.112745 146.40479 64.632723 146.70312 64.144531 C 149.39112 60.496539 154.57613 58.193359 160.91211 58.193359 L 161.48828 58.193359 L 161.48828 53.201172 L 106.95898 53.201172 z " />
  <path
     id="path1438-4"
     style="display:inline;fill:url(#linearGradient1043);fill-opacity:1"
     d="M 122.85938 175.52734 C 122.33057 175.44055 121.80288 175.34336 121.27539 175.23828 C 120.7479 175.1332 120.22068 175.01919 119.69336 174.89648 C 119.23876 174.7907 118.78145 174.65358 118.32617 174.53516 C 118.65713 174.31966 118.97359 174.09351 119.27539 173.85742 C 119.57719 173.62134 119.86448 173.37493 120.13477 173.11914 C 120.40506 172.86335 120.65811 172.59884 120.89453 172.32422 C 121.13095 172.04959 121.3506 171.76523 121.55078 171.47266 C 121.83878 171.06466 122.09966 170.65997 122.33594 170.24414 C 122.57221 169.82831 122.78362 169.40064 122.97266 168.94922 C 123.1617 168.4978 123.32831 168.02259 123.47461 167.50781 C 123.62091 166.99303 123.74742 166.43988 123.85547 165.83398 C 123.96352 165.22809 124.05265 164.56853 124.12695 163.84375 C 124.20125 163.11897 124.25965 162.32845 124.30469 161.45703 C 124.34973 160.58561 124.38207 159.63372 124.40234 158.58789 C 124.42262 157.54206 124.43164 156.40229 124.43164 155.1543 L 124.43164 121.27734 L 143.30273 121.27734 C 143.40705 121.27734 143.50994 121.26821 143.61328 121.26172 C 143.49093 121.26464 143.36887 121.27148 143.24609 121.27148 L 116.46484 121.27148 C 109.12902 121.27148 103.0586 127.54997 103.05859 134.89648 L 103.05859 160.42773 C 103.05859 167.69407 109.37719 171.96806 116.46484 174.05273 C 118.60555 174.68219 120.72506 175.17974 122.85938 175.52734 z " />
  <path
     id="path1216"
     style="display:inline;fill:url(#linearGradient1043);fill-opacity:1"
     d="M 129.92773 150.20898 L 129.92773 150.21484 L 144.01562 150.21484 L 144.01562 155.1543 C 144.01563 155.86349 144.0269 156.46478 144.0332 157.10547 C 144.32576 157.05171 144.62612 157.02148 144.93359 157.02148 C 147.71307 157.02149 149.96484 159.29891 149.96484 162.11523 C 149.96484 164.94158 147.71307 167.24023 144.93359 167.24023 C 144.76509 167.24023 144.59794 167.22951 144.43359 167.21289 C 144.4488 167.21462 144.46326 167.21912 144.47852 167.2207 C 144.6073 167.23408 144.73774 167.23701 144.86914 167.24023 C 144.97266 167.65699 145.08671 168.04961 145.21289 168.42383 C 145.33907 168.79804 145.47768 169.15376 145.62891 169.49805 C 145.78014 169.84234 145.94436 170.17497 146.12305 170.50195 C 146.30173 170.82894 146.49458 171.15036 146.70312 171.47266 C 146.9604 171.82181 147.24866 172.15495 147.55078 172.47852 C 152.56489 170.20873 156.65235 166.48844 156.65234 160.42773 L 156.65234 150.20898 L 129.92773 150.20898 z " />
  <path
     id="path1212"
     style="display:inline;fill:url(#linearGradient1043);fill-opacity:1"
     d="M 159.99609 92.365234 L 159.99609 104.27148 C 159.99609 113.23607 152.61546 120.81996 144.01562 121.25 L 144.01562 146.80273 L 156.65234 146.80273 L 170.05859 146.80273 C 177.85105 146.80273 180.75486 141.36732 183.46484 133.20898 C 186.26417 124.8101 186.14506 116.73319 183.46484 105.95898 C 181.53907 98.201578 177.86096 92.365234 170.05859 92.365234 L 159.99609 92.365234 z " />
</svg>
