<svg version="1.1" xmlns="http://www.w3.org/2000/svg" viewBox="0 0 767.5074755244234 797.8118326402781" width="767.5074755244234" height="797.8118326402781">
  <!-- svg-source:excalidraw -->
  
  <defs>
    <style class="style-fonts">
      @font-face {
        font-family: "Virgil";
        src: url("https://excalidraw.com/Virgil.woff2");
      }
      @font-face {
        font-family: "Cascadia";
        src: url("https://excalidraw.com/Cascadia.woff2");
      }
    </style>
  </defs>
  <rect x="0" y="0" width="767.5074755244234" height="797.8118326402781" fill="#ffffff"></rect><g stroke-linecap="round" transform="translate(232.23195218293665 10) rotate(0 144 30)"><path d="M0 0 C0 0, 0 0, 0 0 M0 0 C0 0, 0 0, 0 0 M-0.75 6.82 C1.22 4.43, 2.71 3.83, 6.55 -0.17 M0.02 7.15 C1.47 4.04, 2.82 3.58, 5.39 0 M-1.46 10.38 C3.31 10.86, 4.34 4.48, 13.07 -1.81 M-0.51 13.16 C3.21 9.36, 3.78 6.11, 10.69 -1.03 M-3.99 18.95 C4.97 14.47, 13.55 3.37, 15.18 -2.96 M-1.93 16.75 C5.96 14.15, 8.34 8.67, 16.06 1.32 M-2.21 21.38 C4.9 19.82, 6.2 15.2, 20.53 -2.57 M-0.8 23.33 C7.32 16.83, 12.45 8.14, 22.33 -0.9 M-1.5 30.28 C10.5 17.07, 13.93 8.3, 24.18 3.51 M1.13 31.29 C8.56 17.72, 20.48 10.67, 26.74 -0.13 M1.04 33.48 C11.87 29.16, 20.12 10.63, 35.11 -4.06 M-0.23 37.44 C9.94 24.22, 21.66 12.44, 33.64 0.42 M-3.73 45.88 C8.19 27.04, 23.32 14.22, 37.67 3.43 M-0.42 42.56 C12.31 29.23, 22.21 14.51, 38.28 -0.5 M-0.99 49.7 C15.76 34.71, 23.13 16.55, 42.71 2.74 M0.57 48.67 C14.25 32.6, 29.45 12.89, 41.1 -1.17 M2.63 55.21 C6.73 43.03, 17.76 28.3, 48.45 -1.27 M-0.09 52.72 C14.61 35.35, 32.41 16.69, 47.4 0.12 M4.49 59.99 C12.94 43.92, 27.21 24.62, 51.63 -3.72 M0.32 58.9 C18.34 42.35, 32.15 23.98, 53.69 -2 M3.12 58.67 C21.87 45.81, 31.06 28.66, 56.33 0.37 M6.33 61.36 C26.8 36.37, 44.59 15.7, 59.33 1.11 M14.46 60.74 C31.48 40.6, 45.53 17.19, 61.17 -3.98 M11.45 58.98 C30.24 39.83, 46.72 18.53, 64.89 1.05 M17.03 63.73 C32.29 41.01, 44.74 26.73, 68.09 -3.69 M14.33 61.63 C37.77 40.5, 56.5 15.47, 67.8 1.39 M21.89 63.22 C33.43 47.21, 43.07 31.51, 77.61 -1.6 M23.82 61.12 C44.52 38.39, 63.75 13.97, 72.67 -1.35 M25.42 60.88 C35.01 49.52, 52.14 39.34, 81.54 -0.5 M26.64 60.23 C40.29 46.28, 50.58 33.35, 79.02 -0.65 M28.56 60.39 C47.55 47.01, 57.4 31.26, 82.27 0.88 M33.68 61.72 C50.54 39.61, 63.83 21.48, 83.52 0.94 M37.58 59.56 C48.61 44.35, 62.83 31.28, 93.48 -0.11 M35.73 61.31 C58.66 35.71, 77.19 13.46, 91.73 0.88 M43.28 62.2 C55 47.28, 64.31 30.89, 95.43 1.92 M41.74 60.68 C54.28 44, 69.38 32.57, 96.4 1.57 M45.81 62.23 C69.88 40.14, 87.36 19.51, 99.69 -3.56 M46.57 60.5 C66.82 38.15, 86.55 13.16, 101.16 -0.61 M49.19 64.35 C71.67 38.51, 88.83 26.16, 104.39 0.96 M52.57 62.14 C73.04 37.91, 91.52 17.82, 106.8 -2.32 M57.4 64.34 C73.64 36.71, 97.15 16.74, 110.98 -2.91 M60.64 60.96 C78.76 36.1, 97.59 16.19, 111.02 -0.23 M62.39 61.3 C80.63 41.22, 102.67 18.43, 118.8 -0.78 M65.23 59.51 C82.21 41.71, 97.74 20.6, 118.03 -1.32 M70.65 62.35 C85.07 41.26, 101.8 21.46, 121.14 2.8 M67.93 61.33 C83.93 49.31, 94.43 33.16, 121.56 -1.58 M72.02 58.74 C84 44.46, 99.13 38.65, 125.25 -3.37 M73.27 59.94 C91.71 41.89, 109.66 22.06, 127.89 -0.78 M82.87 61.71 C87.55 43.78, 102.4 29.5, 130.97 -0.47 M78.9 59.78 C92.61 44.68, 108.12 27.11, 133.48 -0.75 M82.89 62.63 C102.25 37.93, 121.85 17.67, 139.41 -3.59 M83.42 61.31 C100.45 40.3, 117.1 21.38, 136.69 -0.32 M90.34 60.88 C102.66 49.94, 115.57 34.77, 140.26 -1.78 M92.54 61.93 C109.67 40.48, 123.6 22.25, 144.03 1.64 M98.78 63.93 C109.77 49.21, 125.41 30.82, 144.55 2 M94.91 61.03 C110.43 43.77, 123.94 27.99, 149.92 -0.77 M104.36 59.3 C123.01 38.48, 146.24 10.82, 155.82 2.83 M100.32 60.95 C113.33 42.29, 128.27 27.46, 154.93 0.51 M106.5 62.58 C120.4 48.41, 131.15 30.17, 154.98 1.87 M107.46 60.01 C118.62 46.45, 134.18 28.02, 157.54 0.51 M111.23 57.43 C126.31 45.55, 146.31 23.28, 167.44 2.32 M110.21 61.48 C123.25 44.9, 136.17 34.31, 164.39 -1.77 M115.85 59.55 C136.33 43.31, 153.06 20.07, 167.99 1.47 M117.31 58.63 C128.79 47.63, 138.85 34.38, 170.03 1.66 M120.24 56.72 C136.09 44.27, 148.76 24.97, 171.92 2.64 M122.69 59.67 C138.73 40.15, 151.69 24.91, 175.16 0.73 M127.61 56.78 C138.72 48.82, 150.94 38.59, 179.88 -0.76 M129.18 60.8 C140.53 46.09, 149.93 32.86, 178.38 0.34 M131.7 59.63 C152.28 41.3, 167.31 16.85, 189.05 2.73 M134.75 59.16 C149.87 41.45, 166.2 24.51, 186.45 1.38 M141.59 57.23 C156.81 39.01, 173.47 21.23, 193.95 2.64 M136.29 61.91 C155.46 43.59, 168.17 25.77, 190.05 1.7 M144.9 61.6 C154.54 44.44, 170.22 27.64, 197.64 2.55 M143.85 59.12 C160.17 41.28, 177.63 22.91, 198 1.1 M148.59 56.85 C163.24 43.51, 172.04 29.82, 204.49 -3.87 M148.37 60.86 C164.44 45.34, 175.72 28.44, 201.03 -1.62 M158.14 59.1 C168.14 44.63, 185.65 27.48, 207.47 3.07 M155.97 58.17 C172 39.31, 185.52 22.57, 206.03 0.28 M162.39 60.59 C177.99 42.74, 186.18 23.28, 212.81 -2.85 M159.65 60.06 C173.36 41.67, 193.44 22.68, 211.79 -1.47 M168.71 57.57 C184.37 40.13, 204.12 16.54, 219.34 -1.78 M165.59 58.48 C179.45 42.59, 195.76 22.84, 219.26 -1.19 M171.8 58.4 C182.25 44.7, 196.98 26.7, 219.19 0.17 M168.86 61.39 C181.27 48.32, 193.07 33.37, 223.3 1.8 M172.26 64.23 C184.96 49.27, 200.04 37.31, 225.06 -1.04 M175.04 62.44 C187.75 50.12, 196.24 36.41, 226.93 0.1 M180.62 57.25 C200.32 36.55, 216.41 14.79, 230.94 0.62 M179.22 62.26 C196.74 40, 214.03 17.63, 233.05 -0.66 M189.39 61.01 C202.75 41.51, 212.66 26.48, 238.76 2 M185.09 61.7 C208.21 35.97, 228.07 12.98, 238.1 -0.2 M191.63 57.08 C199.3 44.83, 211.57 32.25, 246.35 2.98 M190.46 59.57 C210.18 36.88, 232.78 15.82, 243.01 1.79 M197.74 57.13 C207.31 47.47, 220.63 31.57, 251.55 2.79 M195.06 61.66 C215.96 39.67, 233.67 20.6, 248.31 -1.19 M198.65 58.85 C217.61 40.96, 229.7 30.95, 254.72 -3.32 M202.8 61.72 C213.36 46.47, 228.31 29.02, 255.65 -0.69 M206.61 62.03 C221.91 40.33, 238.05 25.7, 259.57 0.02 M205.45 62.47 C227.05 39.02, 244.54 19.43, 259.63 -0.24 M210.45 56.5 C228.5 39.96, 249.18 12.99, 268.35 -3.81 M212.97 60.59 C225.93 47.27, 235.21 34.7, 265.96 1.55 M216.3 62.17 C225.6 46.8, 239.26 33.98, 266.62 0.67 M217.22 59.77 C231.61 43.44, 248.06 26.75, 271.29 0.06 M226.86 61 C240.88 34.06, 266.86 16.24, 274.53 0.96 M222.2 59.6 C237.54 43.15, 254.22 25.26, 277.41 1.64 M226.11 61.01 C237.43 44.67, 252.92 38.92, 283.5 -3.34 M227.84 60.71 C247.62 41.33, 263.17 16.18, 279.02 0.61 M230.64 60.29 C250.06 34.61, 269.78 20.12, 283.55 3.43 M232.21 61.64 C251.02 37.2, 267.49 17.91, 285.97 0.25 M242.33 62.99 C251 43.24, 264.6 25.61, 286.69 -1.52 M239.3 59.94 C256.87 39.12, 277.81 13.59, 289.73 3.32 M243.62 59.33 C256.04 48.76, 272.8 24.88, 289.51 5.37 M245.24 61.11 C260.26 42.71, 275.03 28.18, 288.91 9.82 M246.26 57.58 C267.05 46.38, 279.3 27.22, 293.11 17.13 M250.07 59.62 C261.92 44.93, 279.69 26.49, 288.27 13.14 M254.57 64.07 C269.76 43.49, 274.28 33.35, 288.63 20.69 M256 59.9 C264.57 51.76, 270.23 41.91, 291.14 21.47 M258.19 59.21 C264.26 55.27, 273.65 39.04, 287.75 29 M259.13 61.38 C265.33 53.54, 272.09 44.35, 289.05 26.91 M267.31 57.47 C273.06 49.52, 283.43 41.33, 291.49 33.09 M267.73 59.42 C270.27 53.6, 275.3 47.36, 289.42 30.57 M273.43 59.36 C276.76 49.83, 282.77 46.44, 292.75 38.79 M269.96 62.38 C277.99 51.97, 280.29 46.32, 289.16 40.27 M276.62 63.47 C278.32 56.64, 282.18 52.61, 288.38 47.01 M276.14 60.57 C282.43 56.43, 287.7 48.42, 289.72 43.78 M279.35 59.15 C285.93 57.29, 287.81 54.33, 290.76 50.18 M282.12 59.67 C283.99 56.41, 287.38 54.19, 288.74 50.29 M285.55 60.48 C285.97 60.88, 287.82 60.09, 291 57.35 M285.9 60.69 C287.79 59.39, 289.07 56.8, 290.37 55.95" stroke="#40c057" stroke-width="0.5" fill="none"></path><path d="M0.07 -2.44 C64.58 5.81, 131.8 0.55, 288.57 0.08 M0.96 0.88 C114.47 -0.34, 226.78 0.29, 289.43 -1.33 M284.82 -3.25 C287.79 19.18, 287.08 31.12, 288.5 57.26 M288.56 -1.81 C289.69 15.07, 289.83 34, 289.64 61.28 M287.69 60.07 C205.33 66.08, 117.32 66.65, -0.31 61.54 M289.01 60 C189.58 56.22, 89.02 57.68, 1.3 61.28 M-0.9 57.94 C-0.32 44.41, -4.11 36.79, 0.15 1.18 M-0.85 60.39 C-1.13 43.59, -1.46 29.61, -1.51 0.99" stroke="#000000" stroke-width="1" fill="none"></path></g><g transform="translate(315.73195218293665 17.5) rotate(0 60.5 22.5)"><text x="60.5" y="32" font-family="Virgil, Segoe UI Emoji" font-size="36px" fill="#000000" text-anchor="middle" style="white-space: pre;" direction="ltr">Django</text></g><g stroke-linecap="round" transform="translate(202.4428129228745 220.68629861555831) rotate(0 177.5 30)"><path d="M0 0 C0 0, 0 0, 0 0 M0 0 C0 0, 0 0, 0 0 M-0.19 12.88 C1.09 9.57, 6.18 6.46, 9.63 -0.48 M-0.18 12.74 C3.96 7.39, 6.52 4.56, 10.54 0.76 M-0.72 25.62 C9.02 14.26, 15.24 4.88, 22.32 1.83 M0.47 23.42 C4.22 18.52, 10.79 13.06, 20.6 0.39 M-0.98 35.54 C6.74 28.57, 13.67 19.99, 33.23 -1.59 M-0.26 36.39 C6.92 29.75, 13.97 21.55, 32.03 -0.96 M-1.25 48.74 C12.4 34.35, 28.71 15.34, 42.09 0.15 M-0.2 48.68 C13.25 34.41, 26.54 18.42, 42.16 -0.73 M0.11 61.55 C16.35 42.37, 34.85 19.66, 53.33 1.77 M-0.33 59.51 C13.02 45.36, 26.41 30.95, 53.82 -1.06 M12.39 61.4 C26.13 40.88, 44.25 25.03, 63.05 -1.63 M11.99 60 C22.4 47.73, 33.62 34.34, 63.66 -1.03 M23.57 60.05 C33.26 46.54, 45.73 30.87, 74.32 -1.74 M21.25 59.25 C34.18 46.04, 47.26 30.96, 74.56 -0.96 M32.38 61.13 C45.95 45.47, 54.35 31.94, 84.38 -0.32 M32.98 60.76 C51.71 38.21, 70.87 17.08, 85.98 -0.85 M41.78 60.17 C62.55 37.17, 83.53 12.34, 95.95 -0.46 M42.29 59.39 C61.41 38.72, 81.58 16.96, 96.36 -0.71 M53.48 62.15 C64.1 46.88, 72.28 35.69, 104.41 -1.83 M53.61 61.73 C71.94 39.82, 91.04 15.76, 105.46 -0.96 M61.89 59.23 C74.64 49.79, 86.73 35.26, 116.46 0.87 M63.69 60.68 C81.69 40.22, 100.76 18.02, 116.1 -0.05 M73.38 59.98 C87.02 48.3, 98.82 32.05, 127.93 -0.44 M74.01 61.66 C93.88 38.81, 114.08 14.83, 127.18 0.17 M84.18 59.18 C96.14 46.07, 106.08 31.89, 139.16 2.14 M85.8 61.15 C100.06 42.47, 114.92 24.77, 138.08 0.58 M94.94 59.27 C108.75 42.78, 124.18 25.11, 148.82 2.17 M95.74 61.11 C111.55 41.51, 127.83 21.92, 147.67 -0.61 M106.04 59.12 C123.41 40.52, 139.61 22.99, 160.54 0.39 M106.38 60.63 C117.43 47.11, 129.82 34.23, 158.05 0.56 M116.79 58.78 C129.96 43.86, 145.72 27.49, 170.13 1.47 M116.47 61.48 C129.89 45.07, 142.26 31.1, 168.9 -0.64 M128.69 60.24 C147.12 40.43, 164.72 21.47, 180.85 -1.25 M127.34 59.8 C144.97 40.26, 161.63 20.43, 179.87 0.08 M136.7 60.17 C152.34 48.28, 161.5 34.14, 190.67 -0.97 M137.3 59.7 C159.61 36.51, 179.59 12.61, 190.95 -0.44 M148.45 58.65 C162.48 46.73, 174.86 33.2, 199.48 -0.75 M148 60.88 C168.32 37.67, 187.72 13.85, 200.84 0.89 M159.53 59.95 C178.92 39.27, 198.48 13.85, 212.39 -0.68 M158.78 60.27 C177.42 38.64, 196.23 19.38, 211.33 1.01 M168.75 61.28 C187.3 39.61, 204.18 18.57, 222.94 -1.21 M169.11 59.65 C184.32 42.47, 198.84 26.9, 221.67 0.32 M181.32 61.53 C190.91 48.95, 203.31 31.9, 232.37 1.67 M180.88 61.26 C193.01 47.47, 204.77 33.91, 232.98 0.33 M192.17 61.99 C206.78 43.11, 223.74 25.42, 244.87 1.13 M190.87 59.46 C207.06 43.06, 221.72 25.77, 244.55 -0.75 M201.19 59.17 C216.01 44.48, 230.7 27.66, 254.81 0.29 M201.03 60.31 C219.25 39.24, 237.16 19.53, 254.29 -0.34 M212.42 61.48 C228 38.56, 247.01 22.07, 266.01 0.92 M212.92 61.23 C224.71 46.31, 237.87 31.88, 265.06 0.11 M221.39 62.02 C241.64 37.91, 260.65 16.98, 275.01 0.26 M224.07 60.61 C241.77 38.94, 260.37 19.19, 275.08 0.74 M234.31 59.32 C251.6 38.97, 271.6 15.99, 286.27 -0.31 M234.34 59.43 C250.34 41.47, 266.36 21.55, 286.26 -1.09 M243.33 62.1 C256.9 45.77, 267.85 35.61, 295.45 1.55 M244.3 60.9 C257.1 45.78, 268.92 30.51, 296.62 -1.15 M253.79 61.99 C273.46 40.77, 287.38 21.47, 308.65 -2.17 M255.63 60.09 C266.28 46.37, 278.29 32.47, 306.63 -0.77 M267.49 58.31 C286.5 34.84, 305.64 12.62, 317.67 -1.02 M265.45 59.51 C285.03 38.37, 305.32 15.05, 317.6 -1.16 M277.93 58.81 C288.37 47.1, 298.71 34.79, 327.27 -1.39 M276.74 60.81 C291.84 42.97, 306.89 24.85, 328.08 0.18 M284.88 61.18 C304.26 41.46, 321.28 22.18, 338.39 -1.73 M286.03 61.08 C301.99 43.36, 318.61 25.08, 340.17 -0.88 M296.28 58.75 C309.42 46.01, 319.76 32.53, 350.76 0.94 M296.41 61.51 C314.95 40.54, 332.74 19.04, 349.3 1.22 M307.55 61.83 C317.85 46.23, 329.58 31.36, 358.8 3.02 M307.96 61.53 C320.14 46.9, 333.99 32.22, 357.26 2.68 M319.46 59.39 C329.1 48.25, 339.2 33.35, 356.33 14.66 M318.76 61.4 C334.55 44.05, 348.78 25.18, 357.95 15.43 M328.73 60.56 C334.43 51, 343.23 42.85, 357.45 27.55 M328.61 60.63 C336.41 51.82, 344.97 41.7, 357.48 27.92 M339.27 59.43 C344.32 53.86, 348.63 50.38, 358.13 40.65 M339.4 61.53 C346.68 53.08, 352.95 43.6, 358.87 39.61 M349.72 60.08 C351.98 58.21, 353.06 57.23, 356.86 51.55 M349.75 60.79 C353.32 56.89, 356.33 54.01, 358.59 51.4" stroke="#82c91e" stroke-width="1" fill="none"></path><path d="M-0.53 -0.12 C141.25 0.28, 281.9 -0.16, 354.66 0.7 M-0.23 -0.01 C111.09 2.29, 221.56 1.48, 355.5 -0.41 M353.97 0.04 C355.63 24.05, 356.73 45.99, 354.41 61.69 M354.1 -0.53 C355.87 18.3, 354.73 37.32, 355.78 60.48 M355.95 59.75 C213.37 59.08, 73.78 59.39, -1.04 58.92 M354.6 60.43 C256.98 58.39, 158.43 58.06, 0.13 60.12 M1.93 60.53 C-1.29 39.67, -0.11 19.68, -1.1 -1.16 M0.59 60.1 C0.11 40.03, 0.12 20.15, 0.7 -0.14" stroke="#000000" stroke-width="2" fill="none"></path></g><g transform="translate(277.4428129228745 233.18629861555831) rotate(0 102.5 17.5)"><text x="102.5" y="25" font-family="Virgil, Segoe UI Emoji" font-size="28px" fill="#000000" text-anchor="middle" style="white-space: pre;" direction="ltr">ArticleVoteView</text></g><g stroke-linecap="round" transform="translate(207.3920867368986 387.7109675722703) rotate(0 179.5 40)"><path d="M0 0 C0 0, 0 0, 0 0 M0 0 C0 0, 0 0, 0 0 M1.39 10.28 C0.99 9.67, 6.88 7.4, 12.51 0.28 M-1.11 13.16 C3.54 7.84, 6.8 4.47, 9.44 1.54 M-1.61 23.37 C4.7 14.56, 13.64 10.32, 17.39 3.82 M1.31 23.14 C6.15 16.17, 12.94 10.57, 20.85 0.98 M-1 34.38 C5.68 29.14, 11.91 18.64, 30.34 3.38 M0.67 36.66 C13.45 26.44, 21.06 11.18, 30.9 1.43 M-0.92 51.03 C17.5 30.88, 24.61 19.33, 43.32 -2.79 M-0.52 47.6 C9.91 36.24, 16.93 28.69, 41.8 -1.48 M0.05 63.64 C11.62 40.93, 31.42 30.27, 53.14 -2.12 M1.3 61.23 C15.85 39.18, 38.27 16.8, 52.02 -0.35 M-2.63 72.15 C15.5 54.39, 33.21 35.59, 63.49 -1.14 M0.28 72.28 C19.35 48.25, 42.17 22.67, 63.22 1.14 M-0.03 82.38 C22.21 60.36, 35.43 39.29, 70.42 -3 M2.4 83.36 C20.48 60.65, 39.42 41.01, 75.51 0.99 M15.78 80.53 C28.89 57.32, 52.2 42.16, 87.82 -0.95 M12.69 81.74 C37 49.78, 63.45 23.46, 86.69 -0.36 M21.44 81.77 C39.07 58.52, 61.28 38.34, 92.97 -3.87 M22.78 82.25 C43.42 55.89, 67.2 31.61, 95.5 0.72 M32.19 81.36 C63.43 53.75, 92.03 16.91, 107.98 2.29 M34.44 84.56 C57.61 56.07, 83.63 24.81, 104.89 -0.24 M42.09 83.2 C63.26 63.65, 83.96 35.81, 112.68 -2.31 M45.61 84.02 C60.33 60.95, 79.64 42.69, 116.6 1.74 M53.59 78.83 C78.61 58.03, 106.83 25.17, 128.72 4.12 M53.72 80.92 C70.82 60.64, 92.11 43.19, 125.01 -1.18 M65.65 82.93 C88.96 56.31, 109.69 25.41, 137.15 0.04 M65.53 82.22 C78.98 64.79, 93 48.38, 136.5 -0.43 M74.61 84.59 C95.51 61.16, 119.6 31.71, 146.53 4.03 M75.76 83.09 C94.99 57.97, 115.96 37.69, 147.29 -1.23 M83.65 85.75 C112.22 59.99, 129.11 39.86, 161.77 2.09 M86.33 83.59 C108.29 60.03, 128.63 39.17, 158.06 -1.14 M96.3 83.78 C117.88 65.48, 133.61 49.82, 169.67 2.07 M97.58 81.48 C115.89 60.13, 138.46 35.14, 169.16 -1.3 M109.98 85.91 C132.75 52.68, 153.98 29.05, 180.34 0.23 M107.58 80.94 C128.76 59.35, 145.19 38.6, 179.91 -1.63 M117.45 83.8 C138.44 61.34, 152.5 43.68, 188.8 3.73 M119.31 81.35 C140.94 58.22, 163 33.27, 191.81 -0.17 M132.33 83.95 C154.06 50.75, 182.47 17.32, 200.4 -2.89 M127.98 82 C152.63 56.5, 173.62 31.08, 199.81 -0.24 M142.6 82.29 C164.74 55.28, 191.62 21.27, 208.35 -3.19 M140.21 82.86 C162.78 54.5, 186.22 29.62, 211.56 -1.76 M152.11 78.62 C175.23 54.16, 205.15 24.2, 219.24 1.63 M149.35 81.34 C174.34 58.58, 196.75 31.4, 222.65 -0.46 M158.05 83.15 C182.58 56.66, 204.83 29.84, 230.49 -0.7 M162.67 81.02 C183.77 60.67, 202.43 39.83, 231.86 0.87 M168.49 82.96 C193.87 54.06, 222.33 31.53, 239.9 -3.08 M172.64 80.42 C197.06 54.26, 220.43 28.12, 244.43 1.12 M179.84 80.52 C201.6 60.51, 217.63 40.62, 255.12 3.49 M184.18 81.73 C209.51 50.71, 233.76 21.47, 255.29 1.58 M194.39 84.22 C215.87 57.21, 231.44 32.38, 263.17 -3.61 M193.92 83.58 C214.61 56.51, 237.11 30.72, 264.3 -1.24 M205.76 82.8 C222.31 63.77, 243.24 38.3, 271.92 -0.11 M205.4 81.76 C223.69 61.38, 241.52 40.95, 275.54 1.07 M216.46 83.92 C233.25 62.55, 244.94 47.6, 287.61 3.67 M216.38 82.02 C230.5 64.89, 244.95 43.89, 284.51 1.61 M223.35 80.63 C247.16 61.17, 263.39 33.42, 300.31 1.28 M226.07 80.76 C249.88 58.24, 268.05 32.24, 297.43 -1.09 M235.15 81.85 C250.7 65.32, 267.1 49.5, 309.49 -3.34 M234.36 81.83 C257.39 53.22, 283.79 26.32, 306.44 1.69 M249.92 78.9 C277.15 49.44, 301.54 25.71, 317.46 2.66 M245.08 81.25 C270.13 52.64, 297.58 24.64, 316.9 1.58 M256.6 84.01 C281.63 47.27, 315.82 16.44, 330.87 -0.49 M257.29 79.97 C273.56 64.99, 292.2 44.33, 330.61 -2.1 M267.83 81.52 C289.39 60.8, 316.04 30.13, 338.27 -2.68 M267.8 81.38 C285.14 56.16, 309.16 32.14, 341.05 -1.6 M276.08 79.43 C303.85 50.24, 333.64 15.45, 350.89 3.36 M277.09 81.03 C301.65 57.21, 322.28 28.6, 347.99 0.77 M291.21 80.37 C306.95 57.93, 327.85 35.8, 358.78 1.52 M288.65 83.92 C306.02 57.3, 328.02 38.2, 359.39 -1.66 M296.58 85.12 C323.38 58.57, 342.96 30.98, 357.24 16.18 M298.78 82.21 C316.35 63.33, 332.28 47.65, 359.51 14.25 M305.93 83.85 C323.3 66.97, 330.79 56.03, 361.04 28.44 M311.25 80.76 C320.59 68.24, 333.97 55.49, 360.92 23.88 M316.85 78.61 C332.6 72.27, 341.63 51.8, 361.87 40.12 M320.52 81.84 C334.43 66.89, 346.5 54.1, 359.7 37.13 M328.29 81.85 C338.41 74.31, 347.1 63.21, 358.89 49.18 M330.99 81.92 C338.68 73.66, 344.16 66.91, 359.74 48.07 M342.07 82.91 C350.15 79.3, 355.57 67.24, 359.66 64.98 M340.25 84.39 C347.6 75.05, 352.13 67.87, 359.41 60.47 M354.56 80.26 C354.49 82.24, 355.8 78.73, 358.13 74.88 M353.47 83.45 C354.4 80.24, 355.81 76.86, 358.78 73.63" stroke="#fab005" stroke-width="1" fill="none"></path><path d="M1.55 0.24 C100.17 5.41, 201.35 5.26, 358.12 0.12 M-0.64 0.16 C117.05 -0.5, 234.36 -0.65, 358.06 0.86 M358.53 2.03 C360.14 31.13, 363.59 59.76, 362.04 83.31 M358.01 -0.48 C355.83 24.24, 357.41 44.61, 358.17 79.81 M358.63 79.32 C237.55 81.97, 112.57 79.82, -0.9 79.98 M358.64 80.99 C223.53 83.29, 89.17 82.39, -0.65 80.02 M3.55 78.82 C1.82 52.73, -1.24 22.31, -3.61 -2.12 M1.04 81.55 C1.12 51.4, -1.64 18.99, 1.48 -0.39" stroke="#000000" stroke-width="2" fill="none"></path></g><g transform="translate(250.8920867368986 410.2109675722703) rotate(0 136 17.5)"><text x="136" y="25" font-family="Virgil, Segoe UI Emoji" font-size="28px" fill="#000000" text-anchor="middle" style="white-space: pre;" direction="ltr">ArticleRatingService</text></g><g stroke-linecap="round" transform="translate(246.87905812226677 592.3487292430136) rotate(0 188 50)"><path d="M6 6.54 C6 6.54, 6 6.54, 6 6.54 M6 6.54 C6 6.54, 6 6.54, 6 6.54 M0.49 18.97 C1.14 13.19, 9.8 13.89, 14.92 2.37 M0.49 18.97 C2.56 15.4, 7.31 8.54, 14.92 2.37 M3.51 21.6 C10.95 18.15, 16.34 3.86, 21.22 1.22 M3.51 21.6 C8.6 14.71, 16.25 9.4, 21.22 1.22 M3.25 28 C12.99 15.75, 22.39 11.63, 26.21 1.58 M3.25 28 C12.41 18.31, 20.13 11.61, 26.21 1.58 M3.64 33.64 C15.36 19.44, 21.36 8.03, 31.85 1.19 M3.64 33.64 C11.95 24.54, 22.66 12.11, 31.85 1.19 M3.38 40.04 C16.14 23.05, 22.95 14.55, 36.84 1.55 M3.38 40.04 C14.58 29.35, 23.43 15.34, 36.84 1.55 M3.12 46.44 C18.92 30.75, 28.04 12.81, 42.48 1.15 M3.12 46.44 C14.58 33.86, 24.96 18.47, 42.48 1.15 M3.51 52.08 C17.26 37.87, 28.27 23.54, 47.47 1.51 M3.51 52.08 C15.38 35.62, 30.02 24.28, 47.47 1.51 M3.25 58.48 C22.43 38.42, 34.11 23.4, 53.11 1.12 M3.25 58.48 C18.36 41.37, 29.71 26.13, 53.11 1.12 M3.65 64.12 C23.45 41.79, 45.06 18.75, 58.1 1.48 M3.65 64.12 C24.12 39.56, 44.65 20.63, 58.1 1.48 M3.38 70.52 C23.79 48.81, 44.65 22.45, 63.74 1.08 M3.38 70.52 C16.65 52.62, 32.6 34.89, 63.74 1.08 M3.12 76.92 C21.01 50.66, 45.72 24.54, 68.73 1.44 M3.12 76.92 C20.2 59.29, 38.03 37.47, 68.73 1.44 M2.86 83.31 C19.57 61.28, 41.34 33.77, 74.37 1.05 M2.86 83.31 C21.31 59.4, 43.96 36.84, 74.37 1.05 M4.57 87.45 C25.39 58.38, 50.76 28.33, 79.36 1.41 M4.57 87.45 C28.04 61.78, 48.53 36.82, 79.36 1.41 M6.93 90.83 C31.66 64.6, 52.45 38.1, 85 1.01 M6.93 90.83 C36.07 54.65, 67.41 21.38, 85 1.01 M7.98 95.71 C35.29 66.9, 62.18 36.76, 89.99 1.38 M7.98 95.71 C34.44 66.9, 58.71 41.03, 89.99 1.38 M11.66 97.58 C38.15 64.14, 76.21 28.57, 95.63 0.98 M11.66 97.58 C36.11 68.6, 64.01 39.33, 95.63 0.98 M15.33 99.45 C39.25 68.59, 68.28 35.06, 100.62 1.34 M15.33 99.45 C30.71 75.61, 52.09 55.1, 100.62 1.34 M20.32 99.81 C38.85 80, 61.37 55.75, 106.26 0.95 M20.32 99.81 C41.29 75.34, 62.94 49.19, 106.26 0.95 M25.3 100.17 C41.13 80.12, 63.03 58.55, 111.25 1.31 M25.3 100.17 C52.61 68.6, 78.15 39.1, 111.25 1.31 M30.29 100.53 C49.81 80.29, 71.43 52.08, 116.89 0.91 M30.29 100.53 C55.72 73.73, 82.95 46.51, 116.89 0.91 M35.94 100.14 C65.33 65.97, 101.56 28.9, 121.88 1.27 M35.94 100.14 C68.23 64.01, 98.84 27.16, 121.88 1.27 M40.92 100.5 C65.22 72.38, 79.45 55.37, 126.87 1.63 M40.92 100.5 C60.98 77.05, 83.84 52.16, 126.87 1.63 M46.57 100.1 C80.03 62.31, 112.6 17.78, 132.51 1.24 M46.57 100.1 C76.31 65.81, 104.33 33.48, 132.51 1.24 M51.55 100.46 C82.98 65.04, 109.43 31.29, 137.5 1.6 M51.55 100.46 C70.52 74.73, 89.17 52.31, 137.5 1.6 M57.2 100.07 C77.22 82.37, 95.53 56.88, 143.14 1.2 M57.2 100.07 C79.44 76.96, 103.79 49.14, 143.14 1.2 M62.18 100.43 C94.12 62.29, 126.55 19.73, 148.13 1.56 M62.18 100.43 C95.77 65.31, 125.84 28.61, 148.13 1.56 M67.83 100.04 C90.91 75.09, 109.14 56.71, 153.77 1.17 M67.83 100.04 C94.4 75.73, 114.78 46.07, 153.77 1.17 M72.81 100.4 C109.5 60.45, 139.01 19.37, 158.76 1.53 M72.81 100.4 C104.29 64.82, 132.87 33.05, 158.76 1.53 M78.46 100 C97.94 78.05, 117.37 54.26, 164.4 1.13 M78.46 100 C106.9 69.16, 136.73 34.28, 164.4 1.13 M83.44 100.36 C110.28 70.28, 147.18 29.82, 169.39 1.49 M83.44 100.36 C112.02 67.35, 142.2 33.69, 169.39 1.49 M89.09 99.97 C114.52 75.55, 130.55 55.89, 175.03 1.1 M89.09 99.97 C107.6 81.13, 126.97 61.92, 175.03 1.1 M94.07 100.33 C115.89 81.59, 131.54 56.21, 180.02 1.46 M94.07 100.33 C123.86 64.35, 155.65 29.23, 180.02 1.46 M99.72 99.93 C119.45 77.78, 135.44 56.35, 185.66 1.06 M99.72 99.93 C124.94 70.92, 150.32 42.73, 185.66 1.06 M104.7 100.29 C138.59 57.96, 169.62 24.36, 190.65 1.42 M104.7 100.29 C138.95 60.33, 171.46 20.96, 190.65 1.42 M110.35 99.9 C134.83 72.47, 161.17 50.63, 196.29 1.03 M110.35 99.9 C128.65 80.24, 146.32 57.52, 196.29 1.03 M115.33 100.26 C140.19 66.85, 177.62 29.55, 201.28 1.39 M115.33 100.26 C141.32 69.72, 161.71 41.4, 201.28 1.39 M120.98 99.86 C148.12 65.62, 174.88 34.23, 206.92 1 M120.98 99.86 C138.26 79.9, 157.99 58.42, 206.92 1 M125.96 100.22 C161.57 56.22, 193.38 18.92, 211.91 1.36 M125.96 100.22 C151.55 71.86, 175.55 45.96, 211.91 1.36 M130.95 100.58 C152.47 73.7, 171.41 55.39, 217.55 0.96 M130.95 100.58 C161.82 63.76, 194.06 29.59, 217.55 0.96 M136.59 100.19 C154.54 78.68, 167.99 58.07, 222.54 1.32 M136.59 100.19 C161.96 68.96, 185.65 41.99, 222.54 1.32 M141.58 100.55 C171.42 70.29, 199.77 34.93, 228.18 0.93 M141.58 100.55 C172.38 67.04, 199.38 30.51, 228.18 0.93 M147.22 100.15 C169.85 77.65, 186.06 58.77, 233.17 1.29 M147.22 100.15 C180.31 62.77, 211.44 22.14, 233.17 1.29 M152.21 100.51 C178.59 63.48, 214.68 25.99, 238.15 1.65 M152.21 100.51 C182.04 64.73, 206.78 33.81, 238.15 1.65 M157.85 100.12 C177.14 73.78, 205.4 47.81, 243.8 1.25 M157.85 100.12 C185.96 69.9, 215.76 34.99, 243.8 1.25 M162.84 100.48 C196.38 59.09, 235.27 21.48, 248.78 1.61 M162.84 100.48 C180.99 78.26, 200.64 55.34, 248.78 1.61 M168.48 100.08 C197.5 62.97, 226.3 33.94, 254.43 1.22 M168.48 100.08 C194.92 68.99, 218.58 41.13, 254.43 1.22 M173.47 100.44 C208.95 57.66, 239.62 20.25, 259.41 1.58 M173.47 100.44 C207.27 61, 241.01 21.7, 259.41 1.58 M179.11 100.05 C197.31 81.09, 214.98 56.14, 265.06 1.18 M179.11 100.05 C200.17 77.81, 217.84 57.61, 265.06 1.18 M184.1 100.41 C214.96 64.81, 234.37 36.49, 270.04 1.54 M184.1 100.41 C207.33 75.09, 228.79 48.36, 270.04 1.54 M189.74 100.02 C212.73 75.74, 232.9 56.23, 275.69 1.15 M189.74 100.02 C221.95 66.22, 254.03 31.26, 275.69 1.15 M194.73 100.38 C220.6 76.29, 240.72 41.2, 280.67 1.51 M194.73 100.38 C215.65 75.71, 237.01 50.51, 280.67 1.51 M200.37 99.98 C231.95 64.51, 257 32.09, 286.32 1.11 M200.37 99.98 C227.15 67.85, 256.93 37.61, 286.32 1.11 M205.36 100.34 C229.25 78.64, 249.72 58.42, 291.3 1.47 M205.36 100.34 C238.59 60.32, 270.33 22.68, 291.3 1.47 M211 99.95 C245.58 61.23, 280.47 28.25, 296.95 1.08 M211 99.95 C244.3 63.19, 275.63 25.19, 296.95 1.08 M215.99 100.31 C235.83 72.56, 259.02 53.03, 301.93 1.44 M215.99 100.31 C246.21 66.97, 276.9 29.07, 301.93 1.44 M221.63 99.91 C246.5 75.85, 264.68 47.9, 307.58 1.05 M221.63 99.91 C240.62 77.07, 256.5 55.77, 307.58 1.05 M226.62 100.27 C257.61 62.93, 286.45 28.6, 312.56 1.41 M226.62 100.27 C249.11 75.74, 273.92 49.9, 312.56 1.41 M232.26 99.88 C248.32 75.01, 271.9 53.8, 318.21 1.01 M232.26 99.88 C262.1 68.28, 287.61 35.46, 318.21 1.01 M237.25 100.24 C269.02 58, 303.68 22.29, 323.19 1.37 M237.25 100.24 C256.1 76.87, 274.97 57.08, 323.19 1.37 M242.24 100.6 C269.36 68.11, 294 41.48, 328.84 0.98 M242.24 100.6 C266.57 73.18, 289.22 48.19, 328.84 0.98 M247.88 100.2 C266.77 75.94, 286.5 59.64, 333.82 1.34 M247.88 100.2 C278.07 64.55, 309.84 27.97, 333.82 1.34 M252.87 100.56 C274.51 69.77, 297.47 42.68, 339.47 0.94 M252.87 100.56 C284.24 61.44, 320.44 22.12, 339.47 0.94 M258.51 100.17 C290.87 69.14, 320.61 31.83, 344.45 1.3 M258.51 100.17 C284.45 71.53, 305.46 47.37, 344.45 1.3 M263.5 100.53 C292.03 68.81, 321.06 41.46, 350.1 0.91 M263.5 100.53 C288.94 72.32, 313.6 43.38, 350.1 0.91 M269.14 100.13 C288.07 83.43, 300.91 60.83, 353.77 2.78 M269.14 100.13 C299.3 64.52, 329.8 29, 353.77 2.78 M274.13 100.49 C306.98 65.8, 339.97 25.06, 358.76 3.14 M274.13 100.49 C301.79 67.24, 330.9 35.06, 358.76 3.14 M279.77 100.1 C303.18 74.68, 329.83 45.97, 363.75 3.5 M279.77 100.1 C297.22 77.19, 316.2 56.53, 363.75 3.5 M284.76 100.46 C320 60.74, 344.04 29.23, 366.77 6.12 M284.76 100.46 C302.29 83.46, 319.5 63.4, 366.77 6.12 M290.4 100.07 C309.71 74.32, 334.51 44.96, 370.44 7.99 M290.4 100.07 C316.96 70.51, 342.07 38.79, 370.44 7.99 M295.39 100.43 C307.05 83.26, 328.92 65.06, 373.46 10.62 M295.39 100.43 C322.61 71.17, 351.53 40.91, 373.46 10.62 M301.03 100.03 C325.87 73.89, 351.72 45.68, 375.17 14.75 M301.03 100.03 C325.29 68.92, 353.19 37.35, 375.17 14.75 M306.02 100.39 C331.41 71.92, 357.45 42.16, 376.22 19.64 M306.02 100.39 C323.22 81.24, 339.85 60.41, 376.22 19.64 M311.66 100 C330.25 78.23, 345.05 61.58, 375.96 26.03 M311.66 100 C335.88 69.74, 360.67 42.94, 375.96 26.03 M316.65 100.36 C328.72 82.58, 343.71 68.13, 375.69 32.43 M316.65 100.36 C339.19 74.47, 362.84 45.78, 375.69 32.43 M322.29 99.96 C335.46 79.05, 355.75 61.14, 376.09 38.08 M322.29 99.96 C340.56 78.31, 355.31 58.48, 376.09 38.08 M327.28 100.32 C342.1 86.63, 355.6 69.12, 375.83 44.47 M327.28 100.32 C343.24 81.62, 361.75 59.74, 375.83 44.47 M332.92 99.93 C340.66 86, 358.57 72.22, 375.57 50.87 M332.92 99.93 C347.74 82.6, 364.4 63.74, 375.57 50.87 M337.91 100.29 C350.86 89.35, 362.28 70.69, 375.3 57.27 M337.91 100.29 C348.06 87.29, 359.59 78.75, 375.3 57.27 M343.55 99.89 C357.65 84.7, 369.45 74.98, 375.7 62.91 M343.55 99.89 C351.76 91.84, 359.21 84.41, 375.7 62.91 M348.54 100.25 C356.47 92.61, 369.26 78.55, 375.44 69.31 M348.54 100.25 C355.41 92.36, 367.08 81.7, 375.44 69.31 M352.87 101.37 C358.58 97.02, 363.37 89.78, 375.18 75.71 M352.87 101.37 C358.26 92.43, 369.05 85.22, 375.18 75.71 M359.17 100.22 C362.95 96.45, 371.81 84.9, 374.91 82.11 M359.17 100.22 C363.68 94.75, 368.79 89.58, 374.91 82.11" stroke="#4c6ef5" stroke-width="0.5" fill="none"></path><path d="M25 0 M25 0 C102.47 1.71, 183.66 4.12, 351 0 M25 0 C132.07 -2.66, 240.32 -1.08, 351 0 M351 0 C366.72 -2.61, 376 6.6, 376 25 M351 0 C366.67 -4.48, 374.43 10.08, 376 25 M376 25 C380.22 40.44, 374.76 54.21, 376 75 M376 25 C377.77 39.65, 378.37 52.87, 376 75 M376 75 C375.97 92.96, 368.19 99.32, 351 100 M376 75 C374.37 92.36, 366.07 102.81, 351 100 M351 100 C234.9 99.46, 124.76 103.18, 25 100 M351 100 C253.48 99, 159.07 97.53, 25 100 M25 100 C8.16 99.31, -2.49 89.17, 0 75 M25 100 C12.28 100.92, 2.74 90.74, 0 75 M0 75 C-1.08 59.7, 1.24 50.74, 0 25 M0 75 C2.44 56.29, 1.85 34.98, 0 25 M0 25 C2.38 10.85, 6.86 -2.93, 25 0 M0 25 C-1.05 3.9, 11.97 -4.1, 25 0" stroke="#000000" stroke-width="1" fill="none"></path></g><g transform="translate(251.87905812226677 619.8487292430136) rotate(0 183 22.5)"><text x="183" y="32" font-family="Virgil, Segoe UI Emoji" font-size="36px" fill="#000000" text-anchor="middle" style="white-space: pre;" direction="ltr">VotingUserRepository</text></g><g stroke-linecap="round"><g transform="translate(557.4987185597802 258.49572835001106) rotate(0 85.3834013254421 86.07351947335745)"><path d="M-0.36 -0.37 C18.53 0.21, 84.4 -8.19, 112.92 3.53 C141.44 15.25, 167.69 43.43, 170.77 69.92 C173.85 96.42, 156.89 144.76, 131.39 162.49 C105.9 180.22, 36.66 173.87, 17.78 176.3 M1.65 -1.61 C20.41 -1.36, 83.91 -9.72, 111.93 1.87 C139.95 13.47, 166.42 41.57, 169.77 67.96 C173.11 94.35, 157.51 142.13, 131.99 160.21 C106.46 178.29, 35.9 173.78, 16.63 176.44" stroke="#000000" stroke-width="1" fill="none"></path></g><g transform="translate(557.4987185597802 258.49572835001106) rotate(0 85.3834013254421 86.07351947335745)"><path d="M43.73 164.81 C38.48 167.16, 30.86 172.06, 17.5 177.46 M44.13 164.63 C37.5 167.04, 29.15 170.6, 17.39 175.9" stroke="#000000" stroke-width="1" fill="none"></path></g><g transform="translate(557.4987185597802 258.49572835001106) rotate(0 85.3834013254421 86.07351947335745)"><path d="M44.63 185.32 C39.14 182.22, 31.28 181.68, 17.5 177.46 M45.04 185.13 C38 182.21, 29.42 180.43, 17.39 175.9" stroke="#000000" stroke-width="1" fill="none"></path></g></g><g transform="translate(437.2914353335557 323.20589495367267) rotate(0 141.5 12.5)"><text x="0" y="18" font-family="Virgil, Segoe UI Emoji" font-size="20px" fill="#e67700" text-anchor="start" style="white-space: pre;" direction="ltr">vote_for_article_use_case</text></g><g stroke-linecap="round"><g transform="translate(201.92759506708205 398.9059163201391) rotate(0 -63.363562191120224 135.6724101679181)"><path d="M-0.71 0.59 C-15.83 3.67, -65.74 2.76, -90.76 17.81 C-115.78 32.85, -138.19 60.98, -150.82 90.86 C-163.46 120.74, -170.78 169.88, -166.59 197.07 C-162.4 224.26, -139.84 241.69, -125.68 254 C-111.51 266.3, -109.38 268.64, -81.62 270.89 C-53.86 273.15, 20.12 268.38, 40.86 267.52 M1.12 -0.15 C-14.15 2.67, -66.33 1.29, -91.68 16.15 C-117.02 31.01, -138.52 58.65, -150.96 89.02 C-163.41 119.39, -170.32 170.86, -166.33 198.36 C-162.34 225.86, -140.8 242.06, -127.02 254.01 C-113.25 265.95, -111.7 267.93, -83.69 270.02 C-55.68 272.11, 20.03 266.81, 41.05 266.54" stroke="#000000" stroke-width="1" fill="none"></path></g><g transform="translate(201.92759506708205 398.9059163201391) rotate(0 -63.363562191120224 135.6724101679181)"><path d="M14.28 278.06 C23.15 276.69, 31.56 271.34, 41.65 266.94 M12.58 278.54 C20.86 274.22, 26.81 273.35, 40.94 265.97" stroke="#000000" stroke-width="1" fill="none"></path></g><g transform="translate(201.92759506708205 398.9059163201391) rotate(0 -63.363562191120224 135.6724101679181)"><path d="M13.44 257.55 C22.44 262.32, 31.1 263.1, 41.65 266.94 M11.74 258.03 C20.28 258.63, 26.44 262.67, 40.94 265.97" stroke="#000000" stroke-width="1" fill="none"></path></g></g><g stroke-linecap="round"><g transform="translate(202.8825896957601 437.56567362648786) rotate(0 -32.653189201769294 92.85369713857737)"><path d="M0 -0.31 C-8.21 3.11, -36.41 11.21, -50.09 20.61 C-63.78 30.01, -73.31 44.23, -82.12 56.11 C-90.93 67.99, -100 79.13, -102.97 91.9 C-105.94 104.67, -105.25 120.65, -99.93 132.76 C-94.6 144.86, -94.3 155.45, -71.04 164.53 C-47.77 173.61, 21.31 183.44, 39.66 187.23 M-1.46 -1.52 C-9.72 2.07, -37.84 12.7, -50.87 21.97 C-63.9 31.23, -71.1 42.2, -79.65 54.06 C-88.2 65.92, -98.62 80.02, -102.18 93.13 C-105.74 106.25, -106.42 120.51, -101.01 132.76 C-95.6 145.01, -92.75 157.78, -69.73 166.63 C-46.7 175.49, 19.16 182.5, 37.14 185.88" stroke="#000000" stroke-width="1" fill="none"></path></g><g transform="translate(202.8825896957601 437.56567362648786) rotate(0 -32.653189201769294 92.85369713857737)"><path d="M7.23 192.43 C13.9 189.15, 22.13 190.84, 37.55 187.1 M8.55 191.88 C15.04 190.7, 20.83 188.84, 36.64 185.71" stroke="#000000" stroke-width="1" fill="none"></path></g><g transform="translate(202.8825896957601 437.56567362648786) rotate(0 -32.653189201769294 92.85369713857737)"><path d="M10.26 172.13 C16.24 173.5, 23.78 179.84, 37.55 187.1 M11.57 171.58 C17.31 175.21, 22.38 178.18, 36.64 185.71" stroke="#000000" stroke-width="1" fill="none"></path></g></g><g transform="translate(25.56524990549275 676.3175993951517) rotate(0 112.99999999999997 12.5)"><text x="0" y="18" font-family="Virgil, Segoe UI Emoji" font-size="20px" fill="#364fc7" text-anchor="start" style="white-space: pre;" direction="ltr">find_voting_user_port</text></g><g transform="translate(128.60006409939956 560.1508971177078) rotate(0 118 12.5)"><text x="0" y="18" font-family="Virgil, Segoe UI Emoji" font-size="20px" fill="#364fc7" text-anchor="start" style="white-space: pre;" direction="ltr">save_voting_user_port</text></g><g stroke-linecap="round"><g transform="translate(353.48937524892574 73.93197354940312) rotate(0 -0.4164686926978334 69.21916465373171)"><path d="M-0.12 0.69 C-0.01 23.6, 0.78 114.21, 0.8 136.98 M-1.63 0.01 C-1.67 23.14, -0.05 115.31, 0.06 138.42" stroke="#2b8a3e" stroke-width="1" fill="none"></path></g><g transform="translate(353.48937524892574 73.93197354940312) rotate(0 -0.4164686926978334 69.21916465373171)"><path d="M-9.38 111.01 C-7.6 118.51, -3.71 128.88, -0.71 138.25 M-10.03 109.66 C-7.46 117.62, -6.04 124.89, -0.67 139.37" stroke="#2b8a3e" stroke-width="1" fill="none"></path></g><g transform="translate(353.48937524892574 73.93197354940312) rotate(0 -0.4164686926978334 69.21916465373171)"><path d="M11.14 110.76 C6.48 118.33, 3.94 128.77, -0.71 138.25 M10.49 109.41 C7.96 117.33, 4.27 124.66, -0.67 139.37" stroke="#2b8a3e" stroke-width="1" fill="none"></path></g></g><g transform="translate(371.26826148172836 90.43336182195543) rotate(0 87 12.5)"><text x="0" y="18" font-family="Virgil, Segoe UI Emoji" font-size="20px" fill="#2b8a3e" text-anchor="start" style="white-space: pre;" direction="ltr">/api/article_vote</text></g><g stroke-linecap="round" transform="translate(10 129.19713798902956) rotate(0 373.7537377622117 329.3073473256243)"><path d="M164.65 0 M164.65 0 C290.77 1.02, 416.81 0.92, 582.85 0 M582.85 0 C692.67 -1.81, 749.14 56.59, 747.51 164.65 M747.51 164.65 C747.91 276.44, 750.13 385.19, 747.51 493.96 M747.51 493.96 C746.16 602.56, 693.93 658.44, 582.85 658.61 M582.85 658.61 C471.47 660.25, 360 660, 164.65 658.61 M164.65 658.61 C55.94 659.5, 1.98 605.12, 0 493.96 M0 493.96 C-0.67 404.74, -2.51 312.84, 0 164.65 M0 164.65 C1.55 54.81, 54.98 0.9, 164.65 0" stroke="#a61e4d" stroke-width="1.5" fill="none" stroke-dasharray="8 9"></path></g><g transform="translate(55.37686888110579 145.082657002446) rotate(0 123.5 22.5)"><text x="0" y="32" font-family="Virgil, Segoe UI Emoji" font-size="36px" fill="#a61e4d" text-anchor="start" style="white-space: pre;" direction="ltr">IoC Container</text></g></svg>