<svg version="1.1" xmlns="http://www.w3.org/2000/svg" viewBox="0 0 760.5611541929401 321.3218970037126" width="760.5611541929401" height="321.3218970037126">
  <!-- svg-source:excalidraw -->
  
  <defs>
    <style class="style-fonts">
      @font-face {
        font-family: "Virgil";
        src: url("https://excalidraw.com/Virgil.woff2");
      }
      @font-face {
        font-family: "Cascadia";
        src: url("https://excalidraw.com/Cascadia.woff2");
      }
    </style>
  </defs>
  <g stroke-linecap="round" transform="translate(312.7585961867205 141.77912532677163) rotate(0 89.5 45.5)"><path d="M2.94 9.18 C2.94 9.18, 2.94 9.18, 2.94 9.18 M2.94 9.18 C2.94 9.18, 2.94 9.18, 2.94 9.18 M3.73 20.47 C5.13 15.99, 8.51 14.34, 14.23 8.39 M3.73 20.47 C6.69 15.91, 10.34 13.37, 14.23 8.39 M3.86 32.51 C13.31 23.4, 19.68 15.12, 28.14 4.59 M3.86 32.51 C11.1 23.53, 17.39 16.36, 28.14 4.59 M4 44.55 C11.71 37.73, 19.45 26.18, 38.77 4.55 M4 44.55 C12.48 34.67, 21.32 25.06, 38.77 4.55 M3.47 57.35 C15.12 44.44, 25.75 30.74, 49.4 4.52 M3.47 57.35 C18.55 39.94, 31.16 23.94, 49.4 4.52 M3.61 69.39 C18.85 48.95, 37.4 29.91, 60.03 4.48 M3.61 69.39 C25.56 44.39, 47.37 19.59, 60.03 4.48 M6.37 78.41 C32.31 47.96, 56.02 20.1, 70.66 4.45 M6.37 78.41 C24.18 59.37, 40.51 38.25, 70.66 4.45 M9.12 87.43 C28.9 61.87, 52.93 38.97, 81.29 4.41 M9.12 87.43 C35.89 56.56, 64.4 25.65, 81.29 4.41 M15.16 92.68 C38.24 66.94, 60.95 38.6, 91.92 4.38 M15.16 92.68 C38.78 64.93, 61.81 38.06, 91.92 4.38 M25.13 93.4 C52.15 63.48, 79.47 35.39, 102.55 4.34 M25.13 93.4 C51.22 65.16, 76.05 35.62, 102.55 4.34 M35.76 93.37 C59.68 68.2, 81.46 43.22, 113.18 4.31 M35.76 93.37 C63.86 59.45, 93.5 26.17, 113.18 4.31 M46.39 93.33 C68.76 66, 93.16 40.03, 123.81 4.27 M46.39 93.33 C71.65 64.96, 96.31 35.42, 123.81 4.27 M57.02 93.3 C76.93 71.89, 97.66 46.1, 133.78 5 M57.02 93.3 C86.63 59.45, 116.65 24.47, 133.78 5 M67.65 93.26 C84.32 72.43, 103.26 54.65, 144.41 4.96 M67.65 93.26 C95.72 62.11, 121.37 32.01, 144.41 4.96 M78.28 93.23 C111.12 57.71, 139.79 23.21, 158.32 1.15 M78.28 93.23 C98.01 72.81, 116.72 51.34, 158.32 1.15 M88.91 93.19 C111.37 66.82, 129.58 45.41, 166.99 3.38 M88.91 93.19 C115.52 64.11, 142.05 32.99, 166.99 3.38 M99.54 93.16 C122.17 67.96, 144.67 43.52, 174.34 7.12 M99.54 93.16 C128.7 59.63, 158.24 24.74, 174.34 7.12 M110.17 93.12 C136.6 63.68, 162.89 31.23, 180.37 12.37 M110.17 93.12 C133.34 68.34, 154.57 42.41, 180.37 12.37 M120.81 93.09 C141.51 67.19, 163.94 42.77, 183.13 21.39 M120.81 93.09 C141.3 69.94, 161.91 46.97, 183.13 21.39 M131.44 93.05 C144.03 82.34, 152.21 69.28, 183.26 33.43 M131.44 93.05 C147.44 75.23, 162.78 59.37, 183.26 33.43 M142.07 93.02 C151.26 82, 162.49 71.14, 183.4 45.47 M142.07 93.02 C153.43 80.39, 163.11 68.59, 183.4 45.47 M152.7 92.99 C165.37 79.42, 174.72 68.05, 183.53 57.51 M152.7 92.99 C163.53 79.89, 174.12 66.82, 183.53 57.51 M161.36 95.22 C168.36 90.15, 170.59 81.21, 182.35 71.06 M161.36 95.22 C165.36 90.06, 169.99 84.43, 182.35 71.06" stroke="#40c057" stroke-width="1" fill="none"></path><path d="M22.75 0 M22.75 0 C75.4 1.92, 128.66 0.08, 156.25 0 M22.75 0 C73.67 0.01, 126.11 0.39, 156.25 0 M156.25 0 C170.99 1.17, 178.95 7.16, 179 22.75 M156.25 0 C171.63 -0.44, 180.74 9.34, 179 22.75 M179 22.75 C177.12 32.39, 177.01 39.7, 179 68.25 M179 22.75 C177.83 40.44, 177.81 58.13, 179 68.25 M179 68.25 C179.05 82.21, 171.1 92.72, 156.25 91 M179 68.25 C178.32 81.98, 169.5 90.95, 156.25 91 M156.25 91 C113.1 90.09, 70.32 92.25, 22.75 91 M156.25 91 C115.91 91.69, 73.73 90.71, 22.75 91 M22.75 91 C6.51 92.53, 1.72 81.69, 0 68.25 M22.75 91 C6.31 90.35, -2.19 84.87, 0 68.25 M0 68.25 C1.93 50.63, 0.88 31.11, 0 22.75 M0 68.25 C0.76 52.05, 0.29 37.2, 0 22.75 M0 22.75 C-1.12 9.23, 8.6 1.18, 22.75 0 M0 22.75 C1.62 6.17, 8.68 -1, 22.75 0" stroke="#000000" stroke-width="2" fill="none"></path></g><g transform="translate(349.6571438147689 177.79941580116196) rotate(0 60.5 12.5)"><text x="0" y="18" font-family="Virgil, Segoe UI Emoji" font-size="20px" fill="#000000" text-anchor="start" style="white-space: pre;" direction="ltr">Django ORM</text></g><g stroke-linecap="round" transform="translate(648.5611541929401 129.77912532677163) rotate(0 51 49.5)"><path d="M9.85 3.27 C9.85 3.27, 9.85 3.27, 9.85 3.27 M9.85 3.27 C9.85 3.27, 9.85 3.27, 9.85 3.27 M7.36 18.33 C7.17 13.86, 11.2 13.53, 23.11 0.21 M7.36 18.33 C10.41 14.83, 15.35 11.61, 23.11 0.21 M6.84 31.12 C18.22 19.63, 25.08 12.64, 29.8 4.71 M6.84 31.12 C12.96 25.15, 18.47 16.61, 29.8 4.71 M6.32 43.92 C15.62 36.96, 22.35 24.15, 40.43 4.67 M6.32 43.92 C18.16 27.35, 33.62 11.94, 40.43 4.67 M5.79 56.71 C16.95 46.5, 31.9 29.54, 51.06 4.64 M5.79 56.71 C23.28 37.8, 40.94 15.03, 51.06 4.64 M0.68 74.79 C14.56 60.56, 34.95 37.36, 61.69 4.6 M0.68 74.79 C21.81 50.37, 46.07 24.58, 61.69 4.6 M2.78 84.57 C23.94 58.58, 46.36 36.26, 72.32 4.57 M2.78 84.57 C25.01 59.46, 50.39 30.09, 72.32 4.57 M6.85 92.08 C36.16 55.26, 64.96 21.77, 84.92 2.27 M6.85 92.08 C37 58.37, 69.14 24.04, 84.92 2.27 M12.23 98.08 C34.51 78.77, 53.82 58.87, 93.58 4.5 M12.23 98.08 C40.23 66.99, 62.44 37.46, 93.58 4.5 M20.89 100.31 C50.24 70.96, 79.7 31.81, 98.96 10.5 M20.89 100.31 C45.03 69.57, 69.58 41.43, 98.96 10.5 M31.52 100.28 C49.8 77.94, 64.93 54.9, 101.72 19.52 M31.52 100.28 C57.04 72.44, 77.78 45.5, 101.72 19.52 M42.15 100.24 C60.87 77.22, 80 61.97, 105.14 27.79 M42.15 100.24 C65.03 70.34, 90.58 45.28, 105.14 27.79 M52.78 100.21 C66.41 86.56, 80.63 74.2, 105.27 39.83 M52.78 100.21 C67.59 82.19, 82.96 63.27, 105.27 39.83 M62.76 100.93 C77.18 87, 81.63 75.02, 105.4 51.87 M62.76 100.93 C71.03 90.67, 81.65 77.68, 105.4 51.87 M73.39 100.9 C84.03 93.32, 90.46 80.92, 104.88 64.67 M73.39 100.9 C80.74 91.99, 89.85 83.18, 104.88 64.67 M82.05 103.13 C91.06 94.58, 95.26 85.03, 101.73 80.48 M82.05 103.13 C85.11 100.06, 89.3 92.91, 101.73 80.48 M9.7 95.54 C9.7 95.54, 9.7 95.54, 9.7 95.54 M9.7 95.54 C9.7 95.54, 9.7 95.54, 9.7 95.54 M21.74 95.41 C19.91 92.6, 18.59 89.28, 8.15 83.6 M21.74 95.41 C15.73 93.63, 13.83 87.89, 8.15 83.6 M33.78 95.28 C27.08 87.42, 21.07 79.72, 4.34 69.69 M33.78 95.28 C23.08 86.04, 15.36 78.64, 4.34 69.69 M46.57 95.8 C32.81 89.72, 29.63 77.44, 4.31 59.06 M46.57 95.8 C31.33 83.93, 18.08 73.13, 4.31 59.06 M58.61 95.67 C43.93 87.85, 34.39 72.02, 5.03 49.09 M58.61 95.67 C39.3 78.28, 22.83 60.89, 5.03 49.09 M70.65 95.53 C53.93 85.23, 44.47 75.19, 5 38.46 M70.65 95.53 C49.05 79.46, 25.38 57.13, 5 38.46 M81.19 94.09 C52.64 72.19, 33.63 53.83, 4.96 27.83 M81.19 94.09 C64.1 77.31, 43.14 63.11, 4.96 27.83 M93.23 93.96 C79.39 79.56, 58.5 58.75, 5.68 17.85 M93.23 93.96 C69.47 75.05, 44.44 51.92, 5.68 17.85 M99.23 88.57 C71.6 68.01, 48.81 44, 6.4 7.88 M99.23 88.57 C72.78 65.31, 46.6 43.93, 6.4 7.88 M101.46 79.91 C70.84 51.01, 40.55 26.51, 11.65 1.84 M101.46 79.91 C80.49 62.31, 60.13 42.87, 11.65 1.84 M101.43 69.28 C75.69 43.13, 49.51 24.22, 20.67 -0.92 M101.43 69.28 C81.2 48.39, 55.26 30.91, 20.67 -0.92 M101.39 58.65 C80.59 42.41, 66.96 33.25, 28.94 -4.33 M101.39 58.65 C79.65 41.33, 59.64 22.85, 28.94 -4.33 M102.11 48.68 C89.23 34.27, 73.15 25.33, 40.98 -4.46 M102.11 48.68 C79.83 29.27, 58.43 6.81, 40.98 -4.46 M102.08 38.05 C81.92 24.33, 63.31 11.36, 53.02 -4.6 M102.08 38.05 C85.09 24.93, 70.77 13.79, 53.02 -4.6 M102.04 27.42 C88.94 16.82, 81.98 5.12, 65.82 -4.07 M102.04 27.42 C92.88 20.01, 81.4 7.92, 65.82 -4.07 M105.78 20.07 C99.65 13.4, 91.41 3.28, 83.14 0.39 M105.78 20.07 C100.74 16.52, 94.92 11.46, 83.14 0.39" stroke="#ced4da" stroke-width="1" fill="none"></path><path d="M24.75 0 M24.75 0 C38.5 4.8, 43.17 -1.96, 77.25 0 M24.75 0 C45.43 0.65, 62.74 -1.97, 77.25 0 M77.25 0 C94.88 -0.11, 98.31 6.79, 102 24.75 M77.25 0 C97.69 1.82, 104.37 5.65, 102 24.75 M102 24.75 C97.67 40.87, 98.71 58.9, 102 74.25 M102 24.75 C99.86 44.77, 101.09 62.18, 102 74.25 M102 74.25 C103.82 89.33, 94.87 97.96, 77.25 99 M102 74.25 C97.62 86.63, 91.61 98.51, 77.25 99 M77.25 99 C61.8 98.45, 51.4 102.77, 24.75 99 M77.25 99 C68 97.77, 55.91 97.07, 24.75 99 M24.75 99 C5.93 101.07, 0.37 92.42, 0 74.25 M24.75 99 C3.67 96.1, 0.69 93.87, 0 74.25 M0 74.25 C-3.62 56.68, 0.01 49.06, 0 24.75 M0 74.25 C0.57 57.09, 1.32 40.04, 0 24.75 M0 24.75 C0.92 10.41, 4.81 -3.89, 24.75 0 M0 24.75 C3.21 11.44, 10.37 -3.97, 24.75 0" stroke="#000000" stroke-width="2" fill="none"></path></g><g stroke-linecap="round"><g transform="translate(472.1684959780438 167.55595086103426) rotate(0 87.23951047930274 -1.2869186821872063)"><path d="M0.52 -0.81 C29.88 -1.59, 146.2 -3.52, 175.15 -3.95 M-0.67 1.38 C28.68 0.72, 145.49 -1.35, 174.47 -2.5" stroke="#000000" stroke-width="1" fill="none"></path></g><g transform="translate(472.1684959780438 167.55595086103426) rotate(0 87.23951047930274 -1.2869186821872063)"><path d="M145.22 9.39 C152.15 5.4, 159 2.86, 176.43 -3.34 M145.79 9.35 C156.41 3.98, 167.66 0.01, 173.59 -2.64" stroke="#000000" stroke-width="1" fill="none"></path></g><g transform="translate(472.1684959780438 167.55595086103426) rotate(0 87.23951047930274 -1.2869186821872063)"><path d="M144.67 -11.13 C151.84 -10.77, 158.81 -8.95, 176.43 -3.34 M145.23 -11.17 C155.9 -9.02, 167.35 -5.48, 173.59 -2.64" stroke="#000000" stroke-width="1" fill="none"></path></g></g><g stroke-linecap="round"><g transform="translate(646.7687414239159 196.53620036473365) rotate(0 -82.8693035999026 1.60823418916803)"><path d="M-0.13 0.43 C-27.73 0.88, -138.15 1.57, -165.6 2.02 M-1.66 -0.39 C-28.89 0.34, -136.07 3.3, -163.41 3.6" stroke="#000000" stroke-width="1" fill="none"></path></g><g transform="translate(646.7687414239159 196.53620036473365) rotate(0 -82.8693035999026 1.60823418916803)"><path d="M-134.71 -8.87 C-143.72 -4.39, -150.21 -0.43, -164.72 2.55 M-136.15 -7.21 C-141.5 -5.87, -147.55 -3.47, -163.79 3.48" stroke="#000000" stroke-width="1" fill="none"></path></g><g transform="translate(646.7687414239159 196.53620036473365) rotate(0 -82.8693035999026 1.60823418916803)"><path d="M-134.29 11.65 C-143.31 10, -149.92 7.83, -164.72 2.55 M-135.73 13.31 C-140.99 10.24, -147.14 8.23, -163.79 3.48" stroke="#000000" stroke-width="1" fill="none"></path></g></g><g transform="translate(677.5611541929401 161.77912532677163) rotate(0 22 17.5)"><text x="22" y="25" font-family="Virgil, Segoe UI Emoji" font-size="28px" fill="#000000" text-anchor="middle" style="white-space: pre;" direction="ltr">DB</text></g><g stroke-linecap="round" transform="translate(161.47470477280297 64.71989997824681) rotate(0 185.80669732677734 123.30099851273289)"><path d="M61.65 0 M61.65 0 C141.56 -3.52, 219.98 -1.83, 309.96 0 M61.65 0 C110.21 -3.01, 161.04 -1.34, 309.96 0 M309.96 0 C347.57 -3.86, 370.54 22.88, 371.61 61.65 M309.96 0 C346.84 0.62, 371.88 22.99, 371.61 61.65 M371.61 61.65 C372.09 106.6, 368.54 141.15, 371.61 184.95 M371.61 61.65 C372.05 100.99, 374.73 141.81, 371.61 184.95 M371.61 184.95 C369.5 226.69, 353.72 250.55, 309.96 246.6 M371.61 184.95 C368.38 225.73, 352.84 242.32, 309.96 246.6 M309.96 246.6 C256.01 250.02, 196.65 248.71, 61.65 246.6 M309.96 246.6 C227.92 246.04, 142.39 246.93, 61.65 246.6 M61.65 246.6 C22.3 245.35, -0.11 229.37, 0 184.95 M61.65 246.6 C25.03 249.61, -1.08 225.29, 0 184.95 M0 184.95 C-1.79 157.56, 2.67 127.83, 0 61.65 M0 184.95 C-0.15 149.95, -1.43 115.16, 0 61.65 M0 61.65 C-1.09 20.18, 23.25 1.38, 61.65 0 M0 61.65 C0.84 21.78, 20.65 -3.28, 61.65 0" stroke="#000000" stroke-width="1" fill="none"></path></g><g transform="translate(214.20897852633163 78.59815713190477) rotate(0 144.5 12.5)"><text x="0" y="18" font-family="Virgil, Segoe UI Emoji" font-size="20px" fill="#000000" text-anchor="start" style="white-space: pre;" direction="ltr">Repository - an SPI adapter</text></g><g stroke-linecap="round"><g transform="translate(156.1028164012672 105.5431275245092) rotate(0 -44.327752357948384 -33.67361555043637)"><path d="M-0.52 -0.99 C-15.09 -12.1, -73.47 -55.19, -88.13 -66.35" stroke="#000000" stroke-width="1.5" fill="none" stroke-dasharray="8 9"></path></g><g transform="translate(156.1028164012672 105.5431275245092) rotate(0 -44.327752357948384 -33.67361555043637)"><path d="M-30.92 -9.76 C-21.45 -8.14, -17.26 -6.84, -0.55 -2.83" stroke="#000000" stroke-width="1.5" fill="none"></path></g><g transform="translate(156.1028164012672 105.5431275245092) rotate(0 -44.327752357948384 -33.67361555043637)"><path d="M-18.65 -26.22 C-12.08 -20.72, -10.81 -15.5, -0.55 -2.83" stroke="#000000" stroke-width="1.5" fill="none"></path></g></g><g stroke-linecap="round" transform="translate(140.55085793461694 106.5431275245092) rotate(0 22.567632887563946 7.905357899953486)"><path d="M-1.76 -2.01 L45.05 0.21 L42.53 13.79 L2.99 16.75" stroke="none" stroke-width="0" fill="#4c6ef5"></path><path d="M-2.4 -1.51 C9.37 2.94, 22.67 -2.28, 48.1 0.33 M-1.51 1.03 C14.65 2, 27.07 1.27, 44.76 -1.84 M45.08 0.37 C42.78 7.44, 45.32 10.9, 45.88 17.37 M44.04 1.44 C43.79 6.68, 43.81 11.36, 45.04 15.13 M48.14 19.76 C34.87 19.66, 22.69 20.19, -3.51 16.55 M43.81 15.86 C30.88 15.67, 15.32 17.54, 0.82 14.82 M-1.83 13.62 C-1.35 8.19, 1.68 5.44, -2.28 2.72 M-0.72 16.9 C0.49 9.94, -0.67 2.96, 0.58 -0.74" stroke="#364fc7" stroke-width="1" fill="none"></path></g><g stroke-linecap="round" transform="translate(139.13679385306352 172.65474256232505) rotate(0 22.567632887563946 7.905357899953486)"><path d="M-1.96 3.19 L47.86 -3.63 L45.88 14.77 L2.45 17.74" stroke="none" stroke-width="0" fill="#4c6ef5"></path><path d="M1.95 -0.15 C18.92 2.49, 34.66 -1.2, 43.93 3.82 M1.03 -0.23 C16 -0.31, 34.94 -0.26, 45.11 -1.95 M42.33 -2.92 C44.1 0.78, 43.51 6.25, 44.29 18.68 M45.03 -0.76 C44.3 4.61, 44.21 8.61, 46.29 16.34 M45.93 14.93 C34.44 14.15, 22.77 14.25, -3.64 15.47 M46.52 17.09 C28 14, 11.45 13.37, -1.11 15.61 M1.43 14.63 C0.59 14.09, -0.02 7.99, 1.01 -1.66 M-0.5 16.53 C0.36 11.55, -1.59 9.71, -1.16 0.64" stroke="#364fc7" stroke-width="1" fill="none"></path></g><g stroke-linecap="round"><g transform="translate(156.28472349430672 170.29817357158294) rotate(0 -47.54780954958392 -64.48389604639863)"><path d="M-0.86 -0.62 C-16.71 -21.92, -78.92 -107.43, -94.24 -128.35" stroke="#000000" stroke-width="1.5" fill="none" stroke-dasharray="8 9"></path></g><g transform="translate(156.28472349430672 170.29817357158294) rotate(0 -47.54780954958392 -64.48389604639863)"><path d="M-26.82 -18.82 C-18.56 -10.04, -5.56 -4.79, -0.76 0.74" stroke="#000000" stroke-width="1.5" fill="none"></path></g><g transform="translate(156.28472349430672 170.29817357158294) rotate(0 -47.54780954958392 -64.48389604639863)"><path d="M-10.25 -30.94 C-8.21 -17.77, -1.37 -8.02, -0.76 0.74" stroke="#000000" stroke-width="1.5" fill="none"></path></g></g><g transform="translate(10 10) rotate(0 51.5 12.5)"><text x="0" y="18" font-family="Virgil, Segoe UI Emoji" font-size="20px" fill="#000000" text-anchor="start" style="white-space: pre;" direction="ltr">SPI Ports</text></g><g stroke-linecap="round" transform="translate(175.640668149509 201.25281363385471) rotate(0 60 45)"><path d="M5.33 5.96 C5.33 5.96, 5.33 5.96, 5.33 5.96 M5.33 5.96 C5.33 5.96, 5.33 5.96, 5.33 5.96 M3.5 20.27 C12.36 11.91, 14.95 10.5, 16.62 5.17 M3.5 20.27 C9.12 15.18, 15 7.98, 16.62 5.17 M3.63 32.31 C11.71 25.14, 12.89 21.26, 27.91 4.38 M3.63 32.31 C7.05 26.42, 13.49 19.74, 27.91 4.38 M3.76 44.35 C14.95 26.5, 28.94 12.99, 38.54 4.35 M3.76 44.35 C13.22 33.32, 24.84 17.42, 38.54 4.35 M3.9 56.39 C9.95 45.65, 24.3 34.03, 49.17 4.31 M3.9 56.39 C18.99 39.43, 35.37 19.19, 49.17 4.31 M3.37 69.18 C27.66 46.67, 50.85 17.55, 59.8 4.28 M3.37 69.18 C20.58 50.17, 40.1 29.79, 59.8 4.28 M6.13 78.21 C17.71 60.58, 35.87 51.71, 70.43 4.24 M6.13 78.21 C20.57 60.12, 36.73 45.06, 70.43 4.24 M8.89 87.23 C23.44 72.62, 42.37 50.85, 81.06 4.21 M8.89 87.23 C36.63 55.16, 62.87 26.6, 81.06 4.21 M15.58 91.72 C36.88 73, 50.94 48.32, 91.03 4.93 M15.58 91.72 C32.27 73.07, 47.92 55.87, 91.03 4.93 M25.56 92.44 C42.51 71.6, 66.97 42.27, 102.32 4.14 M25.56 92.44 C42.41 71.82, 60.6 54.04, 102.32 4.14 M36.19 92.41 C58.12 69.06, 71.41 52.68, 111.63 5.62 M36.19 92.41 C55.02 69.36, 74.37 47.12, 111.63 5.62 M46.82 92.37 C63.29 79.13, 80.09 58.08, 118.98 9.36 M46.82 92.37 C68.55 62.3, 93.53 36.45, 118.98 9.36 M57.45 92.34 C83.85 60.88, 107.45 32.59, 123.05 16.87 M57.45 92.34 C80.95 65.86, 100.89 41.49, 123.05 16.87 M68.08 92.3 C82.76 68.29, 102.99 49.51, 125.15 26.64 M68.08 92.3 C82.41 77.69, 94.58 62.32, 125.15 26.64 M78.71 92.27 C86.6 76.1, 98.43 65.82, 124.63 39.44 M78.71 92.27 C88.33 78.48, 104.3 63.33, 124.63 39.44 M89.34 92.24 C102.9 73.79, 117.07 63.26, 124.76 51.48 M89.34 92.24 C97.8 83.9, 105.05 72, 124.76 51.48 M99.97 92.2 C109.36 83.35, 114.05 78.89, 124.9 63.52 M99.97 92.2 C103.21 86.34, 108.31 81.41, 124.9 63.52" stroke="#fab005" stroke-width="1" fill="none"></path><path d="M22.5 0 M22.5 0 C50.19 -2.87, 71.9 0.06, 97.5 0 M22.5 0 C45.27 -1.77, 64.98 -2.99, 97.5 0 M97.5 0 C114.45 -0.91, 116.77 7.53, 120 22.5 M97.5 0 C110.97 -0.46, 116.8 11.41, 120 22.5 M120 22.5 C116.63 41.19, 122.59 56.27, 120 67.5 M120 22.5 C119.9 39.64, 118.62 57.59, 120 67.5 M120 67.5 C116.44 79.3, 109.57 88.06, 97.5 90 M120 67.5 C124.32 80.42, 116.77 87.73, 97.5 90 M97.5 90 C68.87 90.49, 47.68 88.78, 22.5 90 M97.5 90 C71.73 91.14, 46.43 88.57, 22.5 90 M22.5 90 C8.36 91.58, -1.56 82.09, 0 67.5 M22.5 90 C8.21 93.19, -1.19 78.46, 0 67.5 M0 67.5 C-3.01 57.13, 1.37 45.27, 0 22.5 M0 67.5 C2.3 56.59, 0.01 44.8, 0 22.5 M0 22.5 C-1.69 6.53, 5.68 1.9, 22.5 0 M0 22.5 C3.42 7.6, 6.79 0.82, 22.5 0" stroke="#000000" stroke-width="2" fill="none"></path></g><g transform="translate(183.140668149509 206.25281363385471) rotate(0 52.5 40)"><text x="52.5" y="14" font-family="Virgil, Segoe UI Emoji" font-size="16px" fill="#000000" text-anchor="middle" style="white-space: pre;" direction="ltr">Domain Model</text><text x="52.5" y="34" font-family="Virgil, Segoe UI Emoji" font-size="16px" fill="#000000" text-anchor="middle" style="white-space: pre;" direction="ltr">&lt;-&gt;</text><text x="52.5" y="54" font-family="Virgil, Segoe UI Emoji" font-size="16px" fill="#000000" text-anchor="middle" style="white-space: pre;" direction="ltr"> Entity </text><text x="52.5" y="74" font-family="Virgil, Segoe UI Emoji" font-size="16px" fill="#000000" text-anchor="middle" style="white-space: pre;" direction="ltr">mappers</text></g></svg>