<svg version="1.1" xmlns="http://www.w3.org/2000/svg" viewBox="0 0 878.4682122591882 403" width="878.4682122591882" height="403">
  <!-- svg-source:excalidraw -->
  
  <defs>
    <style class="style-fonts">
      @font-face {
        font-family: "Virgil";
        src: url("https://excalidraw.com/Virgil.woff2");
      }
      @font-face {
        font-family: "Cascadia";
        src: url("https://excalidraw.com/Cascadia.woff2");
      }
    </style>
  </defs>
  <g stroke-linecap="round" transform="translate(158.46821225918825 186) rotate(0 73.5 23)"><path d="M0 0 C0 0, 0 0, 0 0 M0 0 C0 0, 0 0, 0 0 M0.46 6.3 C1.14 4.28, 4.38 1.22, 5.22 0.66 M-0.1 6.67 C1.71 4.22, 3.04 2.26, 4.94 0.53 M1.08 13.29 C3.97 8.96, 7.95 4.88, 12.01 -1.42 M-0.41 12.81 C4.68 7.94, 7.84 2.8, 10.09 0.26 M-0.82 16.6 C2.02 12.26, 7.75 11.21, 17.08 0.81 M0.19 19.34 C4.29 14.31, 6.58 10.74, 15.61 0.36 M-0.34 22.91 C5.78 17.62, 12.2 8.36, 22.17 -1.75 M-0.08 24.6 C7.35 16.08, 15.22 6.73, 20.93 0.24 M-1.05 28.81 C5.78 24.87, 13.07 15.37, 25.2 0.07 M0.32 29.86 C7.05 23.8, 14.63 15.58, 25.95 -0.31 M-0.51 34.92 C7.44 28.3, 12.98 21.13, 32.07 0.93 M-0.7 36.54 C7.39 27.82, 13.56 20.5, 31.32 0.72 M-0.09 43.49 C14.28 26.97, 27.76 9.28, 37.66 -0.31 M-0.45 42.56 C13.01 28.98, 24.01 14.54, 36.67 0.56 M0.3 48.25 C14.58 32.59, 26.21 15.54, 43.07 0.49 M1.43 48.14 C13.08 34.24, 23.17 19.52, 42.36 -0.3 M6.76 48.18 C18.92 33.83, 32.96 16.83, 48.26 -0.17 M6.12 46.4 C17.52 34.34, 29.16 20.16, 47.77 0.79 M12.23 47.65 C27.87 30.18, 42.73 10.6, 53.29 -0.43 M11.96 47.5 C24.23 34.5, 35.51 20.46, 53.04 0.66 M16.12 45.41 C28.1 35.97, 35.64 25.35, 58.93 2.08 M16.81 46.43 C34.23 28.78, 50.26 10.9, 57.42 -0.74 M21.13 46.16 C28.68 38.81, 39.56 29.8, 63.93 -0.8 M22.33 46.62 C39.56 28.95, 54.56 10.87, 63.01 -0.36 M26.38 45.62 C37.85 35.19, 46.74 24.67, 69.65 -0.58 M27.79 47.78 C41.32 31.94, 54.79 16.99, 69.03 0.9 M32.14 45.62 C51.15 29.83, 65.36 10.3, 73.29 0.82 M32.36 46.98 C47.2 30.9, 60.57 15.74, 73.64 0.19 M36.97 47.13 C52.17 32.35, 65.26 13.43, 80.54 -1.75 M38.86 46.57 C53.2 31.45, 67.27 13.98, 80.19 -0.33 M42.47 45.32 C60.05 28.99, 73.6 13.1, 86.78 0.29 M44.09 47.13 C58.58 29.88, 73.63 14.06, 85.01 0.44 M50.41 46.65 C59.34 35.8, 64.22 29.21, 89.78 0.38 M48.55 47.48 C62.9 29.62, 78.21 13.48, 89.69 -0.41 M55.44 47.92 C68.9 28.63, 87.47 11.44, 94.87 -2.15 M54.76 47.63 C65.63 34.4, 77.3 21.82, 94.89 0.06 M58.3 45.32 C73.15 32.94, 84.41 21.92, 99.65 1 M59.05 46.75 C68.64 37.47, 77.05 27.68, 100.55 -0.27 M66.47 45.52 C74.75 34.95, 88.92 19.83, 107.15 0.16 M65.8 48.13 C75.28 33.19, 88.42 20.51, 105.76 -0.74 M70.71 47.43 C81.6 36.9, 90.3 22.49, 110.53 -1.26 M70.63 47.9 C79.26 36.56, 87.92 27.14, 110.96 -0.81 M77.05 45.59 C85.46 38.25, 94.77 27.2, 117.63 -0.94 M75.87 46.28 C87.9 33.83, 98.34 19.22, 117.14 0.55 M80.74 47.42 C92.47 32.37, 103.82 20.6, 122.91 1.62 M81.22 47.75 C92.21 34.06, 104.63 21.08, 121.34 0.14 M84.78 49.04 C95.5 38.51, 104.6 28.08, 125.41 -1.51 M85.8 46.81 C102.26 28.22, 117.3 9.55, 127.24 0.73 M90.63 48.37 C100.12 37.01, 107.41 27.29, 131.33 1.05 M91.49 47.92 C103 34.23, 113 22.06, 133.29 0.78 M97.36 48.16 C109.32 34.23, 119.2 21.22, 136.68 1.1 M97.65 46.49 C105.18 36.36, 114.35 25.55, 137.99 0.41 M100.37 49.05 C115.88 29.65, 130.8 13.18, 142.46 1.88 M102.46 46.83 C113.37 33.84, 126.97 19.77, 142.64 0.36 M106.56 48.66 C118.53 31.69, 130.3 17.5, 148.74 -0.07 M107.66 47.13 C123.63 29.08, 136.99 11.62, 148.01 0.73 M113.03 46.63 C120.21 37.26, 128.32 30.64, 147.16 7.13 M111.86 47.44 C122.71 35.01, 131.82 25.27, 148.48 6.97 M118.27 47.66 C128.75 38.44, 136.92 27.75, 147.46 14.22 M117.3 46.6 C129.68 34.62, 141.51 21.14, 147.12 12.23 M124.81 46.66 C131.65 37.12, 139.42 29.59, 147.57 16.94 M123.13 48.25 C132.22 37.99, 139.89 28.76, 147.37 19.45 M130.45 47.68 C134.06 40.91, 137.77 37.57, 148.84 23.78 M128.21 47.79 C135.12 39.64, 143.51 31.45, 146.87 26.06 M134.95 49.11 C139.84 44.01, 143.55 36.74, 146.58 31.83 M134.39 48.33 C138.2 42.9, 144.2 35.96, 147.65 31.66 M139.25 46.75 C141.73 44.36, 145.91 41.26, 148.03 36.45 M139.31 47.42 C142.34 43.29, 146.13 40.12, 148.38 36.58 M144.23 47.09 C145.26 46.27, 145.92 45.98, 147.87 43.85 M144.15 47.56 C145.18 46.28, 145.95 45.11, 147.55 43.54" stroke="#228be6" stroke-width="0.5" fill="none"></path><path d="M0.41 -1.94 C52.44 0.58, 104.85 2.47, 147.92 -0.04 M0.53 0.03 C57.29 -0.29, 114 -0.78, 147.65 0.89 M147.5 1.56 C148.65 10.65, 148.66 23.16, 147.24 44 M147.4 -0.12 C146.48 14.65, 147.02 32.05, 146.34 45.54 M145.31 45.31 C101.49 45.3, 56.78 43.65, 1.02 45.3 M147.46 45.44 C95.21 45.48, 45.52 44.77, 0.32 46.23 M0.5 44.86 C-0.33 27.73, -1.67 14.97, 0.69 1.25 M-0.71 46.28 C-0.52 36.82, -0.24 26.82, 0.79 -0.19" stroke="#000000" stroke-width="1" fill="none"></path></g><g transform="translate(180.46821225918825 196.5) rotate(0 51.5 12.5)"><text x="51.5" y="18" font-family="Virgil, Segoe UI Emoji" font-size="20px" fill="#000000" text-anchor="middle" style="white-space: pre;" direction="ltr">VotingUser</text></g><g stroke-linecap="round" transform="translate(444.46821225918825 126) rotate(0 91.5 30)"><path d="M0 0 C0 0, 0 0, 0 0 M0 0 C0 0, 0 0, 0 0 M-0.44 6.33 C1.62 5.04, 2.73 3.25, 4.55 -0.31 M-0.29 6.12 C0.71 5.3, 2.04 3.76, 5.33 0.66 M0.42 10.84 C2.14 8.15, 5.7 5.66, 10.86 -0.88 M0.52 11.43 C4.13 8.62, 6.68 4.03, 10.51 0.53 M1.43 18.45 C5.99 10.86, 11.07 8.05, 13.68 -1.11 M0.12 17.46 C5.26 10.57, 12.03 4.19, 15.61 -0.64 M-1.55 22.8 C7.35 16.37, 10.31 11.91, 21.85 -0.26 M0.48 24.03 C4.67 18.89, 8.71 14.1, 20.4 -0.47 M-0.02 30.59 C9.31 18.92, 17.03 9.83, 24.58 0.32 M0.92 29.57 C9.55 18.32, 19.56 6.84, 25.72 0.09 M1.03 38.79 C10.62 23.16, 22.81 12.85, 31.72 -1.73 M-0.3 37.16 C7.83 29.19, 14.57 20.47, 31.93 0.38 M1.2 43.62 C7.92 35.17, 16.37 23.26, 38.52 1.04 M0.7 42.6 C10 31.82, 19.22 19.2, 37.12 1.2 M0.6 47.92 C8.55 40.14, 19.24 26.95, 42.78 -1 M-1.06 49.63 C14.74 31.7, 28.14 15.61, 42.96 0.75 M0.45 54.9 C13.22 42.42, 21.82 28.85, 45.55 0.49 M-0.22 54.64 C15.11 36.94, 30.64 18.31, 46.93 -0.38 M0.33 58.52 C16.43 39.89, 34.97 20.46, 52.34 0.86 M-0.22 60.92 C17.74 40.67, 35.22 19.44, 54.1 0.74 M5.44 62.2 C21.06 44.46, 34.97 25.48, 57.79 1.55 M6.47 60.31 C17.1 47.79, 28.76 33.83, 57.47 0.35 M10.66 59.77 C31.68 39.38, 49.94 18.15, 62.84 -0.85 M12.15 60.03 C27.56 40.54, 45.19 21.7, 63.66 -0.03 M15.72 61.69 C33.05 38.82, 51.87 20.57, 67.46 0.48 M15.51 59.81 C27.68 46.58, 40.32 32.54, 69.28 -0.59 M23.09 60.13 C32.77 44.39, 44.77 32.41, 75.8 -0.4 M21.2 60.87 C39.95 39.71, 58.79 16.43, 74.65 0.64 M28.68 62.02 C38.17 47.74, 49.13 34.23, 80.89 0.95 M27.1 59.91 C40.7 45.23, 52.97 31.25, 80.1 0.88 M33.06 60.15 C49.25 39.82, 66.65 19.84, 85.83 0.34 M33.09 60.08 C49.07 42.51, 63.87 25.72, 85.77 0.47 M36.07 62.2 C52 41.47, 69.04 23.58, 88.48 0.06 M38.38 60.92 C57.15 37.95, 74.7 16.17, 89.87 -0.1 M44.1 61.8 C61.8 40.37, 77.82 19.89, 94.63 -2.09 M42.21 59.35 C59.12 41.21, 73.06 23.69, 96.45 -0.27 M48.71 59.62 C63.17 44.76, 77.5 26.22, 98.73 -1.71 M47.21 59.66 C62.21 43.69, 75.75 27.65, 99.73 -0.37 M53.2 59.18 C70.01 41.12, 86.88 22.83, 105.01 1.24 M53.48 61.18 C69.71 43.27, 84.58 23.7, 105.81 0.25 M58.53 60.12 C75.18 44.1, 89.08 25.2, 112.24 1.53 M59.15 60.52 C72.06 45.57, 87.28 29.17, 111.02 0.29 M63.37 61.56 C77.19 48.6, 88.69 32.13, 118.21 -1.56 M63.98 60.83 C84.37 37.67, 106.08 13.7, 117 1.15 M68.55 59.9 C82.76 48.33, 93.17 31.74, 123.71 -0.92 M68.46 60.43 C82.98 46.44, 94.65 31.31, 122.3 0.16 M73.79 59.88 C89.7 39.04, 109.66 22.19, 126.51 -0.25 M74.07 59.89 C84.37 46.87, 95.57 34.21, 126.88 0.83 M78.88 59.61 C93.11 45.13, 109.46 27.56, 131.91 1.66 M79.1 59.88 C97.72 39.44, 116.54 20.09, 132.31 0.54 M84.37 61.71 C96.43 48.82, 105.84 33.53, 139.36 0.1 M84.91 60.23 C105.29 38.2, 124.84 13.31, 137.01 0.52 M88.73 62.28 C105.81 40.57, 123.02 22.7, 141.72 -0.62 M89.73 59.87 C104.75 46.49, 115.51 31.69, 143.02 0.8 M97.1 62.04 C117.75 37.7, 135.6 16.27, 147.92 2.04 M94.91 59.79 C106.93 47.76, 119.65 34.36, 147.32 0.22 M102.4 59.34 C117.16 45.52, 131.05 27.74, 154.13 -0.24 M100.73 61 C116.33 42.62, 131.78 24.36, 154.58 -0.65 M106.08 61.27 C120.12 44.45, 138.38 24.73, 158.46 -1.46 M106.67 61.53 C121.26 44.06, 136.59 26.88, 158.45 0.49 M111.28 60.66 C131.72 37.04, 147.49 17.13, 164.18 1.71 M111.17 60.37 C132.49 38.78, 151.42 15.66, 164.35 0.63 M115.51 59.2 C132.85 44.73, 147.19 28.56, 170.35 -1 M115.97 60.47 C136.2 38.59, 155.26 15.85, 168.74 -0.56 M123.86 60.47 C137.36 44.38, 149.47 29.5, 175.05 1.59 M121.83 60.66 C135.49 44.07, 150.63 28.59, 175.9 0.16 M125.67 61.03 C138.87 47.73, 151.05 31.87, 182.05 -0.8 M126.83 60.67 C146.84 38.55, 166.14 16.19, 179.22 -0.3 M131.72 59.45 C148.34 42.2, 165.64 22.86, 182.68 0.63 M134.18 61.07 C147.03 45.64, 159.35 29.58, 184.68 0.99 M138.93 59.38 C151.91 43.25, 166.91 28.47, 182.53 6.86 M138.45 60.25 C155.05 40.62, 173.55 21.23, 184.09 7.04 M143.53 58.65 C157.48 44.91, 172.71 29.64, 184.53 13.03 M143.4 60.36 C156.26 46.65, 169.91 31.16, 183.79 12.77 M149.77 60.28 C159.07 49.63, 170.86 37.82, 185.08 21.58 M148.23 60.35 C161.63 45.4, 175.33 28.63, 183.41 19.16 M155.08 61.56 C158.97 53.97, 167.56 45.07, 185.24 24.78 M155.38 59.85 C165.54 48.58, 175.98 35.74, 184.59 25.58 M158.76 61.14 C168 49.38, 178.84 40.92, 185.36 29.83 M158.8 60.2 C165.76 53.41, 171.12 48.6, 184.27 31.84 M163.21 60.05 C172.23 53.09, 178.65 46.2, 183.68 38.6 M165.72 60.38 C171.48 52.65, 178.82 45.77, 184.81 37.87 M170.56 60.8 C175.02 57.1, 180.5 52.17, 186.21 45.02 M170.95 60.03 C174.69 53.72, 181.46 47.04, 184.53 43.92 M175.18 61.04 C176.37 58.97, 180.09 56.06, 183.23 50.3 M175.75 60.3 C177.59 58.31, 179.79 56.3, 183.61 49.95 M180.48 60.71 C182.05 58.15, 183.38 57.27, 184.33 56.18 M180.72 60.3 C182.37 58.69, 184 56.63, 184.38 55.82" stroke="#fab005" stroke-width="0.5" fill="none"></path><path d="M-0.72 1.48 C69.38 2.51, 133.98 0.89, 182.07 -0.35 M-0.25 -0.96 C64.83 0.92, 129.96 0.57, 183.14 -0.25 M184.12 1.31 C181.26 10.83, 184.3 23.68, 183.64 60.36 M183.27 0.46 C183.93 18.6, 184.27 36.61, 183.98 59.3 M183.74 58.29 C131.89 62.12, 82.03 59, -0.97 60.36 M183.6 60.12 C142.8 60.34, 103.11 58.63, -0.01 59.46 M-1.24 60.97 C-1.35 48.88, 1.02 32.45, 1.02 0.67 M0.01 59.94 C0.93 47.4, 0.08 36.06, 0.36 -0.89" stroke="#000000" stroke-width="1" fill="none"></path></g><g transform="translate(454.96821225918825 143.5) rotate(0 81 12.5)"><text x="81" y="18" font-family="Virgil, Segoe UI Emoji" font-size="20px" fill="#000000" text-anchor="middle" style="white-space: pre;" direction="ltr">VotingUserEntity</text></g><g stroke-linecap="round" transform="translate(441.96821225918825 219) rotate(0 91.5 30)"><path d="M0 0 C0 0, 0 0, 0 0 M0 0 C0 0, 0 0, 0 0 M0.04 7.19 C1.75 3.37, 3.29 1.53, 5.33 0.33 M-0.12 6.53 C1.43 4.57, 2.79 2, 4.85 0.57 M0.28 10.92 C5.2 8.3, 7.1 2.63, 10.93 0.86 M-0.5 11.55 C3.58 9.01, 6 4.53, 10.07 0.26 M0.19 18.07 C4.14 12.91, 8.5 9.12, 17.48 -1.54 M-0.38 18.3 C6.04 12.68, 10.81 5.28, 14.72 0.41 M-0.48 23.72 C4.74 16.66, 13.89 9.62, 21.81 -1.04 M-0.01 23.49 C6.24 15.99, 13.44 9.08, 20.55 -0.23 M1.1 28.5 C4.99 25.21, 12.1 19.61, 25.35 -1.48 M0.29 29.58 C10.64 20.1, 19.22 7.61, 25.48 0.18 M-0.34 34.97 C11.55 24.08, 22.43 7.79, 33.45 1.54 M0.22 36.3 C7.9 26.72, 17.93 16.49, 30.91 -0.42 M1.77 42.64 C9.08 30.05, 20.49 16.95, 38.16 1.97 M0.97 41.76 C10.76 30.84, 21.73 17.74, 36.84 -0.03 M-0.12 49.3 C14.16 32.01, 29.37 14.67, 41.42 -1.68 M-0.3 48.68 C10.41 37.09, 18.93 26.61, 42.65 0.44 M-1.19 54.84 C16.17 38.53, 30.17 24.31, 45.72 -1.23 M-0.25 54.07 C18.35 34.72, 34.99 13.2, 48.41 1.11 M-0.9 61.52 C22.14 37.98, 39.29 12.45, 53.33 0.19 M0.49 60.51 C13.84 46.61, 26 30.78, 53.62 0.08 M6.19 58.83 C22.38 43.15, 37.25 22.65, 56.93 1.26 M6.15 60.76 C21.5 43.58, 36.27 24.86, 58.52 -0.55 M12.54 58.3 C30.25 37.15, 53.39 14.89, 62.86 1.46 M10.52 59.65 C28.8 39.5, 47.57 19.25, 62.86 0.25 M14.74 61.79 C35.33 35.21, 56.57 15.57, 69.76 -1.8 M15.66 60.16 C28.46 47.16, 39.52 33.54, 69.19 0.42 M21.46 60.57 C33.58 42.22, 48.4 29.81, 75.8 -2.17 M22.42 59.41 C32.27 46.51, 45.21 34.21, 73.62 -0.22 M26.12 62.35 C37.21 48.81, 49.88 32.26, 81.31 0.75 M26.72 59.68 C43.91 40.17, 62.14 19.42, 79.15 -0.02 M32.07 60.37 C48.21 43.97, 61.53 24.78, 84.02 0.42 M33.35 60.32 C49.09 41.09, 65.17 22.07, 84.37 -0.48 M37.32 60.48 C57.09 37.44, 74.89 17.55, 89.74 0.47 M38.23 60.75 C54.65 42.39, 69.23 22.39, 90.83 -0.36 M43.67 58.16 C59.08 42.02, 70.73 24.19, 95.51 -2.26 M42.19 60.43 C59.61 41.28, 75.66 23.36, 95.76 -0.62 M49.44 61.6 C61.77 44.73, 74.02 31.6, 100.33 -0.66 M47.28 59.83 C60.01 48.31, 71.16 35.12, 101.37 -0.54 M54 61.52 C66.91 45.87, 82.42 27.81, 104.32 -2.28 M53.86 61.14 C66.65 46.23, 79.57 30.6, 105.64 -0.69 M57.69 58.49 C78.88 38.81, 97.18 17.5, 111.43 -0.26 M58.17 59.45 C71.68 44.81, 85.65 28.85, 111.61 -0.96 M63.85 60.21 C83.64 36.39, 104.87 11.29, 115.96 -1.55 M62.93 61.08 C76.61 45.7, 91.14 28.88, 115.44 1.08 M69.33 61.36 C87.99 39.93, 106.19 15.48, 120.51 -1.56 M69.41 61.17 C80.33 47.11, 92.15 33.55, 121.08 0.52 M75.16 60.64 C87.75 44.9, 100.53 29.54, 127.99 -0.84 M74.74 59.74 C94.91 37.58, 113.7 15.49, 127.73 0.23 M81.76 59.83 C97.62 38.08, 114.98 18.2, 134.12 0.66 M80.69 60.6 C100.35 36.57, 121.82 13.34, 133.04 -0.39 M83.6 60.88 C101.24 43.49, 119.94 22.5, 136.11 -1.26 M84.96 61.37 C101.03 41.91, 117.39 22.02, 137.33 -0.41 M92.43 60.92 C103.25 45.04, 115.92 32.91, 141.89 -2.03 M89.93 60.4 C105.29 41.93, 120.75 26.22, 143.42 0.55 M95.94 61.39 C111.63 43.46, 127.45 23.16, 146.76 -1.24 M95.98 60.77 C115.29 40.26, 131.94 18.38, 148.9 -0.68 M100.93 59.05 C120.58 39.41, 136.76 20.34, 154.57 -1.6 M102.23 59.26 C116.68 41.02, 133.95 23.19, 153.88 -0.87 M108.03 59.07 C118.51 43.99, 133.27 28.06, 158.46 2.16 M105.88 60.31 C126.9 36.36, 147.36 12.01, 159.33 0.6 M110.89 62.06 C123.59 44.74, 139.48 31.21, 165.99 0.34 M112.92 60.96 C126.45 42.9, 141.15 26.9, 164.78 -0.31 M118.84 61.19 C128.82 46.49, 141.02 33.76, 167.86 -0.69 M117.47 60.87 C133.43 39.9, 151.13 21.51, 168.69 0.67 M124.09 61.19 C138.6 44.3, 154.59 26.46, 175.08 -1.39 M122.51 59.27 C137.03 42.05, 152.02 25.55, 174.17 0.11 M128.43 59.45 C148.25 37.21, 168.42 13.38, 179.67 1.99 M127.23 60.92 C142.05 43.62, 157.23 25.72, 179.28 -0.18 M134.37 61.08 C151.53 38.74, 166.22 21.88, 182.53 -0.04 M133.72 61.06 C146.73 44.42, 161.01 27.48, 183.5 0.34 M139.92 59.95 C151.23 45.19, 166.48 27.12, 182.14 8.9 M138.35 61.43 C154.44 42.57, 169.04 25.45, 184.01 7.91 M145.67 61.77 C158.38 46.05, 171.22 31.65, 183.6 15.05 M144.48 59.2 C154.83 48.18, 164.9 35.38, 185.35 13.4 M149.56 61.18 C158.97 47.38, 170.28 35.74, 184.82 21.63 M149.75 60.95 C155.88 50.61, 165.7 42.28, 185.2 19.32 M154.02 60.74 C164.14 49.12, 177.93 34.43, 185.66 25.37 M154.91 59.64 C161.86 50.25, 171.49 40.22, 184.09 25.26 M160.68 60.07 C167.97 51.05, 179.09 40.49, 184.63 31.62 M159.03 60.58 C167.34 53.55, 173.95 44.12, 183.68 30.92 M165.55 58.84 C168.86 57.22, 172.7 50.3, 183.38 40.11 M164.34 60.37 C169.32 54.73, 175.08 49.51, 183.92 38.75 M169.71 61.92 C175.95 53.48, 178.55 51.4, 182.68 44.27 M169.49 60.94 C172.23 56.99, 175.12 53.71, 184.55 43.2 M174.2 59.6 C177.57 58.14, 179.26 55.51, 184.39 49.08 M175.48 61.05 C178.72 57.31, 181.11 53.06, 183.89 50.74 M180.55 59.8 C182.66 59.24, 183.25 57.02, 185.11 56.01 M180.85 60.62 C182.3 58.67, 183.43 57.39, 184.49 56.09" stroke="#fab005" stroke-width="0.5" fill="none"></path><path d="M0.65 -0.01 C52.19 -2.2, 104.9 -0.51, 184.22 -0.15 M0.07 0.03 C43.06 -0.35, 83.45 -1.16, 182.35 0.18 M184.59 -1.9 C183.24 12.44, 183.57 26.48, 181.24 60.96 M182.45 -0.13 C183.21 14.14, 183.57 26.17, 182.63 60.78 M183.98 61.17 C126.04 56.89, 74.57 56.55, 0.98 60.5 M182.97 59.66 C146.01 57.44, 108.43 58, 0.96 59.09 M-0.04 59.51 C-0.01 45.65, -2.25 32.41, -1.5 0.43 M-0.6 60.37 C-0.81 41.92, 0.31 24.94, -0.34 -0.01" stroke="#000000" stroke-width="1" fill="none"></path></g><g transform="translate(449.46821225918825 236.5) rotate(0 84 12.5)"><text x="84" y="18" font-family="Virgil, Segoe UI Emoji" font-size="20px" fill="#000000" text-anchor="middle" style="white-space: pre;" direction="ltr">ArticleVoteEntity</text></g><g stroke-linecap="round" transform="translate(418.46821225918825 66) rotate(0 114.5 138.5)"><path d="M57.25 0 M57.25 0 C92.11 -0.47, 123.69 -0.32, 171.75 0 M57.25 0 C83.62 -0.07, 109.88 -0.47, 171.75 0 M171.75 0 C208.72 1.48, 229.61 17.8, 229 57.25 M171.75 0 C207.69 -0.25, 228.57 19.68, 229 57.25 M229 57.25 C227.64 92.74, 231.13 130.34, 229 219.75 M229 57.25 C229.22 116.48, 229.6 175.45, 229 219.75 M229 219.75 C230.78 257.23, 210.37 275.59, 171.75 277 M229 219.75 C227.26 259.01, 207.83 275.99, 171.75 277 M171.75 277 C134.73 276.44, 95.2 279.42, 57.25 277 M171.75 277 C148.86 276.34, 124.26 277.54, 57.25 277 M57.25 277 C18.11 278.15, -0.46 258.68, 0 219.75 M57.25 277 C17.38 277.29, 0.86 257.42, 0 219.75 M0 219.75 C0.68 156.27, 2.76 92.82, 0 57.25 M0 219.75 C0.54 184.01, -0.2 145.7, 0 57.25 M0 57.25 C-0.66 18.24, 18.48 -0.33, 57.25 0 M0 57.25 C2.21 21.2, 20.11 1.33, 57.25 0" stroke="#000000" stroke-width="2" fill="none"></path></g><g transform="translate(462.46821225918825 80) rotate(0 60.5 12.5)"><text x="0" y="18" font-family="Virgil, Segoe UI Emoji" font-size="20px" fill="#000000" text-anchor="start" style="white-space: pre;" direction="ltr">Django ORM</text></g><g stroke-linecap="round"><g transform="translate(308.46821225918825 197.98506456434222) rotate(0 54.62390061746356 0.14611615363207875)"><path d="M0.49 1.12 C18.67 1.15, 91.87 1.13, 109.95 0.81 M-0.71 0.66 C17.31 0.31, 91.35 -0.74, 109.51 -0.84" stroke="#000000" stroke-width="1" fill="none"></path></g><g transform="translate(308.46821225918825 197.98506456434222) rotate(0 54.62390061746356 0.14611615363207875)"><path d="M83.28 11.31 C93.45 5.65, 101.27 1.43, 108.85 -0.05 M80.87 8.76 C90.05 5.97, 98.27 4.51, 108.72 -0.48" stroke="#000000" stroke-width="1" fill="none"></path></g><g transform="translate(308.46821225918825 197.98506456434222) rotate(0 54.62390061746356 0.14611615363207875)"><path d="M83.07 -9.21 C93.42 -7.17, 101.32 -3.68, 108.85 -0.05 M80.65 -11.76 C89.71 -8.54, 97.99 -3.99, 108.72 -0.48" stroke="#000000" stroke-width="1" fill="none"></path></g></g><g stroke-linecap="round"><g transform="translate(417.46821225918825 222.15027710020604) rotate(0 -54.896893152967095 -2.4443489610240476)"><path d="M1.04 -0.46 C-17.61 -1.1, -92.45 -3.69, -110.83 -4.43 M0.12 -1.74 C-18.24 -2.19, -90.27 -2.8, -108.55 -3.21" stroke="#000000" stroke-width="1" fill="none"></path></g><g transform="translate(417.46821225918825 222.15027710020604) rotate(0 -54.896893152967095 -2.4443489610240476)"><path d="M-80.98 -14.44 C-92.27 -7.72, -104.11 -5.15, -108.32 -4.36 M-80.02 -13.76 C-86.82 -10.14, -94.36 -8.71, -108.49 -3.95" stroke="#000000" stroke-width="1" fill="none"></path></g><g transform="translate(417.46821225918825 222.15027710020604) rotate(0 -54.896893152967095 -2.4443489610240476)"><path d="M-81.28 6.08 C-92.36 4.83, -104.08 -0.57, -108.32 -4.36 M-80.32 6.76 C-87.22 5.1, -94.68 1.26, -108.49 -3.95" stroke="#000000" stroke-width="1" fill="none"></path></g></g><g stroke-linecap="round" transform="translate(766.4682122591882 142) rotate(0 51 49.5)"><path d="M9.85 3.27 C9.85 3.27, 9.85 3.27, 9.85 3.27 M9.85 3.27 C9.85 3.27, 9.85 3.27, 9.85 3.27 M7.36 18.33 C7.17 13.86, 11.2 13.53, 23.11 0.21 M7.36 18.33 C10.41 14.83, 15.35 11.61, 23.11 0.21 M6.84 31.12 C18.22 19.63, 25.08 12.64, 29.8 4.71 M6.84 31.12 C12.96 25.15, 18.47 16.61, 29.8 4.71 M6.32 43.92 C15.62 36.96, 22.35 24.15, 40.43 4.67 M6.32 43.92 C18.16 27.35, 33.62 11.94, 40.43 4.67 M5.79 56.71 C16.95 46.5, 31.9 29.54, 51.06 4.64 M5.79 56.71 C23.28 37.8, 40.94 15.03, 51.06 4.64 M0.68 74.79 C14.56 60.56, 34.95 37.36, 61.69 4.6 M0.68 74.79 C21.81 50.37, 46.07 24.58, 61.69 4.6 M2.78 84.57 C23.94 58.58, 46.36 36.26, 72.32 4.57 M2.78 84.57 C25.01 59.46, 50.39 30.09, 72.32 4.57 M6.85 92.08 C36.16 55.26, 64.96 21.77, 84.92 2.27 M6.85 92.08 C37 58.37, 69.14 24.04, 84.92 2.27 M12.23 98.08 C34.51 78.77, 53.82 58.87, 93.58 4.5 M12.23 98.08 C40.23 66.99, 62.44 37.46, 93.58 4.5 M20.89 100.31 C50.24 70.96, 79.7 31.81, 98.96 10.5 M20.89 100.31 C45.03 69.57, 69.58 41.43, 98.96 10.5 M31.52 100.28 C49.8 77.94, 64.93 54.9, 101.72 19.52 M31.52 100.28 C57.04 72.44, 77.78 45.5, 101.72 19.52 M42.15 100.24 C60.87 77.22, 80 61.97, 105.14 27.79 M42.15 100.24 C65.03 70.34, 90.58 45.28, 105.14 27.79 M52.78 100.21 C66.41 86.56, 80.63 74.2, 105.27 39.83 M52.78 100.21 C67.59 82.19, 82.96 63.27, 105.27 39.83 M62.76 100.93 C77.18 87, 81.63 75.02, 105.4 51.87 M62.76 100.93 C71.03 90.67, 81.65 77.68, 105.4 51.87 M73.39 100.9 C84.03 93.32, 90.46 80.92, 104.88 64.67 M73.39 100.9 C80.74 91.99, 89.85 83.18, 104.88 64.67 M82.05 103.13 C91.06 94.58, 95.26 85.03, 101.73 80.48 M82.05 103.13 C85.11 100.06, 89.3 92.91, 101.73 80.48 M9.7 95.54 C9.7 95.54, 9.7 95.54, 9.7 95.54 M9.7 95.54 C9.7 95.54, 9.7 95.54, 9.7 95.54 M21.74 95.41 C19.91 92.6, 18.59 89.28, 8.15 83.6 M21.74 95.41 C15.73 93.63, 13.83 87.89, 8.15 83.6 M33.78 95.28 C27.08 87.42, 21.07 79.72, 4.34 69.69 M33.78 95.28 C23.08 86.04, 15.36 78.64, 4.34 69.69 M46.57 95.8 C32.81 89.72, 29.63 77.44, 4.31 59.06 M46.57 95.8 C31.33 83.93, 18.08 73.13, 4.31 59.06 M58.61 95.67 C43.93 87.85, 34.39 72.02, 5.03 49.09 M58.61 95.67 C39.3 78.28, 22.83 60.89, 5.03 49.09 M70.65 95.53 C53.93 85.23, 44.47 75.19, 5 38.46 M70.65 95.53 C49.05 79.46, 25.38 57.13, 5 38.46 M81.19 94.09 C52.64 72.19, 33.63 53.83, 4.96 27.83 M81.19 94.09 C64.1 77.31, 43.14 63.11, 4.96 27.83 M93.23 93.96 C79.39 79.56, 58.5 58.75, 5.68 17.85 M93.23 93.96 C69.47 75.05, 44.44 51.92, 5.68 17.85 M99.23 88.57 C71.6 68.01, 48.81 44, 6.4 7.88 M99.23 88.57 C72.78 65.31, 46.6 43.93, 6.4 7.88 M101.46 79.91 C70.84 51.01, 40.55 26.51, 11.65 1.84 M101.46 79.91 C80.49 62.31, 60.13 42.87, 11.65 1.84 M101.43 69.28 C75.69 43.13, 49.51 24.22, 20.67 -0.92 M101.43 69.28 C81.2 48.39, 55.26 30.91, 20.67 -0.92 M101.39 58.65 C80.59 42.41, 66.96 33.25, 28.94 -4.33 M101.39 58.65 C79.65 41.33, 59.64 22.85, 28.94 -4.33 M102.11 48.68 C89.23 34.27, 73.15 25.33, 40.98 -4.46 M102.11 48.68 C79.83 29.27, 58.43 6.81, 40.98 -4.46 M102.08 38.05 C81.92 24.33, 63.31 11.36, 53.02 -4.6 M102.08 38.05 C85.09 24.93, 70.77 13.79, 53.02 -4.6 M102.04 27.42 C88.94 16.82, 81.98 5.12, 65.82 -4.07 M102.04 27.42 C92.88 20.01, 81.4 7.92, 65.82 -4.07 M105.78 20.07 C99.65 13.4, 91.41 3.28, 83.14 0.39 M105.78 20.07 C100.74 16.52, 94.92 11.46, 83.14 0.39" stroke="#ced4da" stroke-width="1" fill="none"></path><path d="M24.75 0 M24.75 0 C38.5 4.8, 43.17 -1.96, 77.25 0 M24.75 0 C45.43 0.65, 62.74 -1.97, 77.25 0 M77.25 0 C94.88 -0.11, 98.31 6.79, 102 24.75 M77.25 0 C97.69 1.82, 104.37 5.65, 102 24.75 M102 24.75 C97.67 40.87, 98.71 58.9, 102 74.25 M102 24.75 C99.86 44.77, 101.09 62.18, 102 74.25 M102 74.25 C103.82 89.33, 94.87 97.96, 77.25 99 M102 74.25 C97.62 86.63, 91.61 98.51, 77.25 99 M77.25 99 C61.8 98.45, 51.4 102.77, 24.75 99 M77.25 99 C68 97.77, 55.91 97.07, 24.75 99 M24.75 99 C5.93 101.07, 0.37 92.42, 0 74.25 M24.75 99 C3.67 96.1, 0.69 93.87, 0 74.25 M0 74.25 C-3.62 56.68, 0.01 49.06, 0 24.75 M0 74.25 C0.57 57.09, 1.32 40.04, 0 24.75 M0 24.75 C0.92 10.41, 4.81 -3.89, 24.75 0 M0 24.75 C3.21 11.44, 10.37 -3.97, 24.75 0" stroke="#000000" stroke-width="2" fill="none"></path></g><g stroke-linecap="round"><g transform="translate(648.4682122591882 164.22180312583836) rotate(0 57.92572262471543 1.0323856966146678)"><path d="M0.52 -0.81 C20.11 -0.7, 97.34 0.93, 116.52 1.39 M-0.67 1.38 C18.91 1.61, 96.63 3.11, 115.85 2.84" stroke="#000000" stroke-width="1" fill="none"></path></g><g transform="translate(648.4682122591882 164.22180312583836) rotate(0 57.92572262471543 1.0323856966146678)"><path d="M86.25 13.83 C93.26 10.02, 100.18 7.69, 117.81 2.01 M86.82 13.78 C97.56 8.75, 108.93 5.11, 114.96 2.7" stroke="#000000" stroke-width="1" fill="none"></path></g><g transform="translate(648.4682122591882 164.22180312583836) rotate(0 57.92572262471543 1.0323856966146678)"><path d="M86.36 -6.7 C93.47 -6.14, 100.37 -4.12, 117.81 2.01 M86.93 -6.74 C97.47 -4.25, 108.8 -0.38, 114.96 2.7" stroke="#000000" stroke-width="1" fill="none"></path></g></g><g stroke-linecap="round"><g transform="translate(765.4682122591882 218.92052035283137) rotate(0 -58.558143481239654 -0.5223307619423565)"><path d="M-0.13 0.43 C-19.63 0.3, -97.64 -1.34, -116.98 -1.48 M-1.66 -0.39 C-20.79 -0.25, -95.55 0.38, -114.79 0.1" stroke="#000000" stroke-width="1" fill="none"></path></g><g transform="translate(765.4682122591882 218.92052035283137) rotate(0 -58.558143481239654 -0.5223307619423565)"><path d="M-85.86 -11.75 C-94.93 -7.46, -101.49 -3.68, -116.1 -0.95 M-87.29 -10.09 C-92.69 -8.88, -98.79 -6.62, -115.17 -0.02" stroke="#000000" stroke-width="1" fill="none"></path></g><g transform="translate(765.4682122591882 218.92052035283137) rotate(0 -58.558143481239654 -0.5223307619423565)"><path d="M-85.89 8.77 C-94.83 6.94, -101.39 4.58, -116.1 -0.95 M-87.32 10.43 C-92.54 7.23, -98.63 5.09, -115.17 -0.02" stroke="#000000" stroke-width="1" fill="none"></path></g></g><g transform="translate(801.4682122591882 179) rotate(0 16 12.5)"><text x="16" y="18" font-family="Virgil, Segoe UI Emoji" font-size="20px" fill="#000000" text-anchor="middle" style="white-space: pre;" direction="ltr">DB</text></g><g stroke-linecap="round"><g transform="translate(155.46821225918825 200) rotate(0 -71.61561263540759 0.4927028133952831)"><path d="M0.36 -0.65 C-23.38 -0.27, -118.88 0.83, -143.11 1.07 M-0.92 1.62 C-24.67 1.8, -119.96 -0.03, -143.59 -0.49" stroke="#000000" stroke-width="4" fill="none"></path></g><g transform="translate(155.46821225918825 200) rotate(0 -71.61561263540759 0.4927028133952831)"><path d="M-116.29 -8.73 C-120.33 -9.48, -127.61 -3.83, -143.96 -0.54 M-115.03 -9.94 C-125.71 -6.77, -135.45 -3.26, -143.18 -0.12" stroke="#000000" stroke-width="4" fill="none"></path></g><g transform="translate(155.46821225918825 200) rotate(0 -71.61561263540759 0.4927028133952831)"><path d="M-116.68 11.79 C-120.42 6.11, -127.6 6.84, -143.96 -0.54 M-115.42 10.58 C-126.16 6.52, -135.76 2.82, -143.18 -0.12" stroke="#000000" stroke-width="4" fill="none"></path></g></g><g stroke-linecap="round" transform="translate(168.46821225918825 10) rotate(0 233.5000000000001 191.5)"><path d="M95.75 0 M95.75 0 C184.16 -3.45, 271.17 -1.86, 371.25 0 M95.75 0 C149.84 -3.14, 206.08 -1.57, 371.25 0 M371.25 0 C431.59 -3.86, 465.93 34.24, 467 95.75 M371.25 0 C430.86 0.62, 467.26 34.36, 467 95.75 M467 95.75 C467.44 163.45, 463.89 220.74, 467 287.25 M467 95.75 C468.54 156.89, 471.22 219.5, 467 287.25 M467 287.25 C464.89 351.72, 437.74 386.95, 371.25 383 M467 287.25 C463.76 350.76, 436.86 378.72, 371.25 383 M371.25 383 C311.18 386.56, 246 385.31, 95.75 383 M371.25 383 C280.02 382.53, 185.5 383.36, 95.75 383 M95.75 383 C33.67 381.75, -0.11 354.4, 0 287.25 M95.75 383 C36.4 386.01, -1.08 350.32, 0 287.25 M0 287.25 C-1.08 243.47, 3.38 197.37, 0 95.75 M0 287.25 C-0.24 233.11, -1.52 179.18, 0 95.75 M0 95.75 C-1.09 31.54, 34.62 1.38, 95.75 0 M0 95.75 C0.84 33.15, 32.01 -3.28, 95.75 0" stroke="#000000" stroke-width="1" fill="none"></path></g><g transform="translate(233.46821225918825 40) rotate(0 51.5 12.5)"><text x="0" y="18" font-family="Virgil, Segoe UI Emoji" font-size="20px" fill="#000000" text-anchor="start" style="white-space: pre;" direction="ltr">Repository</text></g><g stroke-linecap="round"><g transform="translate(156.08382489459586 223.50729718660472) rotate(0 -72.34096531437709 0.7819010164588747)"><path d="M-0.52 -0.99 C-24.58 -0.62, -120.94 2.23, -145.09 2.56 M1.4 1.1 C-22.76 1.09, -121.45 0.62, -146.08 0.73" stroke="#000000" stroke-width="4" fill="none"></path></g><g transform="translate(156.08382489459586 223.50729718660472) rotate(0 -72.34096531437709 0.7819010164588747)"><path d="M-30.1 9.83 C-20.88 6.78, -16.88 3.39, -0.55 -2.83 M-27.62 9.96 C-20.96 7.16, -14 4.11, 0.33 -0.46" stroke="#000000" stroke-width="4" fill="none"></path></g><g transform="translate(156.08382489459586 223.50729718660472) rotate(0 -72.34096531437709 0.7819010164588747)"><path d="M-30.62 -10.69 C-21.23 -8.84, -17.11 -7.33, -0.55 -2.83 M-28.14 -10.55 C-21.22 -7.7, -14.11 -5.1, 0.33 -0.46" stroke="#000000" stroke-width="4" fill="none"></path></g></g></svg>