<svg version="1.1" xmlns="http://www.w3.org/2000/svg" viewBox="0 0 800 280" width="800" height="280">
  <!-- svg-source:excalidraw -->
  
  <defs>
    <style class="style-fonts">
      @font-face {
        font-family: "Virgil";
        src: url("https://excalidraw.com/Virgil.woff2");
      }
      @font-face {
        font-family: "Cascadia";
        src: url("https://excalidraw.com/Cascadia.woff2");
      }
    </style>
  </defs>
  <g stroke-linecap="round" transform="translate(10 90) rotate(0 110 60)"><path d="M2.13 -3.31 C90.62 -3.97, 177.8 -6.15, 221.9 -2.44 M-0.99 0.92 C58.97 -1.84, 114.91 -4.31, 218.55 -0.1 M219.61 0.47 C222.37 45.21, 224.33 92.9, 218.21 116.05 M220.59 -0.37 C221.35 32.57, 222.33 68.46, 221.46 118.92 M220.67 122.69 C154.17 123.57, 91.88 123.77, -1.33 120.57 M220.54 118.66 C159.57 116.78, 100.19 115.14, 1.04 118.52 M1.67 122.56 C-2.77 80.31, -5.27 41.02, 3.97 -1.13 M-1.7 119.13 C1.8 86.28, 1.17 54.06, -1.49 1.13" stroke="#1971c2" stroke-width="2" fill="none"></path></g><g transform="translate(32.20563507080078 97.5) rotate(0 87.79436492919922 52.5)"><text x="87.79436492919922" y="0" font-family="Virgil, Segoe UI Emoji" font-size="28px" fill="#1971c2" text-anchor="middle" style="white-space: pre;" direction="ltr" dominant-baseline="text-before-edge">blog</text><text x="87.79436492919922" y="35" font-family="Virgil, Segoe UI Emoji" font-size="28px" fill="#1971c2" text-anchor="middle" style="white-space: pre;" direction="ltr" dominant-baseline="text-before-edge">repository</text><text x="87.79436492919922" y="70" font-family="Virgil, Segoe UI Emoji" font-size="28px" fill="#1971c2" text-anchor="middle" style="white-space: pre;" direction="ltr" dominant-baseline="text-before-edge">(site source)</text></g><g stroke-linecap="round" transform="translate(530 90) rotate(0 130 60)"><path d="M2.71 -2.48 C54.92 -1.65, 105.14 1.57, 262.56 -1.83 M-0.76 -1.16 C90.4 -3, 184.97 -1.66, 260.66 -0.16 M262.45 -1.78 C258.51 33.47, 259.46 78.23, 257.98 121.18 M260.29 1.5 C260.64 32.72, 259.14 66.23, 261.79 120.39 M262.72 120.33 C160.6 120.72, 62.72 117.33, -2.67 120.99 M259.38 118.45 C203.08 118.55, 144.72 121.38, 0.42 120.67 M-3.07 120.09 C4.31 75.19, -0.9 32.19, 2.55 -3.39 M0.9 118.61 C-3.32 90.36, -3.07 56.51, -1.92 0.68" stroke="#f08c00" stroke-width="2" fill="none"></path></g><g transform="translate(540.6215057373047 97.5) rotate(0 119.37849426269531 52.5)"><text x="119.37849426269531" y="0" font-family="Virgil, Segoe UI Emoji" font-size="28px" fill="#f08c00" text-anchor="middle" style="white-space: pre;" direction="ltr" dominant-baseline="text-before-edge">basicwolf.github.io</text><text x="119.37849426269531" y="35" font-family="Virgil, Segoe UI Emoji" font-size="28px" fill="#f08c00" text-anchor="middle" style="white-space: pre;" direction="ltr" dominant-baseline="text-before-edge">repository</text><text x="119.37849426269531" y="70" font-family="Virgil, Segoe UI Emoji" font-size="28px" fill="#f08c00" text-anchor="middle" style="white-space: pre;" direction="ltr" dominant-baseline="text-before-edge">(deployed site)</text></g><g mask="url(#mask-tuguHMTEA2dV1NVxEPIQT)" stroke-linecap="round"><g transform="translate(228.1997069302215 147.42166316180362) rotate(0 150.3971078695795 0.176592862915129)"><path d="M1.8 -2.68 C96.9 2.79, 193.75 1.44, 298.99 3.03" stroke="#1971c2" stroke-width="2.5" fill="none" stroke-dasharray="8 10"></path></g><g transform="translate(228.1997069302215 147.42166316180362) rotate(0 150.3971078695795 0.176592862915129)"><path d="M273.15 9.39 C281.6 13.08, 292.26 7.97, 301.16 6.93" stroke="#1971c2" stroke-width="2.5" fill="none"></path></g><g transform="translate(228.1997069302215 147.42166316180362) rotate(0 150.3971078695795 0.176592862915129)"><path d="M273.35 -11.13 C281.39 -0.84, 291.99 0.66, 301.16 6.93" stroke="#1971c2" stroke-width="2.5" fill="none"></path></g></g><mask id="mask-tuguHMTEA2dV1NVxEPIQT"><rect x="0" y="0" fill="#fff" width="625.5982316709324" height="247.5783368381965"></rect><rect x="331.3147865613191" y="130" fill="#000" width="91.16836547851562" height="35" opacity="1"></rect></mask><g transform="translate(331.3147865613191 130) rotate(0 47.28202823848187 17.59825602471875)"><text x="45.58418273925781" y="0" font-family="Virgil, Segoe UI Emoji" font-size="28px" fill="#1971c2" text-anchor="middle" style="white-space: pre;" direction="ltr" dominant-baseline="text-before-edge">Publish</text></g><g stroke-linecap="round" transform="translate(30 10) rotate(0 210 130)"><path d="M0.95 1.76 C133.11 4.92, 263.41 3.83, 418.05 0.26 M422.33 1.37 C416.01 54.52, 418.1 109.82, 417.99 258.31 M418.9 259.42 C324.83 262.57, 225.67 263.81, 2.13 261.96 M0.52 257.47 C-1.93 169.06, -0.08 78.17, 2.43 -1.05" stroke="#6741d9" stroke-width="1.5" fill="none" stroke-dasharray="8 9"></path></g><g transform="translate(310 30) rotate(0 57.80625915527344 17.5)"><text x="0" y="0" font-family="Virgil, Segoe UI Emoji" font-size="28px" fill="#1971c2" text-anchor="start" style="white-space: pre;" direction="ltr" dominant-baseline="text-before-edge">Workflow</text></g></svg>